<?xml version="1.0" encoding="UTF-8"?>
<svg version="1.1" xmlns="http://www.w3.org/2000/svg" width="304" height="720">
<path d="M0 0 C2.45810881 0.41798922 4.91646785 0.83450807 7.375 1.25 C14.01563061 2.45900587 20.50327483 4.11325702 27 5.9375 C27.87188965 6.17823242 28.7437793 6.41896484 29.64208984 6.66699219 C35.11575026 8.2482952 39.98620547 10.31321436 45 13 C46.02351562 13.49371094 47.04703125 13.98742188 48.1015625 14.49609375 C51.33326383 16.17291991 54.33735731 18.05615575 57.375 20.0625 C58.43460937 20.75472656 59.49421875 21.44695313 60.5859375 22.16015625 C61.78089844 23.07087891 61.78089844 23.07087891 63 24 C63 24.66 63 25.32 63 26 C63.8353125 26.34998047 63.8353125 26.34998047 64.6875 26.70703125 C67.59368245 28.33194069 69.64099571 30.33928384 72 32.6875 C72.845625 33.51636719 73.69125 34.34523437 74.5625 35.19921875 C77.2183529 38.25089588 79.12055006 41.44798164 81 45 C81.67738151 46.21670528 82.35577499 47.4328477 83.03515625 48.6484375 C87.94718547 57.61936653 91.5144748 65.99190297 93.5703125 76.0546875 C94.00867747 78.19964631 94.00867747 78.19964631 95 81 C95.93476627 88.6029647 96.14593667 96.21564253 96.13142776 103.8670578 C96.1334804 104.8961065 96.13553303 105.92515521 96.13764787 106.98538721 C96.14327641 110.41373236 96.1418658 113.84203682 96.14044189 117.27038574 C96.14302786 119.76102192 96.14604166 122.25165769 96.1494453 124.74229288 C96.15664815 130.85630873 96.15921654 136.97031202 96.15977435 143.08433161 C96.16069141 150.41193684 96.16736871 157.73953408 96.17412117 165.06713585 C96.1901425 182.76571265 96.19607853 200.46428855 96.20086992 218.1628713 C96.20320817 226.53437016 96.2068109 234.90586834 96.2105653 243.27736666 C96.22339283 271.93540621 96.23411628 300.59344538 96.2375679 329.25148773 C96.23778953 331.04853246 96.23801132 332.84557718 96.23823325 334.6426219 C96.23845389 336.44395488 96.23867437 338.24528787 96.2388947 340.04662085 C96.23933725 343.66031234 96.23978437 347.27400382 96.24023438 350.88769531 C96.24039846 352.23166176 96.24039846 352.23166176 96.24056586 353.60277904 C96.24420119 382.69272407 96.26014322 411.78264426 96.28342474 440.87257978 C96.30799825 471.6330049 96.32173942 502.3934158 96.32293582 533.15385103 C96.32310728 536.52729575 96.32332271 539.90074047 96.32357025 543.27418518 C96.32362602 544.10481407 96.32368179 544.93544297 96.32373925 545.79124243 C96.32489133 559.17568206 96.33592588 572.56009621 96.35045731 585.94452723 C96.36479394 599.38114963 96.36807522 612.81773923 96.36001733 626.25436717 C96.35554894 634.24316609 96.35946995 642.23185941 96.37525584 650.22064453 C96.38610211 656.17413439 96.38140388 662.12754405 96.37048396 668.08103615 C96.36851103 670.49796153 96.37167807 672.91489732 96.38032833 675.33180803 C96.39129513 678.60128353 96.3840231 681.87021205 96.3719368 685.13967133 C96.38332959 686.56748792 96.38332959 686.56748792 96.39495254 688.0241493 C96.34391527 694.36054905 96.34391527 694.36054905 94.64423442 697.52081156 C90.56776181 701.18809349 84.98335926 702.87907358 80 705 C79.00742187 705.47050781 78.01484375 705.94101562 76.9921875 706.42578125 C66.97863925 710.85736461 56.77782341 711.25670183 46 712 C42.37 712.33 38.74 712.66 35 713 C34.67 701.78 34.34 690.56 34 679 C22.38946804 678.84046147 22.38946804 678.84046147 11.25 680 C5.16666667 681 5.16666667 681 2 681 C1.7525 681.54140625 1.505 682.0828125 1.25 682.640625 C-0.27988604 685.5282849 -2.09150997 688.09776018 -4 690.75 C-5.051875 692.22726562 -5.051875 692.22726562 -6.125 693.734375 C-7.053125 694.85585937 -7.053125 694.85585937 -8 696 C-8.66 696 -9.32 696 -10 696 C-10.2784375 696.57234375 -10.556875 697.1446875 -10.84375 697.734375 C-11.98273792 699.96617566 -13.19936383 702.10870874 -14.5 704.25 C-15.13421875 705.30960938 -15.13421875 705.30960938 -15.78125 706.390625 C-16.1834375 706.92171875 -16.585625 707.4528125 -17 708 C-17.66 708 -18.32 708 -19 708 C-19.28875 708.5775 -19.5775 709.155 -19.875 709.75 C-20.24625 710.4925 -20.6175 711.235 -21 712 C-21.309375 712.70125 -21.61875 713.4025 -21.9375 714.125 C-23 716 -23 716 -26 718 C-28.63484315 717.87104216 -31.08988447 717.63348291 -33.6875 717.25 C-34.41356445 717.15146729 -35.13962891 717.05293457 -35.88769531 716.95141602 C-39.39606194 716.4554627 -42.83551151 715.88717727 -46.25 714.9375 C-50.45337933 713.88665517 -54.46111065 713.58123188 -58.77734375 713.34375 C-61.30088645 713.07457211 -63.52825894 712.6769044 -65.98046875 712.09375 C-72.37523858 710.60974016 -78.87182792 709.85287503 -85.375 709 C-93.01536466 707.99178693 -100.61253883 706.93359334 -108.18603516 705.50439453 C-114.98437489 704.28581307 -121.83939411 703.38925504 -128.67578125 702.41210938 C-129.83464844 702.24388672 -130.99351562 702.07566406 -132.1875 701.90234375 C-133.75564453 701.67792603 -133.75564453 701.67792603 -135.35546875 701.44897461 C-138 701 -138 701 -141 700 C-142.72774185 699.8743968 -144.45730553 699.77291157 -146.1875 699.6875 C-155.20260586 698.88088527 -160.10953424 695.4089811 -166.140625 688.8046875 C-169.61791334 685.42967235 -172.54683504 684.76962744 -177.3125 684.5 C-181.80065178 684.16798349 -185.668495 683.23757286 -190 682 C-191.85198482 681.82867101 -193.70663858 681.68489194 -195.5625 681.5625 C-199.98281806 681.21592761 -203.25962555 680.55920357 -207 678 C-208.22526185 674.32421446 -208.13756847 670.944187 -208.12584114 667.11725044 C-208.12729458 666.30149078 -208.12874802 665.48573111 -208.13024551 664.64525145 C-208.13391983 661.88824863 -208.13041245 659.1313006 -208.12698364 656.3742981 C-208.1281349 654.38711833 -208.12972245 652.39993877 -208.13171089 650.41275966 C-208.13590367 644.93362647 -208.13381373 639.45451059 -208.13072467 633.97537732 C-208.12847056 628.07343758 -208.13195026 622.17150091 -208.13470459 616.26956177 C-208.13890344 605.36923021 -208.13852659 594.46890464 -208.13579312 583.56857276 C-208.13328019 573.49849244 -208.13261964 563.42841416 -208.13381577 553.35833359 C-208.13389215 552.69104628 -208.13396854 552.02375898 -208.13404724 551.33625084 C-208.13435856 548.62767238 -208.13467696 545.91909392 -208.135007 543.21051546 C-208.13806807 517.78597537 -208.13528938 492.3614388 -208.1299101 466.93689925 C-208.12516536 444.33960412 -208.12558797 421.74231462 -208.13037109 399.14501953 C-208.13572402 373.77078409 -208.13784991 348.39655178 -208.13475883 323.02231586 C-208.1344381 320.31797655 -208.13412526 317.61363725 -208.13381577 314.90929794 C-208.13373669 314.24339603 -208.13365761 313.57749411 -208.13357614 312.89141335 C-208.13243785 302.82807115 -208.13377048 292.7647312 -208.13629532 282.70138931 C-208.13909599 271.25929963 -208.13834942 259.81721682 -208.13301457 248.37512793 C-208.13038104 242.53361517 -208.12936664 236.69211387 -208.13266373 230.8506012 C-208.13563385 225.5076635 -208.13402181 220.16474793 -208.12868617 214.82181226 C-208.12756506 212.88441012 -208.12814646 210.94700614 -208.13056196 209.00960518 C-208.13358488 206.3845205 -208.13050165 203.75951246 -208.12584114 201.13443184 C-208.12935289 199.995479 -208.12935289 199.995479 -208.13293558 198.83351701 C-208.11959683 195.09658988 -207.8978534 191.63348127 -207 188 C-206.34 188 -205.68 188 -205 188 C-204.67 187.01 -204.34 186.02 -204 185 C-200.20169741 182.46779827 -197.47802616 182.92125827 -193.125 183.25 C-192.34431152 183.3015625 -191.56362305 183.353125 -190.75927734 183.40625 C-184.37419907 183.84911651 -177.99807439 184.41103236 -171.625 185 C-170.72797363 185.08282227 -169.83094727 185.16564453 -168.90673828 185.25097656 C-168.06353027 185.3331543 -167.22032227 185.41533203 -166.3515625 185.5 C-165.60729004 185.5721875 -164.86301758 185.644375 -164.09619141 185.71875 C-162.00631078 185.99915327 -160.04263268 186.48544962 -158 187 C-155.79379051 187.17505189 -153.58488499 187.31745082 -151.375 187.4375 C-147.17542444 187.70997504 -143.1664376 188.06885449 -139.0625 189 C-134.84999084 189.94538159 -130.74755324 190.26007656 -126.4375 190.5 C-121.54447811 190.77400923 -117.10088019 191.31527466 -112.37109375 192.53125 C-109.2525973 193.14775671 -106.172187 193.31041358 -103 193.5 C-99.06943336 193.73491113 -95.37681413 194.01938238 -91.5625 195 C-87.54640097 196.02091489 -83.63490901 196.27005471 -79.5 196.5 C-74.55096641 196.77576705 -70.0265299 197.30488123 -65.23828125 198.53125 C-62.49311475 199.10615398 -59.79715443 199.30296774 -57 199.5 C-52.62779169 199.80914604 -48.61348539 200.47259814 -44.37109375 201.53125 C-40.45225268 202.3059797 -36.48768056 202.45273663 -32.50390625 202.65625 C-30 203 -30 203 -28 205 C-27.68270206 207.09593725 -27.68270206 207.09593725 -27.58937073 209.75099945 C-27.53199313 211.26885662 -27.53199313 211.26885662 -27.47345638 212.81737757 C-27.44297994 213.94156265 -27.41250349 215.06574773 -27.38110352 216.22399902 C-27.32459924 218.01693587 -27.32459924 218.01693587 -27.26695347 219.84609365 C-26.81982493 235.79078321 -26.87272106 251.74119485 -26.89859343 267.69065928 C-26.90507114 272.39800391 -26.90554449 277.10534997 -26.9067688 281.81269836 C-26.909632 289.93824206 -26.91603145 298.06377646 -26.92483521 306.1893158 C-26.93748218 317.94892784 -26.94348694 329.70853652 -26.94776857 341.46815425 C-26.95480725 360.57105736 -26.96558864 379.67395617 -26.97949219 398.77685547 C-26.98073391 400.48567641 -26.98073391 400.48567641 -26.98200071 402.22901899 C-26.98790382 410.31934606 -26.99394062 418.40967304 -27 426.5 C-27.00693635 435.76969394 -27.01380053 445.03938792 -27.02050781 454.30908203 C-27.02133594 455.45173635 -27.02216407 456.59439067 -27.02301729 457.77167088 C-27.03670701 476.83023667 -27.04646215 495.88880255 -27.05341816 514.94737196 C-27.05789133 526.67938708 -27.06591462 538.41138955 -27.07856297 550.14339876 C-27.08699436 558.17094889 -27.09188076 566.19849611 -27.09398818 574.22605038 C-27.0953312 578.8533169 -27.09832716 583.48056704 -27.10574722 588.10782814 C-27.11251987 592.34726836 -27.1146274 596.58668497 -27.11311162 600.82613009 C-27.1133819 602.35511966 -27.11533875 603.88411011 -27.1192044 605.41309482 C-27.14399847 615.7014221 -26.9181884 625.86100417 -25 636 C-23.824375 635.938125 -23.824375 635.938125 -22.625 635.875 C-20 636 -20 636 -18 638 C-16.68 638 -15.36 638 -14 638 C-13.2520959 633.33285048 -12.87481746 628.86191898 -12.87415886 624.13715076 C-12.8719787 623.15179718 -12.8719787 623.15179718 -12.86975449 622.14653745 C-12.86611653 619.95401663 -12.86957061 617.76156629 -12.87301636 615.56904602 C-12.87186368 613.9778069 -12.87027516 612.38656805 -12.86828911 610.79532975 C-12.86411615 606.4292545 -12.86617731 602.06320112 -12.86927533 597.69712579 C-12.87153741 592.98615202 -12.86804582 588.27518201 -12.86529541 583.56420898 C-12.86084772 574.33882577 -12.86180966 565.11345069 -12.86470805 555.88806716 C-12.86696559 548.39255768 -12.86727308 540.89705048 -12.86618423 533.40154076 C-12.86595439 531.80192462 -12.86595439 531.80192462 -12.86571989 530.16999301 C-12.86540017 528.00370167 -12.86507596 525.83741033 -12.8647473 523.671119 C-12.86189555 503.35675383 -12.86517498 483.04239317 -12.87054767 462.72802874 C-12.87501736 445.28767771 -12.87423782 427.84733333 -12.86962891 410.40698242 C-12.8642811 390.16110362 -12.86216818 369.91522878 -12.86524117 349.66934937 C-12.86555973 347.51190356 -12.8658741 345.35445776 -12.86618423 343.19701195 C-12.86633851 342.13545726 -12.86649279 341.07390257 -12.86665174 339.98017955 C-12.86751613 332.48991664 -12.86605573 324.99965622 -12.86370468 317.50939369 C-12.86090429 308.38694043 -12.86165012 299.26449578 -12.86698543 290.14204351 C-12.86961888 285.48540677 -12.87063345 280.8287844 -12.86733627 276.17214775 C-12.86436617 271.91315095 -12.86597813 267.6541819 -12.87131383 263.39518764 C-12.87243492 261.85092166 -12.8718536 260.30665336 -12.86943804 258.76238886 C-12.86641503 256.67000077 -12.86949839 254.57770882 -12.87415886 252.48532581 C-12.87432121 251.32110059 -12.87448356 250.15687536 -12.87465084 248.95737058 C-12.98188008 246.42750432 -13.32796555 244.41654919 -14 242 C-14.08197613 239.68351312 -14.10747793 237.36479111 -14.09765625 235.046875 C-14.09553383 234.05654266 -14.09553383 234.05654266 -14.09336853 233.04620361 C-14.08779245 230.94742206 -14.07524447 228.84874905 -14.0625 226.75 C-14.0574819 225.32291821 -14.05291954 223.89583475 -14.04882812 222.46875 C-14.03783088 218.97913168 -14.0205828 215.48957644 -14 212 C-11.92595896 211.95761112 -9.85166641 211.92741499 -7.77734375 211.90234375 C-6.62226318 211.88421631 -5.46718262 211.86608887 -4.27709961 211.84741211 C2.06389686 212.14266077 6.0837397 214.73306202 10.3125 219.3125 C15.54342611 225.50267903 16.4465349 231.65272142 16.36328125 239.453125 C16.36450485 240.36922546 16.36572845 241.28532593 16.36698914 242.22918701 C16.36517664 245.23642272 16.33977264 248.24289513 16.3125 251.25 C16.30380949 253.36458241 16.29534927 255.47916578 16.28710938 257.59375 C16.1958018 272.29802116 15.63583376 286.95347511 14.86090088 301.63537598 C14.20104831 314.22022921 13.75933355 326.78386932 13.70043945 339.38720703 C13.69188392 341.11477901 13.67829722 342.84233415 13.65942383 344.56982422 C13.63591426 346.94266127 13.63281337 349.31456942 13.63671875 351.6875 C13.62758957 352.38842773 13.61846039 353.08935547 13.60905457 353.81152344 C13.63600716 356.6327823 13.70474186 358.55996834 15.30004883 360.9375 C19.61722287 363.63581128 25.58803373 361.9540145 30.27734375 360.98046875 C31.16542725 360.79766357 32.05351074 360.6148584 32.96850586 360.42651367 C33.63889893 360.28576416 34.30929199 360.14501465 35 360 C34.98615471 342.75292213 34.94373924 325.50617794 34.86790943 308.25926685 C34.8333512 300.25004383 34.80791601 292.24099127 34.80444336 284.23168945 C34.80139063 277.24550787 34.78072573 270.25963061 34.73947543 263.27356642 C34.71826139 259.57916905 34.70548431 255.88520303 34.71384621 252.1907444 C34.72288137 248.05228035 34.69257068 243.91495284 34.65942383 239.77661133 C34.66804947 238.57035095 34.67667511 237.36409058 34.68556213 236.12127686 C34.51534416 223.36821629 30.29320639 212.37742355 21.30859375 203.2890625 C15.06308197 197.56051702 8.51651527 195.70876581 0.2578125 194.52734375 C-0.48726562 194.35332031 -1.23234375 194.17929688 -2 194 C-3.17169969 191.65660063 -3.12574056 190.28410554 -3.12698364 187.67285156 C-3.12980347 186.76426392 -3.13262329 185.85567627 -3.13552856 184.91955566 C-3.13249222 183.42023499 -3.13249222 183.42023499 -3.12939453 181.890625 C-3.13202301 180.31492737 -3.13202301 180.31492737 -3.13470459 178.70739746 C-3.13911983 175.22158169 -3.13618625 171.73581632 -3.1328125 168.25 C-3.13348563 165.83626292 -3.13445574 163.42252591 -3.13571167 161.00878906 C-3.1371882 155.94465491 -3.13503552 150.88053836 -3.13037109 145.81640625 C-3.12467384 139.31258747 -3.12795309 132.80880994 -3.13394356 126.30499268 C-3.13755037 121.31916999 -3.13641003 116.33335715 -3.13381577 111.34753418 C-3.13314683 108.94885249 -3.13397376 106.55016992 -3.13629532 104.15148926 C-3.13882379 100.80409362 -3.13497844 97.45676558 -3.12939453 94.109375 C-3.13141876 93.10982788 -3.13344299 92.11028076 -3.13552856 91.08044434 C-3.13270874 90.17185669 -3.12988892 89.26326904 -3.12698364 88.32714844 C-3.1264181 87.13916656 -3.1264181 87.13916656 -3.12584114 85.92718506 C-3 84 -3 84 -2 82 C-1.38068604 81.9906543 -0.76137207 81.98130859 -0.12329102 81.97167969 C2.73106035 81.91740737 5.58387108 81.83387663 8.4375 81.75 C9.41138672 81.73582031 10.38527344 81.72164063 11.38867188 81.70703125 C17.32018188 81.50865299 21.61574129 80.57992618 26.91625977 77.93115234 C30.18934088 76.46852418 33.18097719 76.25960061 36.75 75.9375 C43.41291242 75.36800274 43.41291242 75.36800274 49 72 C51.02149628 63.16066224 48.39265436 53.70791172 43.84375 46.0546875 C42.91890312 44.68723533 41.96278011 43.34101516 41 42 C41 41.34 41 40.68 41 40 C40.401875 39.731875 39.80375 39.46375 39.1875 39.1875 C37 38 37 38 35.68359375 36.61328125 C27.0951929 28.38356071 14.65036833 25.8778249 3.33203125 24.4296875 C1.31436219 24.16949571 -0.69924429 23.86629244 -2.69741821 23.48420715 C-6.53546852 22.92149243 -10.30392303 22.83702081 -14.17333984 22.82299805 C-14.97091202 22.81642685 -15.76848419 22.80985565 -16.59022522 22.80308533 C-19.21379712 22.78347125 -21.8373122 22.77171849 -24.4609375 22.76171875 C-25.36115253 22.75764322 -26.26136757 22.7535677 -27.18886185 22.74936867 C-31.95077531 22.72856199 -36.71266039 22.71423511 -41.47460938 22.70483398 C-46.37936157 22.69376047 -51.28366127 22.65933422 -56.1882534 22.61966228 C-59.97334614 22.59346822 -63.75833122 22.58513984 -67.54350662 22.58155251 C-69.35113213 22.57669645 -71.15875315 22.56511056 -72.96628952 22.54651451 C-75.50051235 22.52205529 -78.03356534 22.5230997 -80.56787109 22.5300293 C-81.30579391 22.51721924 -82.04371674 22.50440918 -82.80400085 22.49121094 C-88.38885427 22.54655579 -92.20168839 24.25818244 -97 27 C-98.32982879 27.67363018 -99.66226559 28.3422091 -101 29 C-101.495 28.01 -101.495 28.01 -102 27 C-100.33333333 25.33333333 -98.66666667 23.66666667 -97 22 C-96.401875 21.319375 -95.80375 20.63875 -95.1875 19.9375 C-92.69273675 17.72785255 -90.24246844 16.4708139 -87.2421875 15.05859375 C-85.75198835 14.35503283 -84.27718231 13.6178652 -82.8203125 12.84765625 C-70.80353809 6.51558489 -58.35478034 2.41216726 -45 0 C-44.08734375 -0.20496094 -43.1746875 -0.40992187 -42.234375 -0.62109375 C-28.64324463 -3.43639933 -13.48495219 -3.15309912 0 0 Z M-147 231 C-148.00546875 231.58652344 -149.0109375 232.17304688 -150.046875 232.77734375 C-152.15813858 234.01228142 -154.26403065 235.25646903 -156.36328125 236.51171875 C-159 238 -159 238 -162 239 C-163.88897026 240.75157791 -163.88897026 240.75157791 -165.6875 242.875 C-166.31011719 243.57367188 -166.93273437 244.27234375 -167.57421875 244.9921875 C-169.2894926 246.99724367 -169.2894926 246.99724367 -169 250 C-169.66 250 -170.32 250 -171 250 C-171.94548199 251.80834905 -172.88092454 253.62194783 -173.8125 255.4375 C-174.33457031 256.44683594 -174.85664063 257.45617187 -175.39453125 258.49609375 C-176.18923828 260.23052734 -176.18923828 260.23052734 -177 262 C-177.28230469 262.61319092 -177.56460938 263.22638184 -177.85546875 263.8581543 C-180.56686913 270.6536015 -180.45577679 277.58987464 -180.39111328 284.80151367 C-180.37505523 286.93017922 -180.39101277 289.05693952 -180.41015625 291.18554688 C-180.43589698 307.01609417 -175.81798675 318.35657431 -165.01171875 330.02734375 C-157.88322347 337.01742164 -149.77278362 340.27691637 -140.25 342.625 C-138.54640224 343.0528093 -136.84325311 343.4824103 -135.140625 343.9140625 C-134.39329102 344.0992041 -133.64595703 344.2843457 -132.87597656 344.47509766 C-131 345 -131 345 -129 346 C-125.0064773 346.29910165 -121.00339254 346.27826346 -117 346.3125 C-115.90042969 346.34150391 -114.80085938 346.37050781 -113.66796875 346.40039062 C-104.13422248 346.47390112 -97.06602841 344.00608101 -88.875 339.25 C-88.12992187 338.82203125 -87.38484375 338.3940625 -86.6171875 337.953125 C-86.08351563 337.63859375 -85.54984375 337.3240625 -85 337 C-85 336.34 -85 335.68 -85 335 C-84.42121094 334.75378906 -83.84242187 334.50757813 -83.24609375 334.25390625 C-75.98750651 330.20172103 -71.6729686 322.16096756 -68 315 C-67.29629606 313.83053517 -66.58822489 312.66368272 -65.875 311.5 C-59.49476739 299.59023246 -58.45502054 286.04046016 -62 273 C-63.93640374 268.06839866 -66.26031436 263.46836667 -68.875 258.875 C-69.20113281 258.28074219 -69.52726562 257.68648438 -69.86328125 257.07421875 C-74.47154358 248.95148398 -81.81696537 243.73222396 -89 238 C-89.70640625 237.42636719 -90.4128125 236.85273438 -91.140625 236.26171875 C-107.55787602 223.34814935 -128.59879073 220.129656 -147 231 Z M-133 373 C-133.81210938 373.26683594 -134.62421875 373.53367187 -135.4609375 373.80859375 C-142.08121245 376.04316835 -148.39801698 378.74686756 -154 383 C-154 383.66 -154 384.32 -154 385 C-154.61875 385.2475 -155.2375 385.495 -155.875 385.75 C-158.35068687 387.20628639 -158.95125002 388.37812506 -160 391 C-160.66 391 -161.32 391 -162 391 C-166.41314684 395.57075922 -169.08272165 401.42108109 -172 407 C-172.45890625 407.85335937 -172.9178125 408.70671875 -173.390625 409.5859375 C-173.81859375 410.40320313 -174.2465625 411.22046875 -174.6875 412.0625 C-175.25017578 413.13177734 -175.25017578 413.13177734 -175.82421875 414.22265625 C-179.47397376 422.84383834 -180.47333311 430.53335447 -180.375 439.875 C-180.38660156 440.96941406 -180.39820313 442.06382812 -180.41015625 443.19140625 C-180.35429654 458.92522347 -175.5413782 472.84145891 -164.5625 484.3125 C-152.21813819 496.55690747 -138.24802384 499.3047341 -121.4921875 499.31469727 C-107.38797206 499.15604362 -96.48587796 496.58500776 -85 488 C-83.948125 487.236875 -82.89625 486.47375 -81.8125 485.6875 C-77.7540628 481.80943779 -74.42411102 477.43609525 -71 473 C-70.33484375 472.21882813 -69.6696875 471.43765625 -68.984375 470.6328125 C-66.67362473 467.56697455 -65.01658142 464.32522643 -63.375 460.875 C-61.72682233 457.45787303 -60.11094909 454.16642363 -58 451 C-57.74801985 449.01565631 -57.49745821 447.02952023 -57.34375 445.03515625 C-57 443 -57 443 -55.99951172 441.13061523 C-52.51557521 433.70406078 -54.24331867 421.04199086 -56.625 413.5 C-58.88874949 407.73476749 -61.85426931 402.32677064 -65 397 C-65.66 397 -66.32 397 -67 397 C-67.495 395.515 -67.495 395.515 -68 394 C-68.66 394 -69.32 394 -70 394 C-70.495 392.515 -70.495 392.515 -71 391 C-71.66 391 -72.32 391 -73 391 C-73.19980469 390.45214844 -73.39960938 389.90429688 -73.60546875 389.33984375 C-78.49166878 381.14142969 -89.81608319 374.75062474 -98.5703125 371.796875 C-109.80518372 369.1864949 -122.13386271 368.87086783 -133 373 Z M15.82540512 384.70886993 C13.59411694 387.50943808 13.49472651 388.86194196 13.48101807 392.40808105 C13.46710526 393.50799881 13.45319244 394.60791656 13.43885803 395.74116516 C13.4438884 396.94484238 13.44891876 398.14851959 13.45410156 399.38867188 C13.44376389 400.66147507 13.43342621 401.93427826 13.42277527 403.24565125 C13.39481177 406.75094594 13.39151467 410.25588809 13.39249516 413.76127815 C13.38934188 417.48330424 13.36362996 421.20517806 13.34051514 424.92712402 C13.29981235 432.03677357 13.27960998 439.14633207 13.26654124 446.25608015 C13.25105489 454.13574013 13.21253072 462.01522615 13.17200375 469.89479065 C13.10209563 483.58464839 13.05920672 497.27437063 13.03751278 510.96438599 C13.02271036 520.03104193 12.98423023 529.09695834 12.91113663 538.16333771 C12.87258698 543.08307372 12.8449384 548.00283583 12.81911469 552.9226532 C12.8044226 555.18271364 12.78454621 557.44274702 12.75919342 559.70271301 C12.72538306 562.76218595 12.70958973 565.82123364 12.69824219 568.88085938 C12.68355644 569.77238205 12.6688707 570.66390472 12.65373993 571.58244324 C12.50771796 575.92838994 12.50771796 575.92838994 14.33012772 579.70084381 C18.89630094 583.25331442 25.47066979 581.92963724 30.86328125 581.3515625 C33.04492784 581.1008983 33.04492784 581.1008983 35 580 C35.0699942 554.47933555 35.12294106 528.95868542 35.15543652 503.43794441 C35.17092387 491.58896812 35.19204899 479.74005137 35.22631836 467.89111328 C35.25616362 457.56695387 35.2755614 447.24283756 35.28226548 436.9186362 C35.28618602 431.44899021 35.29543842 425.97946756 35.31719017 420.50986099 C35.33747842 415.36682725 35.3438494 410.22396824 35.33932304 405.08089828 C35.34015169 403.18858645 35.34616276 401.29626906 35.35761642 399.4039917 C35.37244091 396.82958531 35.36899079 394.25584737 35.36076355 391.681427 C35.37387134 390.54622673 35.37387134 390.54622673 35.38724393 389.38809311 C35.40279614 387.09721933 35.40279614 387.09721933 35 384 C29.84226694 380.56151129 20.80526842 380.79552555 15.82540512 384.70886993 Z M-166.60546875 539.09765625 C-178.93959096 554.04749768 -181.66590351 571.02174983 -181 590 C-180.97164062 590.85980469 -180.94328125 591.71960938 -180.9140625 592.60546875 C-179.92686143 608.89428641 -173.44970493 621.64832336 -162 633 C-155.71832235 638.26694511 -149.98067991 641.93603106 -142 644 C-140.54926164 644.67251282 -139.10020679 645.34866275 -137.65234375 646.02734375 C-131.1337566 648.65989589 -124.88625306 648.5887547 -117.9375 648.5 C-116.72255859 648.51546875 -115.50761719 648.5309375 -114.25585938 648.546875 C-106.84325954 648.51473365 -101.47766644 647.57509186 -95 644 C-93.92492187 643.51917969 -92.84984375 643.03835938 -91.7421875 642.54296875 C-85.28186499 639.48883808 -80.53816117 636.51267157 -76 631 C-75.56768066 630.47776855 -75.13536133 629.95553711 -74.68994141 629.41748047 C-73.19636244 627.60137284 -71.71951156 625.77313069 -70.25 623.9375 C-69.77747803 623.34775391 -69.30495605 622.75800781 -68.81811523 622.15039062 C-66.04459732 618.59854153 -63.92244536 615.10121676 -62 611 C-61.38125 610.030625 -60.7625 609.06125 -60.125 608.0625 C-54.2899731 598.05959674 -49.90828728 584.06803478 -52.875 572.625 C-53.24625 571.42875 -53.6175 570.2325 -54 569 C-54.25767296 567.25111331 -54.50694636 565.50097828 -54.75 563.75 C-56.21824478 555.35672669 -60.32852285 547.4093058 -67 542 C-68.485 541.505 -68.485 541.505 -70 541 C-70.67803791 539.67241316 -71.34294266 538.33809487 -72 537 C-74.81117948 534.11883265 -77.90865855 531.57529087 -81 529 C-81.68964844 528.42378906 -82.37929687 527.84757813 -83.08984375 527.25390625 C-106.91948128 508.33175843 -147.0492043 518.6174738 -166.60546875 539.09765625 Z M16.28393555 595.02880859 C15.20023682 595.67930176 14.11653809 596.32979492 13 597 C12.95371272 605.17962388 12.91814928 613.35919327 12.89637566 621.53891563 C12.88592679 625.33686312 12.87174764 629.13472118 12.84912109 632.93261719 C12.82743179 636.59601346 12.81543969 640.25932357 12.81024551 643.92277908 C12.80654269 645.32226544 12.79931223 646.72174695 12.78853989 648.12119675 C12.77407775 650.07733331 12.77318353 652.03355609 12.77294922 653.98974609 C12.768508 655.1044931 12.76406677 656.21924011 12.75949097 657.36776733 C12.73139008 660.15794515 12.73139008 660.15794515 15 662 C17.35995161 662.3595674 17.35995161 662.3595674 20.0625 662.3125 C20.96097656 662.32925781 21.85945312 662.34601563 22.78515625 662.36328125 C25.69859682 662.03405893 27.94826069 661.42319692 30.70092773 660.47729492 C31.50723129 660.20213547 32.31353485 659.92697601 33.14427185 659.64347839 C33.75666214 659.43113052 34.36905243 659.21878265 35 659 C35.04628625 650.68999208 35.0818502 642.38003779 35.10362434 634.06993294 C35.11407343 630.21145203 35.128253 626.35305915 35.15087891 622.49462891 C35.1725674 618.77287808 35.18456014 615.05121206 35.18975449 611.32940292 C35.19345745 609.90758809 35.20068819 608.48577803 35.21146011 607.06399918 C35.22592119 605.07672886 35.22681646 603.08937369 35.22705078 601.10205078 C35.23371262 599.40328293 35.23371262 599.40328293 35.24050903 597.67019653 C35.27367062 594.84645576 35.27367062 594.84645576 33 593 C30.11410629 592.60189103 30.11410629 592.60189103 26.8125 592.625 C25.70519531 592.59664062 24.59789062 592.56828125 23.45703125 592.5390625 C20.24297416 592.96760345 18.95326579 593.42653572 16.28393555 595.02880859 Z " fill="#000000" transform="translate(208,2)"/>
<path d="M0 0 C0.515625 0.309375 1.03125 0.61875 1.5625 0.9375 C4.66665423 2.29059287 7.65115007 2.61359424 11 3 C11.33 4.65 11.66 6.3 12 8 C12.79921875 8.04898438 13.5984375 8.09796875 14.421875 8.1484375 C19.86926743 8.51926938 25.19711673 8.97144298 30.5625 10 C36.8880385 11.14094594 43.17644657 11.35012683 49.58422852 11.60546875 C54.29587594 11.810804 58.84599178 12.18329662 63.5 13 C69.00777749 13.96528059 74.42400619 14.27696025 80 14.5 C86.63377014 14.76535081 92.984193 15.38382764 99.53125 16.53125 C104.01669117 17.1373907 108.48018808 17.31919078 113 17.5 C119.64840003 17.7661578 126.02058443 18.3768428 132.58203125 19.53125 C137.73971301 20.23858921 142.91448902 20.41571605 148.11547852 20.5703125 C152.87466772 20.7476423 157.21734576 21.41612119 161.84423828 22.53222656 C165.06666856 23.23145379 168.27561606 23.43353103 171.5625 23.625 C173.38974609 23.73714844 173.38974609 23.73714844 175.25390625 23.8515625 C176.61322266 23.92503906 176.61322266 23.92503906 178 24 C178.6328125 25.86328125 178.6328125 25.86328125 179 28 C177.8547738 29.17890932 176.69618542 30.34788523 175.47265625 31.4453125 C172.60450217 34.47323113 170.88148776 38.30964331 169 42 C168.65361481 42.52716614 168.30722961 43.05433228 167.9503479 43.59747314 C166.5248886 47.20110529 166.69124467 50.8031251 166.68115234 54.62402344 C166.67110672 55.49267532 166.6610611 56.36132721 166.65071106 57.25630188 C166.61985057 60.12398627 166.60283592 62.99157717 166.5859375 65.859375 C166.56722816 67.84906826 166.54765493 69.83875356 166.5272522 71.82843018 C166.47590028 77.0627982 166.43629087 82.29719195 166.39910889 87.53167725 C166.35908847 92.87404767 166.30798717 98.21631076 166.2578125 103.55859375 C166.16101695 114.03898714 166.07662371 124.51944108 166 135 C162.31860373 135.81164041 159.87131091 135.97198645 156.1875 135.125 C151.41784147 134.15686904 146.727473 133.73389496 141.875 133.5 C136.90530333 133.25280861 132.28684218 132.73027078 127.47265625 131.46875 C123.98262725 130.80713313 120.47802856 130.67384728 116.9375 130.5 C112.14436131 130.26378783 107.71883944 129.85947148 103.1171875 128.46875 C100.09250229 127.799078 97.09023001 127.68293116 94 127.5 C86.6366975 127.06365615 86.6366975 127.06365615 83.0625 126 C78.04565462 124.53270759 72.85781651 124.56815175 67.66796875 124.28125 C63.85293213 123.98872323 60.31747665 123.3133169 56.59765625 122.46875 C52.26309212 121.68657301 47.88662605 121.54672638 43.4921875 121.34375 C40.22734265 121.02237825 37.26875456 120.30529241 34.10644531 119.46337891 C30.41688218 118.65174344 26.70284453 118.56844073 22.9375 118.4375 C17.54894063 118.22377655 12.34364543 117.77802512 7 117 C3.51137726 116.72506179 0.01653741 116.56471417 -3.47851562 116.39453125 C-8.79184854 116.10407573 -8.79184854 116.10407573 -11 115 C-11.02327434 103.37686782 -11.04099149 91.75374127 -11.05181217 80.13059044 C-11.05700819 74.73223415 -11.06404555 69.33389392 -11.07543945 63.93554688 C-11.0863858 58.71597767 -11.09230149 53.49642383 -11.09487724 48.27684402 C-11.09671048 46.29557682 -11.10028985 44.31431036 -11.10573006 42.33304977 C-11.18884332 10.78013585 -11.18884332 10.78013585 -7.1875 5.8125 C-5.56640625 4.265625 -5.56640625 4.265625 -4 3 C-2.824375 2.0409375 -2.824375 2.0409375 -1.625 1.0625 C-1.08875 0.711875 -0.5525 0.36125 0 0 Z " fill="#000000" transform="translate(17,58)"/>
<path d="M0 0 C3.0429941 2.82225877 5.91381056 5.60900257 8.25 9.0625 C8.25 9.7225 8.25 10.3825 8.25 11.0625 C8.91 11.0625 9.57 11.0625 10.25 11.0625 C17.31561964 19.0113221 18.67019409 27.89577449 18.4375 38.20703125 C17.45332502 53.19519599 12.17933531 67.14427364 2.08984375 78.46484375 C-1.70717728 81.7620446 -6.25687761 83.87023635 -10.75 86.0625 C-11.35191162 86.41086914 -11.95382324 86.75923828 -12.57397461 87.11816406 C-21.75913826 91.1042757 -37.98013141 89.35880817 -47.25 86 C-59.72266134 80.02247288 -68.74412166 69.9194778 -74.62109375 57.4609375 C-79.19227114 43.69995366 -77.01035252 27.69443373 -71.16015625 14.71484375 C-69.14886235 10.93182836 -66.84203098 8.00936521 -63.75 5.0625 C-63.11835937 4.45664062 -62.48671875 3.85078125 -61.8359375 3.2265625 C-44.7523538 -12.40590598 -18.14822613 -15.77202631 0 0 Z M-56.75 4.0625 C-58.47388091 6.25891148 -59.96176877 8.56929076 -61.4375 10.9375 C-62.02241211 11.83662109 -62.02241211 11.83662109 -62.61914062 12.75390625 C-64.94368491 16.41754699 -66.50998109 19.87209128 -67.75 24.0625 C-68.08 24.7225 -68.41 25.3825 -68.75 26.0625 C-70.43428692 39.48065249 -70.68651204 51.23079232 -63.75 63.0625 C-63.40195312 63.82175781 -63.05390625 64.58101562 -62.6953125 65.36328125 C-58.92548579 73.32944791 -52.07935549 79.39996786 -43.953125 82.796875 C-39.55717287 84.32269111 -35.433892 84.52032418 -30.8125 84.4375 C-30.02633301 84.43169922 -29.24016602 84.42589844 -28.43017578 84.41992188 C-22.70373139 84.29174447 -18.02341106 83.40623825 -12.75 81.0625 C-13.08 79.7425 -13.41 78.4225 -13.75 77.0625 C-14.45125 76.96453125 -15.1525 76.8665625 -15.875 76.765625 C-27.06007536 75.00275986 -35.46605042 70.82064543 -42.5 61.75 C-46.92577364 54.990246 -48.3363049 47.73038768 -48.3125 39.75 C-48.31080811 38.9254834 -48.30911621 38.1009668 -48.30737305 37.25146484 C-48.04695456 28.34149464 -44.92409836 21.87141803 -39.25 15.0625 C-29.93085312 7.60718249 -23.52947817 5.54025713 -11.75 6.0625 C-11.42 5.4025 -11.09 4.7425 -10.75 4.0625 C-12.26470093 -0.4816028 -15.45432319 -1.48175194 -19.56640625 -3.63671875 C-32.61240055 -8.96716795 -46.56884534 -5.19164215 -56.75 4.0625 Z " fill="#000000" transform="translate(119.75,544.9375)"/>
<path d="M0 0 C8.12385731 6.18468798 12.57027136 14.0395479 16.3125 23.375 C16.8075 24.365 16.8075 24.365 17.3125 25.375 C17.61201577 29.55624013 17.59074366 33.74680788 17.625 37.9375 C17.66850586 39.6709668 17.66850586 39.6709668 17.71289062 41.43945312 C17.76671582 48.73069626 16.96885607 54.04611394 13.3125 60.375 C12.97774658 60.97836182 12.64299316 61.58172363 12.2980957 62.20336914 C11.34348122 63.86785547 10.32874961 65.49741274 9.3125 67.125 C8.6525 68.19234375 7.9925 69.2596875 7.3125 70.359375 C4.08738495 75.22224379 1.11503657 78.79712854 -3.75 82.0625 C-4.60722656 82.64386719 -5.46445313 83.22523438 -6.34765625 83.82421875 C-7.11980469 84.33597656 -7.89195313 84.84773438 -8.6875 85.375 C-9.6775 86.035 -10.6675 86.695 -11.6875 87.375 C-21.1335112 90.90712769 -31.15712307 92.14282344 -40.6875 88.375 C-41.8425 88.230625 -42.9975 88.08625 -44.1875 87.9375 C-50.6592425 86.89739853 -54.29848753 84.08515972 -58.6875 79.375 C-59.2340625 78.87097656 -59.780625 78.36695313 -60.34375 77.84765625 C-69.03781893 69.74463148 -74.31448947 59.8067203 -75.00390625 47.90625 C-75.32459203 38.67527757 -74.87244654 30.79088149 -70.6875 22.375 C-70.006875 20.828125 -70.006875 20.828125 -69.3125 19.25 C-62.44463698 7.09916542 -54.53640523 -1.33562401 -40.87890625 -5.4765625 C-25.5479829 -9.49225111 -13.17591039 -8.83161429 0 0 Z M-59.6875 11.375 C-65.93726469 19.87018912 -68.2455943 28.26308177 -68.125 38.75 C-68.11742676 39.67466064 -68.10985352 40.59932129 -68.10205078 41.55200195 C-67.93512213 48.46979337 -67.00612475 54.21915594 -63.6875 60.375 C-63.22859375 61.24253906 -62.7696875 62.11007812 -62.296875 63.00390625 C-57.69514253 71.129597 -53.1028421 77.16732895 -44.6875 81.375 C-44.04167969 81.725625 -43.39585938 82.07625 -42.73046875 82.4375 C-36.19337983 85.43731136 -27.55864026 84.80149663 -20.6875 83.375 C-17.49874723 81.73292038 -17.49874723 81.73292038 -15.6875 79.375 C-15.6875 78.385 -15.6875 77.395 -15.6875 76.375 C-16.3165625 76.30023438 -16.945625 76.22546875 -17.59375 76.1484375 C-28.12397211 74.53084314 -34.36439253 68.68248694 -40.6875 60.375 C-46.64748083 50.92123731 -46.85207887 38.61234 -44.59765625 27.94140625 C-43.1694616 23.91426512 -40.74979464 20.76146982 -38.1484375 17.40625 C-36.49286888 15.52140024 -36.49286888 15.52140024 -36.6875 13.375 C-36.130625 13.106875 -35.57375 12.83875 -35 12.5625 C-32.65160665 11.40131241 -32.65160665 11.40131241 -30.40234375 9.921875 C-26.7714729 7.85306226 -22.99435196 6.76388075 -19.015625 5.53515625 C-16.50391507 4.60923357 -16.50391507 4.60923357 -15.859375 2.24609375 C-15.80265625 1.62863281 -15.7459375 1.01117188 -15.6875 0.375 C-30.85601055 -8.78334599 -48.77681426 -1.35413336 -59.6875 11.375 Z " fill="#000000" transform="translate(118.6875,396.625)"/>
<path d="M0 0 C0.55558594 0.47308594 1.11117187 0.94617188 1.68359375 1.43359375 C1.68359375 2.09359375 1.68359375 2.75359375 1.68359375 3.43359375 C2.30234375 3.68109375 2.92109375 3.92859375 3.55859375 4.18359375 C6.03428062 5.63988014 6.63484377 6.81171881 7.68359375 9.43359375 C8.34359375 9.43359375 9.00359375 9.43359375 9.68359375 9.43359375 C14.80391036 18.08936707 16.28391768 25.67128023 16.30859375 35.68359375 C16.3240625 37.19083008 16.3240625 37.19083008 16.33984375 38.72851562 C16.21081469 45.7375586 14.69819129 51.13859972 11.68359375 57.43359375 C11.37389648 58.14781494 11.06419922 58.86203613 10.74511719 59.59790039 C8.46473542 64.61366124 5.49371206 68.2953325 1.55859375 72.12109375 C0.98165771 72.68344727 0.40472168 73.24580078 -0.18969727 73.82519531 C-9.97593284 83.07625671 -18.74190914 84.43359375 -32.01171875 84.43359375 C-43.83886822 83.82512304 -54.2144824 77.83136845 -62.25 69.40625 C-72.03067239 57.77461165 -74.31448539 44.7486134 -73.57714844 30.06201172 C-72.42399442 18.43761456 -66.73735247 9.33397239 -58.31640625 1.43359375 C-57.60742188 0.6859375 -56.8984375 -0.06171875 -56.16796875 -0.83203125 C-54.31640625 -2.56640625 -54.31640625 -2.56640625 -52.31640625 -2.56640625 C-52.31640625 -3.22640625 -52.31640625 -3.88640625 -52.31640625 -4.56640625 C-35.44042929 -14.08618812 -15.38171846 -10.4014656 0 0 Z M-53.31640625 0.93359375 C-57.75535505 5.56775444 -60.66800691 10.61701577 -63.31640625 16.43359375 C-63.65800781 17.16707031 -63.99960937 17.90054687 -64.3515625 18.65625 C-67.9982829 28.27341496 -68.30818413 42.55166304 -64.62890625 52.18359375 C-63.90560277 53.62510703 -63.13598894 55.04456075 -62.31640625 56.43359375 C-61.919375 57.16835938 -61.52234375 57.903125 -61.11328125 58.66015625 C-58.72176446 62.82260636 -56.38760037 65.77846715 -52.31640625 68.43359375 C-51.22779297 69.15869141 -51.22779297 69.15869141 -50.1171875 69.8984375 C-44.54922296 73.30246963 -39.23258003 75.20214965 -32.87890625 76.43359375 C-32.19272217 76.57031494 -31.50653809 76.70703613 -30.79956055 76.84790039 C-27.00809085 77.49095834 -24.54009893 77.67616257 -21.31640625 75.43359375 C-22.70702735 71.26173044 -25.63219658 70.36565275 -29.31640625 68.43359375 C-33.35037789 66.27588799 -35.50383449 64.02204737 -38.31640625 60.43359375 C-38.97640625 60.43359375 -39.63640625 60.43359375 -40.31640625 60.43359375 C-46.77929295 48.50211062 -46.19894262 38.7091111 -42.66040039 25.94165039 C-40.63752721 19.43240502 -37.60630247 14.81905444 -32.31640625 10.43359375 C-31.69636719 9.90765625 -31.07632813 9.38171875 -30.4375 8.83984375 C-27.86375538 7.13349373 -25.38490955 6.29608779 -22.44140625 5.37109375 C-21.43335938 5.05011719 -20.4253125 4.72914063 -19.38671875 4.3984375 C-18.37351563 4.08003906 -17.3603125 3.76164062 -16.31640625 3.43359375 C-14.31525385 2.77039428 -12.31490982 2.10473301 -10.31640625 1.43359375 C-13.10366497 -3.05025724 -15.78929394 -4.58783186 -20.6875 -6 C-32.94486915 -8.64088934 -43.77028992 -7.92549148 -53.31640625 0.93359375 Z " fill="#000000" transform="translate(117.31640625,253.56640625)"/>
<path d="M0 0 C1.010625 0.28875 2.02125 0.5775 3.0625 0.875 C3.70316406 1.05417969 4.34382813 1.23335937 5.00390625 1.41796875 C6.85160489 1.95673019 8.67740322 2.56911895 10.5 3.1875 C14.43398632 4.10074682 17.03403127 3.61540894 21 3 C23.0683474 3.23808315 25.13645663 3.47847014 27.203125 3.73071289 C32.38252818 4.22939321 37.58390084 4.26636481 42.78347778 4.38842773 C53.20228456 4.64040844 63.53818474 5.06711568 73.89770508 6.27148438 C80.09754164 6.97460561 86.26572324 7.23329541 92.5 7.4375 C109.53355177 8.09252338 121.03482077 12.53026502 133 25 C134.8203125 27.43359375 134.8203125 27.43359375 136 30 C135.57373047 32.66040039 135.57373047 32.66040039 135 35 C130.01954576 35.04974332 125.03923879 35.08588098 120.05859375 35.10986328 C118.36716184 35.11986984 116.67574701 35.13347931 114.984375 35.15087891 C112.54162358 35.17536403 110.09910251 35.18653672 107.65625 35.1953125 C106.53700134 35.21079636 106.53700134 35.21079636 105.3951416 35.22659302 C100.26896572 35.22766832 95.941624 34.36727066 91 33 C87.80601183 32.39544383 84.59426951 31.94954177 81.375 31.5 C80.4785376 31.37254395 79.5820752 31.24508789 78.65844727 31.11376953 C70.83001954 30.03833546 62.98424788 29.28271241 55.10888672 28.64648438 C54.23635254 28.57494141 53.36381836 28.50339844 52.46484375 28.4296875 C51.697771 28.37022949 50.93069824 28.31077148 50.14038086 28.24951172 C48 28 48 28 45.96508789 27.48852539 C42.54604672 26.63854386 39.00794044 26.70476284 35.5 26.5625 C30.29739103 26.31854695 25.24912261 25.99105523 20.125 25 C14.72862062 23.97641897 9.4125961 23.71683549 3.9375 23.5 C-2.22981417 23.25539114 -8.04436602 22.77173728 -14.08984375 21.46875 C-18.84593916 20.70266752 -23.64656302 20.57870401 -28.45751953 20.4296875 C-32.80560916 20.26064315 -36.58439037 19.62275148 -40.8059082 18.46777344 C-45.30431946 17.50872637 -49.91625984 17.51936977 -54.5 17.375 C-56.01980469 17.31699219 -56.01980469 17.31699219 -57.5703125 17.2578125 C-60.04670284 17.16436381 -62.52310151 17.07860127 -65 17 C-58.90154447 12.93436298 -51.97351159 12.1800346 -44.875 11 C-43.32304932 10.7361853 -43.32304932 10.7361853 -41.73974609 10.46704102 C-38.82730262 9.97306821 -35.91392959 9.48511889 -33 9 C-31.22882813 8.70416016 -31.22882813 8.70416016 -29.421875 8.40234375 C-28.49890625 8.24894531 -27.5759375 8.09554687 -26.625 7.9375 C-25.75101563 7.78925781 -24.87703125 7.64101563 -23.9765625 7.48828125 C-21.53605182 7.08793501 -19.09476058 6.71744075 -16.6484375 6.35546875 C-15.09889427 6.1123872 -13.54941486 5.86889843 -12 5.625 C-11.26861816 5.5230835 -10.53723633 5.42116699 -9.78369141 5.31616211 C-5.28892536 4.58797441 -2.84437427 3.59991119 0 0 Z " fill="#000000" transform="translate(103,36)"/>
</svg>
