<?xml version="1.0" encoding="UTF-8"?>
<svg version="1.1" xmlns="http://www.w3.org/2000/svg" width="270" height="632">
<path d="M0 0 C1.04460388 -0.00095673 2.08920776 -0.00191345 3.16546631 -0.00289917 C5.36063701 -0.00357643 7.55580977 -0.001754 9.75097656 0.00244141 C13.11267564 0.00781778 16.47424242 0.00246989 19.8359375 -0.00390625 C21.97395863 -0.00324581 24.11197967 -0.00196536 26.25 0 C27.25419983 -0.00202423 28.25839966 -0.00404846 29.29302979 -0.00613403 C30.69533844 -0.00140579 30.69533844 -0.00140579 32.12597656 0.00341797 C32.94567932 0.00421356 33.76538208 0.00500916 34.60992432 0.00582886 C36.82406487 0.13081921 38.72413698 0.55989754 40.859375 1.1328125 C42.78946303 1.25626451 44.72275257 1.33343201 46.65625 1.37890625 C48.34234375 1.42821289 48.34234375 1.42821289 50.0625 1.47851562 C52.41137037 1.53930687 54.76033284 1.5966458 57.109375 1.65039062 C63.3835696 1.84019217 68.8209277 2.47888762 74.859375 4.1328125 C77.33374196 4.35986599 79.81433535 4.52773146 82.296875 4.6328125 C87.28270816 4.90870841 91.83604408 5.44132513 96.66015625 6.671875 C99.19716273 7.20360993 101.64667446 7.35790433 104.234375 7.5078125 C109.78275469 7.90666906 115.11206499 8.87004799 120.546875 10.0078125 C121.33046387 10.16942871 122.11405273 10.33104492 122.92138672 10.49755859 C130.8493546 12.21103873 138.37125212 14.10451727 144.859375 19.1328125 C146.17529323 21.76464897 145.98598654 23.71313306 145.98800945 26.66202354 C145.9912339 27.84440995 145.99445835 29.02679635 145.9977805 30.24501264 C145.9962319 31.55548995 145.9946833 32.86596726 145.99308777 34.21615601 C145.99495449 35.6133393 145.99725463 37.01052206 145.99995309 38.407704 C146.00609475 42.2606023 146.00593473 46.11347898 146.00475872 49.96638107 C146.0045553 54.11643054 146.01006777 58.26647295 146.01481628 62.41651917 C146.02313641 70.55237746 146.02587174 78.68822851 146.02642866 86.8240907 C146.02690319 93.43489926 146.02895477 100.04570542 146.03212929 106.65651321 C146.04093967 125.38385761 146.04554808 144.11119626 146.04479881 162.83854274 C146.04473888 164.35415745 146.04473888 164.35415745 146.04467773 165.90039062 C146.04463685 166.91202879 146.04459597 167.92366695 146.04455385 168.96596082 C146.0441473 185.36548562 146.05371818 201.76498748 146.0678161 218.16450565 C146.08216499 234.98821454 146.0890871 251.81191222 146.08822232 268.63562739 C146.08788983 278.08696309 146.09065964 287.53827474 146.10140038 296.98960495 C146.11048585 305.03621152 146.11269678 313.08278314 146.10589095 321.12939261 C146.1026158 325.23716704 146.10260474 329.34487431 146.1112442 333.45264244 C146.11906645 337.21040537 146.11772191 340.96804743 146.10896007 344.72580726 C146.10668186 346.73491691 146.11428717 348.74403019 146.12219971 350.75312555 C146.11760092 351.94072744 146.11300212 353.12832934 146.10826397 354.35191917 C146.10859002 355.89271694 146.10859002 355.89271694 146.10892266 357.46464193 C145.85315607 360.1993055 145.21936963 361.78044956 143.859375 364.1328125 C143.49972128 365.45420692 143.18898138 366.78964899 142.921875 368.1328125 C140.77124082 378.38192849 138.00003097 388.48058254 135.1796875 398.5625 C133.72376041 403.81365276 132.3716353 409.08344249 131.06982422 414.37451172 C129.4908122 420.79170222 127.92045 427.16195429 125.859375 433.4453125 C123.64471452 440.36612649 122.21796207 447.43305617 120.72143555 454.53540039 C119.26478209 461.40875514 117.56235376 468.15215556 115.6953125 474.92578125 C114.71066574 478.70332792 114.00056909 482.48035835 113.35546875 486.328125 C112.7772462 489.59713122 112.07237822 492.82809885 111.359375 496.0703125 C110.1656224 501.52918118 109.19191229 506.98272308 108.38671875 512.51171875 C107.859375 515.1328125 107.859375 515.1328125 106.83203125 517.69140625 C105.86231093 520.1254432 105.54232248 522.03495826 105.359375 524.6328125 C105.0326751 528.17984 104.18329482 530.82301294 102.859375 534.1328125 C102.66083974 535.60803979 102.49747479 537.08820581 102.359375 538.5703125 C102.00395029 542.36150938 101.11114013 545.5247836 99.859375 549.1328125 C99.33221895 551.53137255 98.87520012 553.93945803 98.4140625 556.3515625 C97.85562812 559.15159966 97.2111982 561.91859083 96.546875 564.6953125 C95.25925005 570.17747327 94.1476809 575.68238673 93.06713867 581.20898438 C91.02762171 591.6357544 88.91779267 601.95150104 85.859375 612.1328125 C85.51132812 613.33744141 85.51132812 613.33744141 85.15625 614.56640625 C83.15247642 620.729175 79.49995497 624.99180171 74.546875 629.0078125 C67.63038898 631.90308572 59.34284425 631.30640231 51.95874023 631.38574219 C50.90713715 631.40046066 49.85553406 631.41517914 48.77206421 631.43034363 C45.32074232 631.47694802 41.8693935 631.51650275 38.41796875 631.5546875 C37.23365831 631.56854744 36.04934788 631.58240738 34.82914925 631.59668732 C28.56949555 631.66970147 22.30981066 631.73725661 16.05004883 631.80029297 C9.59501919 631.86635381 3.14037223 631.95098682 -3.31437778 632.0398674 C-8.29090027 632.10503434 -13.26749752 632.15647629 -18.24421501 632.20420074 C-20.62404277 632.22939767 -23.00382199 632.2597354 -25.38351631 632.29537201 C-28.7121736 632.34392923 -32.04047486 632.3730163 -35.36938477 632.39746094 C-36.34571365 632.41602646 -37.32204254 632.43459198 -38.32795715 632.45372009 C-44.96727762 632.47436066 -50.54434396 631.65515499 -56.12890625 627.73828125 C-65.5688342 617.63003982 -67.41496595 602.92165882 -69.578125 589.7109375 C-70.16414614 587.02500728 -71.10865814 584.67527925 -72.140625 582.1328125 C-72.47989447 579.80033489 -72.81302566 577.46695779 -73.140625 575.1328125 C-73.59308594 573.81410156 -73.59308594 573.81410156 -74.0546875 572.46875 C-75.37163003 568.42317834 -76.18756796 564.36339616 -77.015625 560.1953125 C-78.50872803 552.86424736 -80.2851735 545.68979935 -82.2734375 538.4765625 C-83.25933442 534.67508611 -83.93304691 530.87828101 -84.578125 527.0078125 C-85.26421953 523.50110712 -86.19062229 520.07485131 -87.140625 516.6328125 C-88.33006997 512.32322927 -89.40500373 508.04654015 -90.140625 503.6328125 C-90.99204194 498.53191281 -92.31087408 493.59424333 -93.67749023 488.61376953 C-94.85062994 484.30878048 -95.82352797 480.01472549 -96.65234375 475.6328125 C-98.3437304 466.97291287 -100.56239213 458.42426044 -102.7277832 449.87353516 C-103.83831984 445.44958534 -104.79594337 441.02230194 -105.6484375 436.54296875 C-106.42504885 432.74003857 -107.40752889 428.99166334 -108.36328125 425.23046875 C-110.37881324 417.19872571 -112.1475191 409.106107 -113.98193359 401.03149414 C-114.41944982 399.10613086 -114.85727306 397.18083732 -115.29541016 395.25561523 C-116.23494369 391.12631178 -117.17276173 386.99676432 -118.09375 382.86328125 C-118.35671875 381.69410156 -118.6196875 380.52492188 -118.890625 379.3203125 C-119.11234375 378.32386719 -119.3340625 377.32742188 -119.5625 376.30078125 C-119.93693074 374.16949467 -119.93693074 374.16949467 -121.140625 373.1328125 C-121.51319552 370.99344273 -121.83912582 368.84584965 -122.140625 366.6953125 C-122.66179891 362.26732175 -122.66179891 362.26732175 -124.140625 358.1328125 C-124.24113334 356.34958428 -124.27708555 354.56258294 -124.28322601 352.77653503 C-124.28953395 351.63268278 -124.29584189 350.48883053 -124.30234098 349.31031609 C-124.30420298 348.04284098 -124.30606498 346.77536587 -124.3079834 345.46948242 C-124.31342781 344.11782222 -124.31929104 342.76616364 -124.32553911 341.41450691 C-124.34142168 337.68721958 -124.35091581 333.95993886 -124.35930395 330.23262811 C-124.36729834 327.0386765 -124.37899099 323.84474279 -124.39071876 320.65080303 C-124.43266545 309.20732941 -124.45983906 297.76383477 -124.484375 286.3203125 C-124.4863499 285.4172553 -124.4883248 284.51419809 -124.49035954 283.58377552 C-124.52952412 265.65514632 -124.56323438 247.72651021 -124.58544159 229.79785156 C-124.59041099 225.85432932 -124.5954553 221.91080719 -124.60058594 217.96728516 C-124.60185661 216.987127 -124.60312728 216.00696885 -124.60443646 214.99710894 C-124.62578857 199.12533218 -124.67477389 183.25376271 -124.73483008 167.38209021 C-124.79597089 151.08946195 -124.83063252 134.79694056 -124.8399148 118.50419903 C-124.84582461 109.35545811 -124.86356646 100.20706805 -124.91130066 91.05844116 C-124.9519252 83.26517132 -124.96877043 75.47230958 -124.95464784 67.67893857 C-124.94818552 63.70377826 -124.95298717 59.72948687 -124.98852158 55.75446129 C-125.02083251 52.11067202 -125.02044174 48.46836124 -124.99470454 44.8245331 C-124.98935532 42.89136392 -125.01837213 40.95819238 -125.04885626 39.02525616 C-124.94345207 30.59008798 -122.94407897 25.32725492 -117.140625 19.1328125 C-108.71590612 12.01883955 -97.69727735 10.89770008 -87.109375 9.5625 C-84.09330574 9.21541343 -84.09330574 9.21541343 -81.140625 8.1328125 C-77.96040407 7.67440228 -74.7789873 7.27158429 -71.58984375 6.8828125 C-68.63429791 6.50972585 -65.97609882 6.07797044 -63.140625 5.1328125 C-61.62386531 4.93243324 -60.10191991 4.76978283 -58.578125 4.6328125 C-57.25941406 4.5090625 -57.25941406 4.5090625 -55.9140625 4.3828125 C-54.06510417 4.21614583 -52.21614583 4.04947917 -50.3671875 3.8828125 C-49.04847656 3.7590625 -49.04847656 3.7590625 -47.703125 3.6328125 C-46.49849609 3.52453125 -46.49849609 3.52453125 -45.26953125 3.4140625 C-42.95765304 3.17696226 -42.95765304 3.17696226 -40.140625 2.1328125 C-38.60859315 1.99726847 -37.07210629 1.90881933 -35.53515625 1.8515625 C-34.63345703 1.81417969 -33.73175781 1.77679688 -32.80273438 1.73828125 C-31.86236328 1.70347656 -30.92199219 1.66867188 -29.953125 1.6328125 C-28.10534933 1.56298753 -26.25768612 1.49011412 -24.41015625 1.4140625 C-23.59135986 1.38376953 -22.77256348 1.35347656 -21.92895508 1.32226562 C-19.78081107 1.17630995 -17.63981762 0.92243119 -15.50756836 0.62353516 C-10.34257414 -0.04394125 -5.20089602 -0.010569 0 0 Z M6.859375 12.1328125 C6.59125 12.9371875 6.323125 13.7415625 6.046875 14.5703125 C5.655 15.4159375 5.263125 16.2615625 4.859375 17.1328125 C3.869375 17.4628125 2.879375 17.7928125 1.859375 18.1328125 C0.11083578 19.85798774 0.11083578 19.85798774 -1.578125 21.9453125 C-3.5139848 24.24619671 -5.36427186 26.33925576 -7.578125 28.3828125 C-9.58463551 30.23909752 -9.58463551 30.23909752 -9.140625 34.1328125 C-6.73917925 36.28731216 -6.73917925 36.28731216 -4.140625 38.1328125 C-3.810625 38.7928125 -3.480625 39.4528125 -3.140625 40.1328125 C1.11352123 40.15746872 5.36762998 40.17565149 9.62182617 40.18774414 C11.07007573 40.19278351 12.51832017 40.19961503 13.96655273 40.20825195 C16.04412088 40.22033497 18.12162197 40.22604461 20.19921875 40.23046875 C21.45081787 40.23570557 22.70241699 40.24094238 23.99194336 40.24633789 C26.75669794 40.46168285 26.75669794 40.46168285 27.859375 39.1328125 C28.6359513 31.89987371 28.6359513 31.89987371 25.984375 25.4453125 C23.99205153 23.95764821 23.99205153 23.95764821 21.859375 24.1328125 C21.59640625 23.56046875 21.3334375 22.988125 21.0625 22.3984375 C18.96573578 18.44998541 16.23347532 15.06681277 12.859375 12.1328125 C9.55949847 11.45930481 9.55949847 11.45930481 6.859375 12.1328125 Z M-37.140625 13.1328125 C-44.94016056 24.37270733 -44.94016056 24.37270733 -49.140625 37.1328125 C-48.53614521 40.04700765 -48.53614521 40.04700765 -46.140625 42.1328125 C-39.10844403 44.15969534 -31.66811138 42.84199553 -24.578125 41.7578125 C-23.58232422 41.61859375 -22.58652344 41.479375 -21.56054688 41.3359375 C-16.99843089 41.0468501 -16.99843089 41.0468501 -13.140625 39.1328125 C-12.58657283 35.11447622 -12.86294782 33.52675077 -15.23046875 30.16796875 C-16.16234467 29.16075605 -17.1126304 28.17034599 -18.078125 27.1953125 C-18.57449463 26.67606201 -19.07086426 26.15681152 -19.58227539 25.62182617 C-27.229712 17.50615202 -27.229712 17.50615202 -37.140625 13.1328125 Z M48.734375 18.0078125 C47.82429687 18.54148437 46.91421875 19.07515625 45.9765625 19.625 C45.27789062 20.12257813 44.57921875 20.62015625 43.859375 21.1328125 C43.859375 21.7928125 43.859375 22.4528125 43.859375 23.1328125 C43.3025 23.3803125 42.745625 23.6278125 42.171875 23.8828125 C39.25396958 25.46005867 37.1651714 26.70237846 34.859375 29.1328125 C34.0106609 32.1359547 33.63560819 35.01728996 33.859375 38.1328125 C34.519375 39.1228125 35.179375 40.1128125 35.859375 41.1328125 C38.33960686 41.34127736 40.55077976 41.36524933 43.01953125 41.2421875 C44.07713905 41.20608368 44.07713905 41.20608368 45.15611267 41.16925049 C46.64674825 41.11557478 48.13713512 41.0545684 49.62719727 40.98681641 C51.91585223 40.88308548 54.20448581 40.80088879 56.49414062 40.72265625 C57.94015219 40.66792093 59.38611846 40.61197267 60.83203125 40.5546875 C61.52055679 40.52856384 62.20908234 40.50244019 62.91847229 40.4755249 C66.17241782 40.58219323 66.17241782 40.58219323 68.859375 39.1328125 C69.37894576 34.80305616 69.17600378 32.11272024 66.609375 28.6328125 C66.15175781 28.06046875 65.69414062 27.488125 65.22265625 26.8984375 C63.85605089 25.12850735 62.83832161 23.35782678 61.796875 21.3828125 C60.00751824 18.38131083 58.85894396 16.83256825 55.859375 15.1328125 C52.93705696 15.1328125 51.22714587 16.52351303 48.734375 18.0078125 Z M-78.6171875 19.63671875 C-79.81860543 21.79028082 -81.00824334 23.94198475 -82.140625 26.1328125 C-82.73875 27.2053125 -83.336875 28.2778125 -83.953125 29.3828125 C-85.61028354 34.61594474 -85.58777351 39.68104029 -85.140625 45.1328125 C-82.95596433 47.31747317 -77.68225471 46.38070259 -74.65380859 46.38818359 C-67.89728602 46.29957839 -59.13316755 46.12535505 -54.140625 41.1328125 C-53.76939786 38.22084896 -53.89352167 36.59497164 -55.28515625 33.9921875 C-63.4598531 23.48596673 -63.4598531 23.48596673 -74.8125 17.6640625 C-77.20768196 17.91971183 -77.20768196 17.91971183 -78.6171875 19.63671875 Z M84.671875 22.5078125 C84.11306641 22.9203125 83.55425781 23.3328125 82.97851562 23.7578125 C81.56324121 24.82920461 80.20593096 25.97623575 78.859375 27.1328125 C78.859375 27.7928125 78.859375 28.4528125 78.859375 29.1328125 C77.869375 29.4628125 76.879375 29.7928125 75.859375 30.1328125 C74.97526417 32.09435648 74.97526417 32.09435648 74.546875 34.4453125 C74.36511719 35.22519531 74.18335938 36.00507812 73.99609375 36.80859375 C73.64206969 39.52980929 73.64206969 39.52980929 75.859375 43.1328125 C85.429375 43.1328125 94.999375 43.1328125 104.859375 43.1328125 C105.988187 37.4887525 105.62512236 36.8556777 102.859375 32.1328125 C102.51390625 31.54274414 102.1684375 30.95267578 101.8125 30.34472656 C100.69031809 28.46289863 99.53064545 26.60942486 98.359375 24.7578125 C97.77349609 23.79681641 97.77349609 23.79681641 97.17578125 22.81640625 C96.15233222 21.20025274 95.01315938 19.65865053 93.859375 18.1328125 C89.81322119 18.1328125 87.74848587 20.14509132 84.671875 22.5078125 Z M-108.140625 30.1328125 C-110.23135295 32.23597385 -111.06431685 33.62641393 -111.50811768 36.57157898 C-111.50447205 37.4821254 -111.50082642 38.39267181 -111.49707031 39.33081055 C-111.50007141 40.37097824 -111.50307251 41.41114594 -111.50616455 42.48283386 C-111.49381775 43.608694 -111.48147095 44.73455414 -111.46875 45.89453125 C-111.46687683 47.07255814 -111.46500366 48.25058502 -111.46307373 49.46430969 C-111.45634136 51.97192188 -111.44240361 54.47952335 -111.421875 56.98706055 C-111.39133668 60.73301517 -111.38095835 64.47854383 -111.375 68.22460938 C-111.36580209 70.67708821 -111.35541767 73.12956292 -111.34375 75.58203125 C-111.33950012 76.66538254 -111.33525024 77.74873383 -111.33087158 78.86491394 C-111.27413588 85.39835127 -111.07381787 91.9093958 -110.78287125 98.43601418 C-110.09693184 113.94118019 -109.94210225 129.43660461 -109.87023354 144.9541266 C-109.85160078 148.72616865 -109.82734674 152.49817472 -109.80358887 156.27018738 C-109.74428271 165.82853614 -109.69217527 175.38691929 -109.640625 184.9453125 C-109.57263924 197.51435439 -109.50164859 210.08337058 -109.421875 222.65234375 C-109.4171226 223.40872556 -109.41237021 224.16510737 -109.4074738 224.94440985 C-109.28109366 244.86727304 -109.03489006 264.77498314 -108.37255859 284.68823242 C-108.11491433 292.4556662 -107.99242157 300.22140907 -107.89453125 307.9921875 C-107.87784393 309.23933029 -107.86115662 310.48647308 -107.84396362 311.77140808 C-107.778325 316.74615791 -107.71510292 321.72088012 -107.66381836 326.69580078 C-108.08926188 348.67533486 -108.08926188 348.67533486 -104.140625 370.1328125 C-103.96574794 371.90101387 -103.82327066 373.67255107 -103.703125 375.4453125 C-103.34964375 379.67604118 -102.53375201 383.11732878 -101.140625 387.1328125 C-100.16111308 392.19742063 -99.42032735 397.30382132 -98.640625 402.40234375 C-98.475625 403.44777344 -98.310625 404.49320312 -98.140625 405.5703125 C-97.9240625 406.99150391 -97.9240625 406.99150391 -97.703125 408.44140625 C-97.12934879 411.18676605 -96.18637963 413.53688042 -95.140625 416.1328125 C-94.78325087 417.83232501 -94.47200946 419.54207354 -94.203125 421.2578125 C-93.57534997 424.90856574 -92.83818459 428.44423146 -91.828125 432.0078125 C-90.28096824 437.47390946 -88.95057788 442.98117489 -87.640625 448.5078125 C-87.31553955 449.87643433 -87.31553955 449.87643433 -86.98388672 451.27270508 C-86.04176043 455.2565636 -85.10934087 459.2416881 -84.22265625 463.23828125 C-83.84173828 464.94951172 -83.84173828 464.94951172 -83.453125 466.6953125 C-83.24300781 467.66597656 -83.03289062 468.63664062 -82.81640625 469.63671875 C-82.16855298 472.02965655 -81.28230639 473.9442138 -80.140625 476.1328125 C-79.44331694 478.4571727 -78.77150348 480.78954956 -78.140625 483.1328125 C-77.150625 482.8028125 -76.160625 482.4728125 -75.140625 482.1328125 C-74.91729561 474.80016411 -75.17996469 468.20999047 -77.140625 461.1328125 C-79.11169918 453.86447645 -80.12499466 446.5913478 -81.140625 439.1328125 C-81.46676083 436.81928645 -81.79977284 434.50671622 -82.140625 432.1953125 C-82.285 431.19628906 -82.429375 430.19726562 -82.578125 429.16796875 C-83.10105914 426.05127977 -83.10105914 426.05127977 -84.13671875 422.76953125 C-85.23337768 418.79680962 -85.76482048 414.96857292 -86.203125 410.8828125 C-86.78438028 405.4337568 -86.78438028 405.4337568 -88.140625 400.1328125 C-88.45888274 397.92815435 -88.74574746 395.71891441 -89.015625 393.5078125 C-89.76485454 387.60479185 -90.66990051 381.74279754 -91.703125 375.8828125 C-91.82993652 375.15626465 -91.95674805 374.4297168 -92.08740234 373.68115234 C-92.61367738 370.74249373 -93.19502821 367.96960287 -94.140625 365.1328125 C-94.23109664 362.81984927 -94.25817638 360.50427313 -94.25415039 358.18954468 C-94.25429783 357.47714325 -94.25444528 356.76474183 -94.25459719 356.03075248 C-94.25389692 353.63163742 -94.24603911 351.23259796 -94.23828125 348.83349609 C-94.23638227 347.10988565 -94.23494191 345.38627465 -94.23392487 343.66266346 C-94.23079287 339.92702208 -94.22453482 336.19140324 -94.21592712 332.45577049 C-94.20222965 326.46297305 -94.19582302 320.47018121 -94.19055176 314.47737122 C-94.1824547 305.92772989 -94.17162181 297.37809639 -94.15893555 288.82846069 C-94.12678237 266.76716177 -94.11441921 244.70585162 -94.109375 222.64453125 C-94.10908735 221.55950357 -94.10879971 220.47447588 -94.10850334 219.35656857 C-94.09876127 178.93565336 -94.29896352 138.52321599 -94.78515625 98.10498047 C-94.79646072 97.15229656 -94.8077652 96.19961266 -94.81941223 95.21805954 C-94.87280653 90.77801287 -94.93070852 86.33814025 -95.00024414 81.89831543 C-95.11009337 74.54084224 -95.15455762 67.20245825 -94.9609375 59.84619141 C-94.9347937 58.58954178 -94.9086499 57.33289215 -94.88171387 56.03816223 C-94.82775789 53.78547104 -94.74950537 51.53313236 -94.63879395 49.28251648 C-94.49860136 43.07587555 -95.43021146 39.5703791 -99.44958496 34.77629089 C-103.16632733 31.04686085 -103.16632733 31.04686085 -108.140625 30.1328125 Z M123.859375 32.1328125 C121.18515707 34.12098063 121.18515707 34.12098063 118.671875 36.8828125 C117.79144531 37.78515625 116.91101563 38.6875 116.00390625 39.6171875 C112.52509704 43.69797645 112.72835369 47.31683708 112.77758789 52.41699219 C112.78218773 53.52801552 112.78218773 53.52801552 112.78688049 54.66148376 C112.79404234 56.27544984 112.80343586 57.88940718 112.81477547 59.5033493 C112.8322788 62.09128908 112.84250786 64.67916579 112.85069275 67.26715088 C112.87499248 74.62884515 112.90958989 81.99045837 112.95532227 89.35205078 C112.98281832 93.86192493 112.99939652 98.37174752 113.01019096 102.88169098 C113.01623103 104.56981521 113.02600299 106.25793202 113.04026985 107.94600677 C113.11956844 117.44623513 112.85019796 126.84933956 112.14957333 136.32615089 C110.60325057 157.26893216 110.54312835 178.16195192 110.52052116 199.15388441 C110.51218262 204.48002819 110.49125542 209.80612187 110.47131348 215.13223267 C110.41878745 229.73704749 110.38476617 244.34189268 110.35155487 258.94676208 C110.32079172 272.41601023 110.28600216 285.88521352 110.23524427 299.35440314 C110.21200838 305.66674813 110.1981851 311.97902004 110.19174957 318.29140353 C110.18580045 322.20765187 110.17169895 326.12384048 110.15540504 330.04005814 C110.14954699 331.84881055 110.14705309 333.6575776 110.14824486 335.46633911 C110.15222742 343.92183508 110.15041046 351.92266495 107.859375 360.1328125 C107.63636416 362.64928714 107.46644042 365.17124525 107.359375 367.6953125 C107.09947394 372.37353161 106.65291736 376.51710704 105.328125 380.98828125 C104.41790347 385.15254473 104.39275391 389.44573547 104.140625 393.69140625 C103.90370321 396.59040764 103.50147315 399.24224786 102.859375 402.0703125 C101.91399341 406.28282166 101.59929844 410.38525926 101.359375 414.6953125 C101.08672796 419.56887827 100.54534028 423.97974092 99.328125 428.6875 C98.45676821 433.23307791 98.39667943 437.86810187 98.203125 442.484375 C97.84818397 446.25158998 96.90411102 449.50480344 95.859375 453.1328125 C95.63047861 455.43998403 95.46358894 457.75415761 95.359375 460.0703125 C94.93321613 467.44673521 94.93321613 467.44673521 93.796875 471.0703125 C91.99945116 477.12829656 92.71254379 483.8680141 92.859375 490.1328125 C95.5499278 488.91273306 95.5499278 488.91273306 97.859375 487.1328125 C98.22915926 485.49478378 98.55606283 483.84694206 98.859375 482.1953125 C99.7523135 477.34693551 99.7523135 477.34693551 100.859375 475.1328125 C101.13106954 472.89887959 101.30415333 470.66520742 101.48046875 468.421875 C101.859375 466.1328125 101.859375 466.1328125 102.83984375 464.234375 C104.18370291 461.46427452 104.38609852 458.93911632 104.734375 455.8828125 C105.63443121 449.02524134 107.17992584 442.49000589 108.921875 435.8046875 C109.659392 432.91607926 110.30923606 430.06033759 110.859375 427.1328125 C111.68265065 422.77386196 112.75979946 418.49102746 113.859375 414.1953125 C115.21510833 408.87921687 116.38169108 403.58126569 117.296875 398.171875 C118.04427965 394.13381374 118.95340025 390.13782871 119.859375 386.1328125 C121.58603118 378.46929738 123.1140162 370.80609388 124.3515625 363.046875 C124.51914063 362.00273437 124.68671875 360.95859375 124.859375 359.8828125 C125.00375 358.94953125 125.148125 358.01625 125.296875 357.0546875 C125.859375 354.1328125 125.859375 354.1328125 126.87949944 351.24784756 C128.46063852 345.73323901 128.12747085 340.05930983 128.09988403 334.37037659 C128.10244731 332.43805196 128.10244731 332.43805196 128.10506237 330.46669048 C128.10952332 326.9023664 128.1015495 323.33816308 128.09150624 319.77385437 C128.08285595 315.92595248 128.08579302 312.0780572 128.08731079 308.23014832 C128.08835864 301.56714329 128.08209246 294.90417749 128.07083511 288.24118233 C128.05456957 278.60765786 128.04937103 268.97415233 128.04685913 259.34061562 C128.04248369 243.71022063 128.02917866 228.07984654 128.01025391 212.44946289 C127.99189122 197.26749781 127.97773661 182.0855384 127.96923828 166.90356445 C127.96871283 165.96748691 127.96818739 165.03140936 127.96764602 164.06696583 C127.96503591 159.37086193 127.9625085 154.67475799 127.96002221 149.97865403 C127.9392944 111.03002556 127.90407295 72.08142041 127.859375 33.1328125 C125.99158907 32.44713052 125.99158907 32.44713052 123.859375 32.1328125 Z M-34.3046875 44.26953125 C-38.87185321 44.48568837 -38.87185321 44.48568837 -42.96484375 46.30078125 C-44.42570614 48.16530624 -44.42570614 48.16530624 -43.890625 50.9296875 C-43.643125 51.98671875 -43.395625 53.04375 -43.140625 54.1328125 C-42.975625 55.16921875 -42.810625 56.205625 -42.640625 57.2734375 C-42.475625 58.29953125 -42.310625 59.325625 -42.140625 60.3828125 C-41.975625 61.41921875 -41.810625 62.455625 -41.640625 63.5234375 C-41.26851933 66.10277209 -41.26851933 66.10277209 -40.140625 68.1328125 C-39.7329047 71.85418683 -39.37330098 75.57381038 -39.06640625 79.3046875 C-38.57723597 84.34562864 -37.91586118 89.35757632 -34.140625 93.1328125 C-31.04431397 93.38350036 -27.93338814 93.31803758 -24.828125 93.3203125 C-23.52584961 93.33868164 -23.52584961 93.33868164 -22.19726562 93.35742188 C-21.35744141 93.35935547 -20.51761719 93.36128906 -19.65234375 93.36328125 C-18.49931763 93.36944458 -18.49931763 93.36944458 -17.32299805 93.37573242 C-14.84334615 93.09972239 -13.25134368 92.44937074 -11.140625 91.1328125 C-8.57471942 86.00100134 -9.82718588 77.88003083 -9.79052734 72.16674805 C-9.77397168 70.27437031 -9.74668665 68.382055 -9.70849609 66.48999023 C-9.65368028 63.75992436 -9.63184682 61.0313236 -9.6171875 58.30078125 C-9.59451813 57.45791061 -9.57184875 56.61503998 -9.54849243 55.74662781 C-9.56405138 51.41203039 -9.74480591 49.65480076 -12.44604492 46.0925293 C-15.92435352 43.56282167 -18.69740814 43.52585949 -22.828125 43.7578125 C-23.53348389 43.77996826 -24.23884277 43.80212402 -24.96557617 43.82495117 C-28.08045914 43.93781183 -31.19058606 44.13497131 -34.3046875 44.26953125 Z M-6.140625 45.1328125 C-6.37832445 53.08253853 -5.9118235 60.57008355 -4.640625 68.41796875 C-3.98880166 73.26081247 -3.76250338 78.09592236 -3.65844727 82.97973633 C-3.60532893 85.14597707 -3.60532893 85.14597707 -3.140625 88.1328125 C1.21755966 91.03826894 5.16974953 90.50091657 10.296875 90.5078125 C11.72870117 90.54455078 11.72870117 90.54455078 13.18945312 90.58203125 C14.11048828 90.58589844 15.03152344 90.58976562 15.98046875 90.59375 C16.8202124 90.60196777 17.65995605 90.61018555 18.52514648 90.61865234 C21.74952665 89.94753881 22.90405168 88.75169208 24.859375 86.1328125 C25.46445102 83.50564966 25.46445102 83.50564966 25.3984375 80.625 C25.42164063 79.55507812 25.44484375 78.48515625 25.46875 77.3828125 C25.47390625 76.2690625 25.4790625 75.1553125 25.484375 74.0078125 C25.56867793 66.87578478 25.78771341 60.17212465 27.46557617 53.21557617 C28.01077044 50.33209675 27.65007615 47.93620747 26.859375 45.1328125 C24.98034252 43.25378002 21.7713144 44.00227775 19.26953125 44 C18.27994667 43.99856491 18.27994667 43.99856491 17.27037048 43.99710083 C15.87238469 43.99641914 14.47439576 43.99827264 13.07641602 44.00244141 C10.93433518 44.00778144 8.79246483 44.00250051 6.65039062 43.99609375 C5.29427037 43.9967547 3.93815024 43.99803621 2.58203125 44 C1.34203369 44.00112793 0.10203613 44.00225586 -1.17553711 44.00341797 C-4.07051875 43.92784552 -4.07051875 43.92784552 -6.140625 45.1328125 Z M34.03125 46.37109375 C31.33622192 50.42261929 31.63896922 55.13998208 31.5078125 59.85546875 C31.48465973 60.59735947 31.46150696 61.33925018 31.43765259 62.10362244 C31.39015033 63.66773044 31.34490022 65.23190825 31.30175781 66.79614258 C31.2345088 69.19054854 31.1567556 71.58445954 31.078125 73.97851562 C31.03321908 75.49998139 30.98892731 77.02146543 30.9453125 78.54296875 C30.92141449 79.25864517 30.89751648 79.97432159 30.87289429 80.71168518 C30.79409283 83.83022349 30.86346598 86.14508543 31.859375 89.1328125 C34.94989312 90.67807156 38.27246667 90.4693503 41.671875 90.6328125 C49.22013755 91.00168687 49.22013755 91.00168687 52.75390625 91.7265625 C54.89178871 92.36809198 54.89178871 92.36809198 56.734375 91.1328125 C58.51709774 87.96352763 57.62358718 85.60116008 56.859375 82.1328125 C56.51648438 81.29363281 56.17359375 80.45445313 55.8203125 79.58984375 C54.47322147 74.74360163 54.60882938 70.13664395 54.671875 65.1328125 C54.67251953 64.16085938 54.67316406 63.18890625 54.67382812 62.1875 C54.70319561 57.39733631 54.86529517 52.8407746 55.859375 48.1328125 C49.98531025 46.08372015 39.46341617 42.69161367 34.03125 46.37109375 Z M-78.140625 50.1328125 C-84.06839357 59.02446536 -79.70317989 76.21746653 -78.703125 86.5703125 C-78.63582184 87.27337524 -78.56851868 87.97643799 -78.49917603 88.70080566 C-78.16356586 96.13439638 -78.16356586 96.13439638 -76.140625 103.1328125 C-72.78081657 102.72963549 -69.6557511 102.31250765 -66.453125 101.1953125 C-63.30375863 100.18513838 -60.40522106 99.67836001 -57.140625 99.1953125 C-50.76601771 98.17287127 -50.76601771 98.17287127 -45.140625 95.1328125 C-42.70094871 89.98238477 -43.26853192 86.27843903 -44.453125 80.9453125 C-44.59685547 80.23439453 -44.74058594 79.52347656 -44.88867188 78.79101562 C-45.49709704 75.8377921 -46.18651544 72.99514118 -47.140625 70.1328125 C-47.36891617 66.60698216 -47.53330648 63.0872555 -47.65820312 59.55664062 C-47.86648865 55.08046689 -48.48242423 51.3555181 -50.140625 47.1328125 C-64.41218523 46.59308104 -64.41218523 46.59308104 -78.140625 50.1328125 Z M87.859375 73.1328125 C87.88 73.85726562 87.900625 74.58171875 87.921875 75.328125 C87.75641919 83.08386609 87.75641919 83.08386609 85.15234375 86.12890625 C81.90701873 88.54333173 78.48823631 90.36323294 74.859375 92.1328125 C75.21883247 94.73887915 75.62724987 95.90928459 77.546875 97.7578125 C82.17623322 100.51040387 86.47784048 101.62204291 91.859375 101.1328125 C94.0870601 99.35915455 94.0870601 99.35915455 93.93457031 97.05737305 C93.85303711 96.21988525 93.77150391 95.38239746 93.6875 94.51953125 C93.59984375 93.60107422 93.5121875 92.68261719 93.421875 91.73632812 C93.31875 90.77404297 93.215625 89.81175781 93.109375 88.8203125 C93.02171875 87.86962891 92.9340625 86.91894531 92.84375 85.93945312 C92.38445804 81.37523926 91.95134659 77.29016281 89.859375 73.1328125 C89.199375 73.1328125 88.539375 73.1328125 87.859375 73.1328125 Z M-0.140625 112.1328125 C-0.24098849 114.45007304 -0.27144033 116.77041166 -0.2734375 119.08984375 C-0.27439423 119.78921555 -0.27535095 120.48858734 -0.27633667 121.20915222 C-0.27701859 122.69290252 -0.27516347 124.17665579 -0.27099609 125.66040039 C-0.2656719 127.92536193 -0.27092815 130.19012299 -0.27734375 132.45507812 C-0.2766825 133.89583377 -0.27540037 135.33658929 -0.2734375 136.77734375 C-0.27230957 138.09065674 -0.27118164 139.40396973 -0.27001953 140.75708008 C-0.16578014 143.47654802 0.11264091 145.55645407 0.859375 148.1328125 C1.12353602 151.72624103 1.3029893 155.31928973 1.48046875 158.91796875 C1.63044444 162.28070243 1.63044444 162.28070243 3.859375 165.1328125 C6.65019883 165.57453238 6.65019883 165.57453238 9.796875 165.4453125 C10.85777344 165.44144531 11.91867188 165.43757813 13.01171875 165.43359375 C16.05988031 165.33442181 16.05988031 165.33442181 18.859375 163.1328125 C20.52228605 156.89689606 20.22731244 150.07839293 20.46484375 143.65625 C20.50222656 142.74875 20.53960937 141.84125 20.578125 140.90625 C20.60841797 140.08560059 20.63871094 139.26495117 20.66992188 138.41943359 C20.859375 136.1328125 20.859375 136.1328125 21.36425781 134.15527344 C22.40919198 129.88691314 22.08698456 125.37954615 22.109375 121.0078125 C22.13 119.99332031 22.150625 118.97882813 22.171875 117.93359375 C22.17703125 116.96550781 22.1821875 115.99742188 22.1875 115 C22.1968457 114.11425293 22.20619141 113.22850586 22.21582031 112.31591797 C22.09819336 111.59549316 21.98056641 110.87506836 21.859375 110.1328125 C18.32512788 107.77664775 16.67293398 107.8346897 12.484375 107.8203125 C11.36289063 107.80355469 10.24140625 107.78679687 9.0859375 107.76953125 C5.27214096 108.19892965 2.59390407 109.39828343 -0.140625 112.1328125 Z M28.859375 110.1328125 C28.63931303 112.77718568 28.47946114 115.40129549 28.359375 118.05078125 C28.31876953 118.85961258 28.27816406 119.66844391 28.23632812 120.50178528 C28.10623792 123.10776423 27.98251183 125.71399651 27.859375 128.3203125 C27.73553183 130.87240095 27.61031736 133.42441152 27.48339844 135.97634888 C27.40092682 137.64670361 27.32083627 139.31717766 27.24316406 140.98776245 C27.05976271 144.79831394 26.83741356 148.59167937 26.46875 152.38916016 C26.35015625 153.64132324 26.2315625 154.89348633 26.109375 156.18359375 C25.99078125 157.26938721 25.8721875 158.35518066 25.75 159.47387695 C25.6190761 162.14445886 25.6190761 162.14445886 27.15429688 163.96826172 C29.7792386 165.76106986 32.2223427 165.73688355 35.359375 165.9453125 C37.07640625 166.07873047 37.07640625 166.07873047 38.828125 166.21484375 C42.03956765 166.39689806 42.03956765 166.39689806 44.859375 164.1328125 C47.69422055 156.37163536 48.33753073 147.84150594 49.15600586 139.67041016 C49.58678466 135.39909017 50.14708821 131.22352222 50.984375 127.0078125 C51.83590325 122.57986559 52.26177806 118.63972683 51.859375 114.1328125 C49.12670786 110.48058118 45.85459812 110.23081437 41.57421875 109.4765625 C34.78499079 108.32372826 34.78499079 108.32372826 28.859375 110.1328125 Z M-29.140625 114.1328125 C-30.28973175 118.95906084 -29.70949232 121.51055826 -28.140625 126.1328125 C-27.74167008 128.37530419 -27.38749696 130.62621705 -27.078125 132.8828125 C-26.57767756 137.1525086 -26.57767756 137.1525086 -25.140625 141.1328125 C-24.98462023 142.79686337 -24.8651591 144.46443133 -24.765625 146.1328125 C-24.28183208 151.69643114 -23.53273136 157.03570823 -21.140625 162.1328125 C-17.55951203 164.95429544 -12.77321829 164.3718974 -8.34765625 164.3984375 C-5.93457614 164.33846173 -5.93457614 164.33846173 -4.140625 162.1328125 C-4.32222824 159.12487247 -4.32222824 159.12487247 -4.953125 155.4453125 C-6.4142238 145.22340057 -6.53942052 134.95454533 -6.71020508 124.64770508 C-6.73880615 123.34728271 -6.76740723 122.04686035 -6.796875 120.70703125 C-6.82491211 118.95265747 -6.82491211 118.95265747 -6.85351562 117.1628418 C-7.1276169 114.27009446 -7.63358273 112.58025216 -9.140625 110.1328125 C-16.03796209 110.1328125 -22.67753374 111.75167361 -29.140625 114.1328125 Z M-47.3515625 115.09765625 C-50.71088685 116.34446431 -53.83016736 116.68569516 -57.390625 117.0703125 C-67.5937472 118.0930372 -67.5937472 118.0930372 -76.140625 123.1328125 C-76.9447342 132.08443992 -76.13323111 141.31535744 -75.453125 150.2578125 C-75.39995117 151.14573486 -75.34677734 152.03365723 -75.29199219 152.94848633 C-75.18032715 154.21921997 -75.18032715 154.21921997 -75.06640625 155.515625 C-75.00880127 156.26215332 -74.95119629 157.00868164 -74.8918457 157.77783203 C-73.77513887 161.27856459 -72.02919513 163.9023654 -69.140625 166.1328125 C-66.1757148 166.69903472 -64.04691421 166.88864473 -61.1015625 166.7890625 C-60.33889069 166.78531616 -59.57621887 166.78156982 -58.79043579 166.77770996 C-57.18498128 166.76431148 -55.57958973 166.73656501 -53.97460938 166.6953125 C-51.51631084 166.63282993 -49.06057753 166.61335163 -46.6015625 166.6015625 C-45.0390312 166.58322664 -43.47652596 166.56247639 -41.9140625 166.5390625 C-41.17964935 166.53056274 -40.44523621 166.52206299 -39.68856812 166.51330566 C-35.98863454 166.40942113 -34.29642846 166.23668147 -31.140625 164.1328125 C-30.69714003 161.54598208 -30.69714003 161.54598208 -30.828125 158.5703125 C-30.83392578 157.08337891 -30.83392578 157.08337891 -30.83984375 155.56640625 C-31.13892982 152.15216395 -31.80122737 149.03963271 -32.58569336 145.71362305 C-33.21307854 142.79585412 -33.66920723 139.87812441 -34.10546875 136.92578125 C-34.26595703 135.84490234 -34.42644531 134.76402344 -34.59179688 133.65039062 C-34.91872828 131.41176393 -35.23893452 129.17214576 -35.55273438 126.93164062 C-35.71451172 125.85720703 -35.87628906 124.78277344 -36.04296875 123.67578125 C-36.18210693 122.70664795 -36.32124512 121.73751465 -36.46459961 120.73901367 C-37.20645196 117.87903755 -38.12195333 116.27564293 -40.140625 114.1328125 C-43.00467963 113.68059335 -44.69686201 113.93915621 -47.3515625 115.09765625 Z M61.859375 114.1328125 C61.37951533 115.40338432 60.9005157 116.67428098 60.421875 117.9453125 C60.15503906 118.65300781 59.88820312 119.36070313 59.61328125 120.08984375 C58.30554868 123.63359573 57.6790638 126.6247067 57.421875 130.3828125 C57.15333674 133.64789676 56.79438428 136.35215619 55.859375 139.5078125 C54.62263851 143.99098228 54.37787305 148.31834567 54.10546875 152.94921875 C53.859375 156.1328125 53.859375 156.1328125 53.26953125 159.421875 C52.587014 162.07383227 52.587014 162.07383227 53.859375 163.9453125 C59.57708881 167.34020507 68.11282512 166.41839425 74.546875 166.5078125 C76.0947168 166.56388672 76.0947168 166.56388672 77.67382812 166.62109375 C83.58878912 166.83089476 83.58878912 166.83089476 88.44140625 163.859375 C88.90933594 162.95960938 89.37726563 162.05984375 89.859375 161.1328125 C90.20339355 160.57062012 90.54741211 160.00842773 90.90185547 159.42919922 C92.23176407 156.23972439 92.38559951 153.07312329 92.59765625 149.6640625 C92.64633347 148.9467395 92.69501068 148.2294165 92.74516296 147.49035645 C92.844519 145.97775052 92.93921441 144.46483213 93.02954102 142.95166016 C93.17147392 140.63934681 93.33988995 138.32993877 93.50976562 136.01953125 C93.60318691 134.54697716 93.69503686 133.07432236 93.78515625 131.6015625 C93.83811356 130.91292114 93.89107086 130.22427979 93.94563293 129.51477051 C94.10331391 126.49537352 94.03123006 124.46279185 92.62182617 121.7565918 C90.64482174 119.93514056 89.32638099 119.34001462 86.734375 118.68359375 C85.94546875 118.47541016 85.1565625 118.26722656 84.34375 118.05273438 C83.52390625 117.85228516 82.7040625 117.65183594 81.859375 117.4453125 C80.23430947 117.02499288 78.60930686 116.60442986 76.984375 116.18359375 C76.26507813 116.00481689 75.54578125 115.82604004 74.8046875 115.6418457 C73.13735038 115.20555079 71.49440702 114.67782317 69.859375 114.1328125 C68.46497836 114.06615874 67.06767625 114.04743051 65.671875 114.0703125 C64.41375 114.0909375 63.155625 114.1115625 61.859375 114.1328125 Z M-41.95606995 174.48069 C-44.39334237 174.50784277 -46.83062658 174.53144955 -49.26794434 174.55413818 C-53.07116912 174.59018033 -56.87413498 174.63627536 -60.67713928 174.69075012 C-62.06559791 174.70922666 -63.45410425 174.72444283 -64.84263611 174.7361908 C-66.72364606 174.75285942 -68.60452237 174.78301632 -70.48535156 174.81396484 C-71.53611877 174.82728851 -72.58688599 174.84061218 -73.66949463 174.8543396 C-76.31599568 174.89253235 -76.31599568 174.89253235 -78.140625 177.1328125 C-78.72551062 179.50405848 -78.72551062 179.50405848 -78.140625 182.1328125 C-75.47960208 185.31125655 -72.99426493 187.60733232 -69.140625 189.1328125 C-66.46178775 189.35615152 -66.46178775 189.35615152 -63.57649231 189.22663879 C-57.74726911 189.12786188 -51.98702781 189.33575289 -46.16674805 189.6315918 C-32.34916603 190.26291179 -18.55161389 190.23678888 -4.72265625 190.15234375 C-3.42699926 190.14538671 -2.13134228 190.13842968 -0.79642296 190.13126183 C5.33046472 190.09835477 11.45729464 190.06062503 17.58410758 190.01589662 C24.60487713 189.96472875 31.625469 189.9307365 38.64639491 189.91071588 C44.78364746 189.89203826 50.92058471 189.85166835 57.0576725 189.803442 C59.65200574 189.78611295 62.2463921 189.77540955 64.84078026 189.77149391 C68.44659566 189.76443916 72.05137923 189.73260315 75.65698242 189.69458008 C76.72338959 189.6980394 77.78979675 189.70149872 78.88851929 189.70506287 C83.39999937 189.6344976 86.09987622 189.59008907 90.02461243 187.22709656 C92.05521802 184.90926809 92.47545682 184.03794268 92.296875 181.0078125 C92.26606247 177.12395864 92.26606247 177.12395864 89.859375 175.1328125 C85.38163265 174.0952668 81.04088642 174.00624166 76.45800781 174.00341797 C75.73575138 174.00169397 75.01349495 173.99996998 74.26935196 173.99819374 C71.86704496 173.99385447 69.46480794 173.99680386 67.0625 174 C65.34346493 173.99889789 63.62443005 173.99746586 61.90539551 173.99572754 C57.26928902 173.99281038 52.63321776 173.99714767 47.99711609 174.00383759 C45.11270142 174.00780792 42.22828859 174.01032419 39.34387207 174.01251221 C12.2429267 174.03611096 -14.856889 174.16511535 -41.95606995 174.48069 Z M91.859375 492.1328125 C90.92872367 494.73863621 90.71020093 495.77479474 91.796875 498.3828125 C92.1475 498.9603125 92.498125 499.5378125 92.859375 500.1328125 C94.27514977 498.94856924 94.27514977 498.94856924 93.921875 495.5703125 C93.90125 494.4359375 93.880625 493.3015625 93.859375 492.1328125 C93.199375 492.1328125 92.539375 492.1328125 91.859375 492.1328125 Z " fill="#000000" transform="translate(124.140625,-0.1328125)"/>
</svg>
