<?xml version="1.0" encoding="UTF-8"?>
<svg version="1.1" xmlns="http://www.w3.org/2000/svg" width="757" height="704">
<path d="M0 0 C16.87515557 14.58346778 28.73669846 34.73530551 32.40625 56.875 C35.44680363 112.93861504 11.68414312 148.36990177 -21.55639648 191.65673828 C-45.57051316 222.6699564 -45.57051316 222.6699564 -59.59375 258.875 C-59.83867187 259.89078125 -60.08359375 260.9065625 -60.3359375 261.953125 C-68.77402791 305.18388957 -49.01875205 344.3197811 -31.04638672 382.13037109 C-14.19375908 417.59998089 -3.14010911 454.94381453 -16.28125 493.5625 C-25.26702959 518.34206867 -42.87660545 536.82534673 -66.48046875 548.078125 C-88.31712265 557.98001567 -114.47257598 557.52222579 -136.76953125 549.40234375 C-154.9191831 542.29664493 -170.31081773 529.43795151 -180.59375 512.875 C-181.56248047 511.33779297 -181.56248047 511.33779297 -182.55078125 509.76953125 C-201.12484286 478.90746712 -204.61795446 442.26516085 -204.82354546 406.95516968 C-204.84029237 404.17553834 -204.86353709 401.3960247 -204.88844299 398.61645508 C-204.95828866 390.72304416 -205.01885749 382.82958562 -205.07055664 374.93603516 C-205.08432339 344.83823375 -205.08432339 344.83823375 -207.59375 314.875 C-207.73401611 313.73901367 -207.87428223 312.60302734 -208.01879883 311.43261719 C-208.38686573 308.69248856 -208.81001222 305.97407832 -209.28125 303.25 C-209.45148682 302.26225586 -209.62172363 301.27451172 -209.79711914 300.25683594 C-213.43818489 280.02623356 -219.27192584 260.41276362 -225.15625 240.75 C-234.24630626 210.34522982 -241.83332341 179.77985458 -242.59375 147.875 C-242.63371094 146.88886719 -242.67367187 145.90273438 -242.71484375 144.88671875 C-243.72555334 102.85309045 -229.72462334 62.20687306 -200.71875 31.5625 C-172.56274041 4.06488403 -132.62558807 -13.79585537 -94.59375 -22.125 C-93.52640625 -22.3725 -92.4590625 -22.62 -91.359375 -22.875 C-58.68468518 -29.23331802 -25.60737825 -20.97953881 0 0 Z " fill="#000000" transform="translate(260.59375,149.125)"/>
<path d="M0 0 C4.52477481 2.22125309 6.9148266 4.44261757 9 9 C9.44029829 12.33806217 9.40895129 15.65091457 9.38768005 19.01390076 C9.39575836 20.53916566 9.39575836 20.53916566 9.40399987 22.09524399 C9.41832204 25.50689663 9.41116506 28.91816361 9.40405273 32.32983398 C9.40975405 34.77401034 9.41671738 37.21818404 9.42485046 39.66235352 C9.44095586 45.61475922 9.44287719 51.56701306 9.43763756 57.51942568 C9.43359581 62.35765294 9.43503946 67.19584901 9.44038582 72.03407478 C9.44113424 72.72272995 9.44188266 73.41138511 9.44265376 74.12090861 C9.44418524 75.51991956 9.44572359 76.9189305 9.44726873 78.31794143 C9.46099607 91.43701531 9.45555445 104.55602955 9.44408352 117.67510206 C9.4341508 129.67589648 9.44709199 141.67653672 9.47101771 153.67730736 C9.49540286 166.00142592 9.50501804 178.32547266 9.49836498 190.64961487 C9.49487146 197.56800925 9.49711352 204.48628504 9.51461601 211.40466118 C9.53086819 217.90947397 9.52616545 224.4140399 9.50731087 230.91886139 C9.50361603 233.30776728 9.50675934 235.69669487 9.51719666 238.08558083 C9.53034644 241.34376839 9.51891146 244.60097082 9.50120544 247.8591156 C9.51561295 249.28105332 9.51561295 249.28105332 9.53031152 250.73171705 C9.46610236 256.46436698 8.73478617 259.58913565 5 264 C3.17578125 265.49609375 3.17578125 265.49609375 1.3125 266.4375 C0.71050781 266.76621094 0.10851562 267.09492187 -0.51171875 267.43359375 C-7.53566172 269.03245047 -12.23536046 267.15358783 -18.14453125 263.46484375 C-20.3808691 261.9717477 -22.60050642 260.46527931 -24.8125 258.9375 C-25.92145348 258.18916333 -27.03147564 257.44240781 -28.14257812 256.69726562 C-30.35153017 255.20944466 -32.55557747 253.71431554 -34.75463867 252.21191406 C-37.89719612 250.07006719 -41.05784058 247.95835931 -44.2265625 245.85546875 C-83.64190931 219.62283716 -83.64190931 219.62283716 -96.40625 207.35546875 C-99.69541471 204.55806641 -103.07075499 204.89287583 -107.18041992 204.93408203 C-108.45572067 204.94384064 -109.73102142 204.95359924 -111.04496765 204.96365356 C-111.72656134 204.97101658 -112.40815502 204.97837959 -113.11040306 204.98596573 C-115.25095768 205.00802363 -117.3914232 205.0220815 -119.53205872 205.03366089 C-125.61825747 205.06720967 -131.70431015 205.10862138 -137.7902832 205.17138672 C-141.51550737 205.20923067 -145.24057905 205.23211912 -148.96596718 205.24569321 C-150.38006137 205.2537034 -151.79413621 205.26724924 -153.20812035 205.28662491 C-170.32321011 205.51692946 -170.32321011 205.51692946 -176.875 199.25 C-181.29883719 192.48413136 -181.29414607 186.01408444 -181.2746582 178.15869141 C-181.27976913 177.08947952 -181.28488007 176.02026764 -181.29014587 174.9186554 C-181.30400678 171.39623361 -181.30308766 167.87400826 -181.30078125 164.3515625 C-181.30467017 161.89447965 -181.30900525 159.43739747 -181.31376648 156.98031616 C-181.32122123 151.83418599 -181.32094283 146.68812443 -181.31567383 141.54199219 C-181.3098811 134.9593207 -181.32680939 128.37693076 -181.3500185 121.7943058 C-181.36477668 116.72069669 -181.36562467 111.64715506 -181.36250877 106.57352829 C-181.36302096 104.14713356 -181.36823939 101.72073495 -181.37832069 99.29436111 C-181.39070747 95.89608917 -181.38387941 92.49836141 -181.37231445 89.10009766 C-181.37995819 88.10552048 -181.38760193 87.1109433 -181.39547729 86.08622742 C-181.33923688 78.57960625 -180.48028364 71.91433328 -175.5 66.0625 C-167.67097551 60.47835308 -156.03262138 61.83994983 -146.96875 62.12109375 C-144.96310154 62.15804128 -142.95745027 62.19493225 -140.95174408 62.2286005 C-136.06266035 62.31163429 -131.17490079 62.4118485 -126.28759766 62.5690918 C-123.52758914 62.65670443 -120.7690979 62.7195258 -118.00793457 62.75563049 C-115.42605356 62.79001713 -112.84431657 62.85894043 -110.26452637 62.96836853 C-100.42043624 63.02764558 -95.96055034 59.63933907 -89 53 C-87.68307099 51.97357258 -86.3459391 50.97208037 -84.98266602 50.00805664 C-84.36528061 49.57093857 -83.7478952 49.1338205 -83.11180115 48.68345642 C-82.47807083 48.24264236 -81.84434052 47.80182831 -81.19140625 47.34765625 C-80.48351456 46.85169449 -79.77562286 46.35573273 -79.04627991 45.84474182 C-69.47309782 39.18269831 -59.69633431 32.82260158 -49.9375 26.4375 C-46.15350723 23.9592217 -42.37088325 21.47887549 -38.58984375 18.99609375 C-37.23250626 18.1051149 -37.23250626 18.1051149 -35.8477478 17.19613647 C-29.42367579 12.96729962 -23.06052278 8.65729249 -16.74778748 4.26402283 C-10.8577108 0.16976434 -7.17670669 -0.79373715 0 0 Z " fill="#000000" transform="translate(497,315)"/>
<path d="M0 0 C3.23373232 1.38270825 6.39575023 2.86551046 9.55688477 4.40698242 C10.70415039 4.95354492 11.85141602 5.50010742 13.03344727 6.06323242 C52.27413911 24.95852637 95.42950679 51.40590588 111.21704102 93.99291992 C117.86606877 117.06349994 112.40816972 141.25113017 101.37231445 161.84008789 C96.26031405 170.78310029 89.81926319 178.40066577 81.11938477 184.03198242 C80.12938477 184.69198242 79.13938477 185.35198242 78.11938477 186.03198242 C73.89297126 187.44078692 70.37857312 187.32264556 66.11938477 186.03198242 C63.49438477 184.03198242 63.49438477 184.03198242 62.11938477 181.03198242 C61.65008739 173.51940128 64.92505834 168.34056811 68.93188477 162.28198242 C76.86917482 149.60002925 80.87103939 138.09621215 79.11938477 123.03198242 C77.93185596 118.72150553 76.23293825 114.96195853 74.11938477 111.03198242 C73.46776367 109.72293945 73.46776367 109.72293945 72.80297852 108.38745117 C64.27792936 92.57603521 46.29681404 83.57592968 30.49438477 76.40698242 C29.7731543 76.07625732 29.05192383 75.74553223 28.30883789 75.40478516 C27.61467773 75.10386963 26.92051758 74.8029541 26.20532227 74.49291992 C25.60768066 74.2330127 25.01003906 73.97310547 24.39428711 73.70532227 C22.2180773 73.06119406 20.22615174 72.75684488 17.97720337 72.48989868 C16.70412323 72.33878632 15.43104309 72.18767395 14.11938477 72.03198242 C14.11699641 72.77005568 14.11460806 73.50812893 14.11214733 74.26856804 C14.05292264 92.25607854 13.9773249 110.24345271 13.88366985 128.23081779 C13.83877009 136.92950094 13.79934209 145.62814368 13.77294922 154.3269043 C13.74992191 161.91178603 13.71647128 169.49653926 13.67068321 177.08131897 C13.6468146 181.09465616 13.62804426 185.10786658 13.62177086 189.12127304 C13.61569104 192.90522894 13.59558777 196.68886076 13.56510925 200.4726963 C13.55223661 202.51038966 13.55389101 204.54815891 13.55610657 206.58589172 C13.3828215 223.6377689 7.0952212 236.01477867 -4.88061523 248.03198242 C-5.47229492 248.64686523 -6.06397461 249.26174805 -6.67358398 249.89526367 C-20.4951216 263.16760112 -40.89288638 270.37370261 -59.84106445 270.15258789 C-72.59591217 269.39835103 -87.61292284 263.80858732 -96.31811523 254.25463867 C-103.97203624 243.36693604 -107.55226757 232.24617306 -105.38452148 219.00073242 C-102.6463805 206.99622729 -97.53017422 198.72690623 -88.88061523 190.03198242 C-88.34952148 189.46608398 -87.81842773 188.90018555 -87.27124023 188.31713867 C-75.78872853 177.16016209 -54.8625293 171.86063997 -39.38842773 171.93432617 C-38.18959961 171.93754883 -36.99077148 171.94077148 -35.75561523 171.9440918 C-34.51811523 171.9524707 -33.28061523 171.96084961 -32.00561523 171.96948242 C-30.74491211 171.97399414 -29.48420898 171.97850586 -28.18530273 171.9831543 C-25.08369138 171.99490282 -21.98217798 172.01133075 -18.88061523 172.03198242 C-17.47096668 169.21268532 -17.76438164 166.88072778 -17.77381897 163.72639465 C-17.77437568 163.07217283 -17.77493238 162.41795102 -17.77550596 161.74390429 C-17.77855321 159.54147206 -17.78874388 157.33912918 -17.79882812 155.13671875 C-17.80238278 153.56159561 -17.80546917 151.98647135 -17.80812073 150.41134644 C-17.81468244 147.01352942 -17.82424908 143.61573849 -17.8360157 140.21793556 C-17.85427908 134.84326877 -17.86390026 129.4686084 -17.87193298 124.09391785 C-17.89610496 108.80818895 -17.93190702 93.52249873 -17.9765625 78.23681641 C-18.00113592 69.79907168 -18.01848366 61.36134229 -18.02812189 52.923567 C-18.03465764 47.58324212 -18.0502028 42.24304347 -18.07243931 36.90276206 C-18.08419403 33.57443149 -18.08753819 30.24613137 -18.08853722 26.91778183 C-18.0906796 25.37749411 -18.09625371 23.83720662 -18.10556793 22.29694557 C-18.11782001 20.18868715 -18.11759021 18.0807721 -18.11439514 15.9724884 C-18.11910875 14.20515964 -18.11910875 14.20515964 -18.12391758 12.40212727 C-17.8013694 7.93429492 -17.18200518 3.64570596 -14.31811523 0.09448242 C-9.51850857 -1.99765382 -4.85669218 -1.6320692 0 0 Z " fill="#010101" transform="translate(561.880615234375,12.968017578125)"/>
<path d="M0 0 C35.53553272 24.50726394 54.49653436 84.13987176 62.35302734 123.87475586 C64.4462107 135.2819806 65.36407314 146.75473525 65.92578125 158.328125 C65.98636719 159.53210938 66.04695312 160.73609375 66.109375 161.9765625 C67.38816522 219.29645364 47.39588951 275.11872683 12.03125 319.65625 C10.17177098 322.01595993 8.45233867 324.42526158 6.73828125 326.890625 C3.97315264 330.51363285 1.36552642 333.0199128 -3.07421875 334.328125 C-8.71705389 335.05721272 -13.39986933 335.13540061 -18.57421875 332.640625 C-22.50739199 329.00243975 -25.65008088 325.85333648 -26.3125 320.34765625 C-26.33699219 319.61933594 -26.36148438 318.89101563 -26.38671875 318.140625 C-26.42410156 317.42519531 -26.46148438 316.70976563 -26.5 315.97265625 C-25.3036363 308.54203036 -20.32337559 302.80622965 -15.69921875 297.140625 C9.72659138 265.1302942 22.64702291 230.82927728 27.92578125 190.328125 C28.02004395 189.63178955 28.11430664 188.9354541 28.21142578 188.21801758 C30.60058206 168.05123066 30.83503491 145.09101792 25.92578125 125.328125 C25.62994141 124.12091797 25.33410156 122.91371094 25.02929688 121.66992188 C16.70633534 88.12400157 4.44047497 60.04693954 -17.37036133 33.01953125 C-23.03350238 25.99163626 -27.03152553 20.65300213 -26.07421875 11.328125 C-23.97213353 5.37221688 -20.14242899 1.98023821 -14.63671875 -0.984375 C-9.62874079 -2.32797884 -4.734466 -2.30949561 0 0 Z " fill="#010101" transform="translate(691.07421875,279.671875)"/>
<path d="M0 0 C27.22569638 19.11591448 42.5275894 62.55404097 48.48974609 93.97265625 C56.67604621 141.86862109 44.56966047 190.87628213 16.875 230.625 C2.5762639 250.6631671 2.5762639 250.6631671 -5.08984375 252.796875 C-10.00908339 253.45926766 -13.82157685 252.68296157 -18.3125 250.4375 C-22.2823178 247.00902099 -24.55788503 243.8685365 -25.48046875 238.73828125 C-26.09424806 228.17132386 -19.92459702 220.72652138 -14.00292969 212.5715332 C-1.14049799 194.78957735 6.54238816 175.28745549 11.9375 154.0625 C12.2571875 152.81984375 12.576875 151.5771875 12.90625 150.296875 C16.59037873 133.71829571 16.12903462 115.69883277 12.9375 99.0625 C12.76009277 98.104646 12.76009277 98.104646 12.57910156 97.12744141 C7.29823317 69.41296034 -5.851502 46.61054097 -22.53125 24.3046875 C-25.29850885 20.25262989 -25.38295656 16.86934842 -25.0625 12.0625 C-23.24192998 6.19621883 -20.93364644 3.51289539 -16.0625 0.0625 C-10.79400255 -1.69366582 -5.30272353 -1.62328271 0 0 Z " fill="#010101" transform="translate(638.0625,320.9375)"/>
<path d="M0 0 C12.88129835 8.90808845 20.16596843 21.80500219 23.80078125 36.75 C27.21422198 55.61933075 24.31952046 76.99956764 13.48828125 93.125 C6.00691187 103.03621585 -3.85598929 111.52491839 -16.13671875 114.75 C-27.85803466 115.9443521 -37.08639854 113.85433345 -46.265625 106.4296875 C-57.18029912 96.6315458 -64.1809718 82.60454372 -65.36425781 67.92773438 C-66.49728369 45.30997259 -62.25347679 24.36396256 -47.1328125 6.796875 C-44.05210352 3.63779182 -40.89768005 1.05557015 -37.13671875 -1.25 C-36.48445313 -1.6625 -35.8321875 -2.075 -35.16015625 -2.5 C-24.11519294 -8.45683415 -10.43483061 -6.10447129 0 0 Z " fill="#000000" transform="translate(294.13671875,5.25)"/>
<path d="M0 0 C18.13761649 13.01176835 26.9303792 39.93516363 30.79467773 61.00390625 C35.80967308 92.37000267 27.20630977 123.68148451 9.92578125 150.03515625 C5.98246982 155.34311928 1.27905109 160.9278163 -5.125 163.0625 C-11.93889314 163.75543829 -15.79811966 162.35837124 -21.125 158.0625 C-24.98062415 153.83375094 -25.65818124 149.49517743 -25.59375 143.921875 C-24.66842037 138.27736427 -21.14736486 133.81274515 -18.125 129.0625 C-5.18924846 107.35457765 0.49314677 81.87803522 -5.625 56.8125 C-8.96945889 46.60185519 -14.04588134 37.03753253 -20 28.125 C-23.46716495 22.80496938 -25.72416716 18.12352188 -24.7734375 11.6796875 C-23.23483858 6.06287459 -20.93498468 3.26915645 -16.125 0.0625 C-10.82686772 -1.70354409 -5.33699651 -1.60109895 0 0 Z " fill="#020202" transform="translate(589.125,365.9375)"/>
<path d="M0 0 C10.41146779 6.31333685 16.9941067 15.70560622 20 27.44921875 C22.88524748 43.41555449 20.37921784 59.36349428 11.19921875 72.88671875 C5.77371941 79.54383829 -0.93758817 84.09337784 -9.546875 85.1484375 C-17.27863932 85.79275119 -23.79031919 83.16729761 -29.796875 78.3359375 C-40.59192751 68.14463513 -44.74982067 53.88871925 -45.234375 39.3359375 C-44.89947257 26.23105994 -40.0543 14.06593181 -30.546875 4.9609375 C-21.33019694 -2.67838962 -10.98103589 -5.41372748 0 0 Z " fill="#010101" transform="translate(187.796875,7.6640625)"/>
<path d="M0 0 C10.06412974 4.69489744 15.19217735 11.02485167 19.609375 21.03515625 C22.01536889 27.73949877 23.01642255 33.73797409 22.96484375 40.81640625 C22.95855957 41.99831543 22.95855957 41.99831543 22.95214844 43.20410156 C22.77047261 52.58553213 20.84576418 60.54458815 14.15625 67.49609375 C8.58452926 72.66891532 2.39781142 76.05834229 -5.28515625 76.50390625 C-12.74700112 76.19009034 -20.12115696 72.16790554 -25.34765625 66.94140625 C-34.37487319 55.37914894 -39.90875101 43.90025098 -38.34765625 28.94140625 C-35.981413 17.19520474 -30.97967743 7.88856435 -21.046875 1 C-14.93314688 -2.80878235 -6.66875607 -2.10878984 0 0 Z " fill="#010101" transform="translate(100.34765625,41.05859375)"/>
<path d="M0 0 C7.46472084 5.82647104 11.87065749 15.08541912 13.48828125 24.32421875 C14.61510209 34.73389702 13.76544523 44.62772037 7.12890625 53.12890625 C3.65822832 56.78429813 -0.40146322 59.33311555 -5.46484375 59.80078125 C-15.88559796 59.99709059 -21.37297973 57.18115843 -28.93359375 49.9921875 C-36.23842576 42.4915811 -40.26989659 35.46873988 -40.703125 24.84765625 C-40.37405603 14.5148907 -37.64214611 5.69069129 -30.26953125 -1.72265625 C-21.54245263 -9.03775139 -8.79597793 -5.44440703 0 0 Z " fill="#010101" transform="translate(40.265625,103.40234375)"/>
</svg>
