<?xml version="1.0" encoding="UTF-8"?>
<svg version="1.1" xmlns="http://www.w3.org/2000/svg" width="350" height="711">
<path d="M0 0 C1.83303625 -0.00573832 1.83303625 -0.00573832 3.70310354 -0.01159257 C7.08291919 -0.02010999 10.46251666 -0.019695 13.84232593 -0.01541197 C17.49200755 -0.01294182 21.14166378 -0.02196242 24.79133606 -0.02944946 C31.93624278 -0.04218976 39.08111191 -0.04399105 46.22602808 -0.0416492 C52.03339533 -0.03986539 57.84075118 -0.04161704 63.64811707 -0.04587364 C64.88841235 -0.04676643 64.88841235 -0.04676643 66.1537641 -0.04767724 C67.83357624 -0.04888901 69.51338839 -0.05010314 71.19320053 -0.05131962 C86.94093418 -0.06219226 102.68864642 -0.06003378 118.43638128 -0.05393478 C132.84188849 -0.04876401 147.24732812 -0.06002575 161.65282196 -0.07903299 C176.44833613 -0.09840509 191.24381832 -0.10666862 206.03934526 -0.10290974 C214.3443833 -0.10099698 222.64936379 -0.10349272 230.95439148 -0.11762428 C238.02328366 -0.12953093 245.09208285 -0.13095092 252.16097629 -0.11883412 C255.76692708 -0.11294081 259.37270772 -0.11185842 262.97864723 -0.12383652 C266.88860002 -0.13667354 270.7982943 -0.1262418 274.70825195 -0.11352539 C275.84648077 -0.12089968 276.98470958 -0.12827396 278.15743017 -0.13587171 C284.20065702 -0.09444038 288.50636487 0.39418479 293.85412598 3.26069641 C294.65850098 3.65257141 295.46287598 4.04444641 296.29162598 4.44819641 C296.80725098 4.71632141 297.32287598 4.98444641 297.85412598 5.26069641 C297.85412598 5.92069641 297.85412598 6.58069641 297.85412598 7.26069641 C298.72037598 7.60100891 298.72037598 7.60100891 299.60412598 7.94819641 C302.91319606 9.87848729 305.27936436 12.46162653 306.45942907 16.15536461 C306.86992453 18.34496661 306.98022906 20.34397996 306.98177648 22.57100517 C306.98479244 23.43251741 306.98780841 24.29402966 306.99091578 25.18164834 C306.98826157 26.59716969 306.98826157 26.59716969 306.98555374 28.04128742 C306.98760638 29.05007634 306.98965901 30.05886526 306.99177384 31.09822354 C306.9974646 34.50585291 306.99598404 37.91344213 306.99456787 41.32107544 C306.99715031 43.7779203 307.00016313 46.23476475 307.00357127 48.69160861 C307.0108094 54.75319538 307.01334458 60.81476853 307.01390033 66.87635829 C307.01481347 74.13491068 307.02147948 81.3934549 307.02824715 88.65200378 C307.04431394 106.19580697 307.05021099 123.73960931 307.0549959 141.28341854 C307.05733094 149.58027378 307.06093347 157.87712833 307.06469128 166.17398304 C307.07752674 194.5669172 307.08824644 222.95985097 307.09169388 251.35278797 C307.09191551 253.13540907 307.0921373 254.91803017 307.09235923 256.70065127 C307.09257987 258.48760923 307.09280035 260.2745672 307.09302068 262.06152517 C307.09346323 265.64655165 307.09391035 269.23157813 307.09436035 272.81660461 C307.09452444 274.14992369 307.09452444 274.14992369 307.09469184 275.51017851 C307.09832365 304.34160787 307.11424842 333.17301209 307.13755072 362.00443182 C307.1621342 392.4766616 307.17586601 422.94887702 307.1770618 453.42111701 C307.17723325 456.76468925 307.17744868 460.10826149 307.17769623 463.45183372 C307.177752 464.27513345 307.17780777 465.09843317 307.17786522 465.94668137 C307.1790169 479.20823034 307.19004865 492.46975357 307.20458328 505.73129384 C307.21893348 519.05468343 307.22219362 532.37803993 307.21414331 545.70143513 C307.20968023 553.62068732 307.21357469 561.53983291 307.22938181 569.45907114 C307.24025145 575.366455 307.23551224 581.27375829 307.22460994 587.18114444 C307.22264135 589.57548227 307.22578448 591.96983066 307.2344543 594.3641536 C307.24546841 597.6104837 307.23811412 600.85626759 307.22606277 604.10258198 C307.23745556 605.50756807 307.23745556 605.50756807 307.24907851 606.94093773 C307.18833855 614.48360978 305.53565693 620.03886344 300.36975098 625.84272766 C292.16288729 633.52079859 283.64836269 633.40961501 272.92462158 633.40786743 C271.10829267 633.41338246 271.10829267 633.41338246 269.25527024 633.41900891 C265.90185137 633.42810878 262.54848132 633.43273948 259.19505477 633.43539822 C255.57529557 633.43931252 251.95555038 633.44888984 248.33580017 633.45761108 C239.59958395 633.47734058 230.86336664 633.48743584 222.12713373 633.49633887 C218.01015229 633.5007263 213.89317214 633.50609181 209.77619171 633.51132774 C196.08662559 633.52833417 182.39706026 633.5428287 168.7074852 633.55007648 C165.1578954 633.55198627 161.6083056 633.55390662 158.05871582 633.55586243 C156.73542111 633.55658804 156.73542111 633.55658804 155.38539317 633.55732831 C141.09176696 633.56563015 126.79822439 633.5909723 112.50463471 633.6234431 C97.82101366 633.65652745 83.13743511 633.67452636 68.4537766 633.67772073 C60.21287293 633.67988421 51.97209135 633.68860959 43.73122406 633.7141819 C36.71398624 633.73590745 29.69690021 633.74393011 22.67963257 633.73421512 C19.10161252 633.72967616 15.52390552 633.73153272 11.94592857 633.75097656 C8.06101157 633.77190556 4.17652368 633.7616047 0.29156494 633.7484436 C-1.39202083 633.76489747 -1.39202083 633.76489747 -3.10961843 633.78168374 C-11.71677957 633.71139576 -19.48215183 632.03252265 -26.14587402 626.26069641 C-26.14587402 625.60069641 -26.14587402 624.94069641 -26.14587402 624.26069641 C-27.13587402 623.93069641 -28.12587402 623.60069641 -29.14587402 623.26069641 C-34.2168603 617.04596301 -34.86534354 610.79880817 -34.77838135 603.04878235 C-34.78603146 601.95148961 -34.79368157 600.85419687 -34.8015635 599.72365284 C-34.82109669 596.0637834 -34.80522666 592.40494583 -34.78942871 588.74507141 C-34.79624659 586.11485154 -34.80526969 583.4846366 -34.81632996 580.85443115 C-34.83671462 575.20034686 -34.83908801 569.54648887 -34.82915497 563.89237976 C-34.81490565 555.71655643 -34.82921827 547.5409749 -34.85057691 539.36517608 C-34.88456005 526.09742865 -34.89710655 512.82975357 -34.89538574 499.56196594 C-34.89377453 486.6801099 -34.89981588 473.79830263 -34.91784668 460.91645813 C-34.91895465 460.12186023 -34.92006263 459.32726232 -34.92120418 458.50858569 C-34.93348296 449.84008708 -34.94759348 441.17159191 -34.96254349 432.50309753 C-34.9664743 430.20671933 -34.97039752 427.91034112 -34.97431073 425.61396289 C-34.97690342 424.10070692 -34.97952699 422.58745101 -34.98218194 421.07419515 C-34.99895946 411.43433018 -35.00768967 401.7945034 -35.00785875 392.15462399 C-35.00809574 386.64252958 -35.01284111 381.13044096 -35.0178318 375.61834908 C-35.01919931 373.05157059 -35.01880871 370.48479051 -35.0165844 367.91801262 C-35.01370123 364.43090285 -35.01676838 360.9438481 -35.02130127 357.45674133 C-35.01886878 356.42691006 -35.01643629 355.39707878 -35.01393008 354.3360405 C-35.01632103 353.40953312 -35.01871198 352.48302574 -35.02117538 351.52844238 C-35.02112306 350.72261813 -35.02107074 349.91679388 -35.02101684 349.08655071 C-34.94627295 347.24122484 -34.94627295 347.24122484 -36.14587402 346.26069641 C-38.47405366 345.8930891 -40.80771252 345.5582806 -43.14587402 345.26069641 C-43.2153572 337.22874599 -43.26867642 329.19692096 -43.30131054 321.16474438 C-43.31697261 317.43514586 -43.33822031 313.70575283 -43.37219238 309.97627258 C-43.40476721 306.37769867 -43.42272296 302.77932252 -43.43050575 299.18061256 C-43.4360527 297.80705463 -43.44688454 296.43350763 -43.46306419 295.0600338 C-43.48481078 293.13768934 -43.48609919 291.21514626 -43.4864502 289.29267883 C-43.49311203 288.19791733 -43.49977386 287.10315582 -43.50663757 285.97521973 C-43.14587402 283.26069641 -43.14587402 283.26069641 -41.93708801 281.50869751 C-39.78335996 280.00812025 -37.616072 279.12860381 -35.14587402 278.26069641 C-35.12274692 270.0637908 -35.10495707 261.86689873 -35.09406185 253.66996861 C-35.08883382 249.86418064 -35.08173764 246.05841493 -35.07043457 242.25263977 C-35.05960282 238.58277097 -35.05359658 234.91292363 -35.05099678 231.24304008 C-35.04914305 229.83994649 -35.04552342 228.43685412 -35.04014397 227.03376961 C-35.03292983 225.07499961 -35.03246594 223.11620821 -35.03234863 221.15742493 C-35.03012802 220.04045731 -35.02790741 218.92348969 -35.02561951 217.77267456 C-34.86076626 215.32164227 -34.86076626 215.32164227 -36.14587402 214.26069641 C-38.45587402 213.93069641 -40.76587402 213.60069641 -43.14587402 213.26069641 C-43.14587402 203.03069641 -43.14587402 192.80069641 -43.14587402 182.26069641 C-39.14587402 180.26069641 -39.14587402 180.26069641 -35.14587402 180.26069641 C-35.14809464 179.4359315 -35.15031525 178.61116659 -35.15260315 177.76140881 C-35.20396338 157.66218027 -35.21102604 137.56335773 -35.16921997 117.46409893 C-35.15006269 107.74405171 -35.14571518 98.02442516 -35.17663574 88.30439758 C-35.20355872 79.82907956 -35.20228299 71.35430659 -35.16761494 62.87900859 C-35.15024206 58.39415354 -35.1466716 53.91027428 -35.1769104 49.42546654 C-35.20497417 45.19701014 -35.19510293 40.97027756 -35.15713692 36.74191475 C-35.14976753 35.19687117 -35.15581741 33.65169078 -35.17689323 32.10677338 C-35.30831166 21.72351882 -33.53676707 14.92341256 -26.14587402 7.26069641 C-18.38159469 0.02149239 -10.04785583 -0.03336245 0 0 Z M10.85412598 35.26069641 C8.84647619 37.48260985 8.84647619 37.48260985 7.10412598 40.19819641 C6.18373535 41.54204407 6.18373535 41.54204407 5.24475098 42.91304016 C3.68424417 45.09272246 3.68424417 45.09272246 3.85412598 47.26069641 C3.19412598 47.26069641 2.53412598 47.26069641 1.85412598 47.26069641 C-4.42127739 57.52953828 -3.43461691 70.45298438 -3.37634277 82.07710266 C-3.37514769 83.66702232 -3.37469851 85.2569427 -3.37495422 86.84686279 C-3.37340227 90.15225242 -3.36520608 93.45753176 -3.35168457 96.76289368 C-3.33457061 100.99967383 -3.33087453 105.2363348 -3.33162975 109.47314548 C-3.33135823 112.74418271 -3.3258819 116.01519389 -3.31862831 119.28622246 C-3.31544934 120.84954062 -3.31347604 122.41286172 -3.3127346 123.97618294 C-3.31056994 126.15123189 -3.30182667 128.32615333 -3.2911377 130.50117493 C-3.2873259 131.7373909 -3.2835141 132.97360687 -3.27958679 134.24728394 C-3.28148769 137.31029342 -3.28148769 137.31029342 -2.14587402 140.26069641 C-2.05530139 141.84343558 -2.01434689 143.4293002 -2.00524902 145.01460266 C-2.07477409 160.61621639 -2.07477409 160.61621639 5.30725098 173.84663391 C11.63965873 179.61245781 17.50640417 180.70203479 25.7023468 180.64837646 C26.68934293 180.653762 27.67633906 180.65914754 28.69324416 180.66469628 C31.99805648 180.67899516 35.30246935 180.67186717 38.6072998 180.66474915 C40.97779157 180.67045175 43.34828058 180.67741558 45.71876526 180.68554688 C51.48820993 180.70164175 57.25752951 180.70357595 63.02699188 180.69833397 C67.71833528 180.69428922 72.40964652 180.69573945 77.10098839 180.70108223 C78.10332735 180.70220486 78.10332735 180.70220486 79.12591558 180.70335018 C80.48352881 180.70488169 81.84114202 180.70642004 83.19875523 180.70796514 C95.9263959 180.72168861 108.65397508 180.71625405 121.38161435 180.70477993 C133.01496167 180.69485222 144.64814983 180.70778042 156.2814726 180.73171412 C168.23612375 180.75612289 180.19070083 180.76570836 192.14537638 180.7590614 C198.85314786 180.75557253 205.56077904 180.75811493 212.26853371 180.77531242 C218.57805028 180.79078231 224.88726323 180.78682505 231.19676781 180.76800728 C233.51023679 180.76432133 235.82372826 180.76742997 238.13717651 180.77789307 C241.30011835 180.79110398 244.46205524 180.77955352 247.62495422 180.76190186 C248.53625542 180.77150686 249.44755662 180.78111187 250.386473 180.79100794 C257.22712767 180.71268771 263.6288455 179.3485515 268.71260577 174.48140424 C270.19685708 172.79731006 271.53839351 171.07879946 272.85412598 169.26069641 C273.36771699 168.66110957 273.881308 168.06152273 274.41046238 167.44376659 C276.09620527 164.89463046 276.23281381 163.5771836 276.24180603 160.55032349 C276.25171066 159.60703186 276.2616153 158.66374023 276.27182007 157.69186401 C276.2650676 156.1496946 276.2650676 156.1496946 276.25817871 154.57637024 C276.26504196 153.48808929 276.27190521 152.39980835 276.27897644 151.27854919 C276.29730164 147.67480985 276.29339725 144.07150369 276.28771973 140.46772766 C276.29228011 137.96151589 276.29758525 135.45530537 276.30360413 132.94909668 C276.31254748 127.6908626 276.31033341 122.43274096 276.3001709 117.17451477 C276.28871497 111.11348568 276.30272174 105.05290038 276.32956737 98.99192983 C276.35448147 93.1463783 276.35688684 87.30099811 276.35045052 81.45540428 C276.35029742 78.97597708 276.35633204 76.4965413 276.36874199 74.01714516 C276.38368026 70.5417639 276.37295123 67.06734709 276.35583496 63.59199524 C276.36550293 62.57400345 276.3751709 61.55601166 276.38513184 60.50717163 C276.30599315 52.80271874 274.72940403 46.56950859 269.60021973 40.66694641 C268.45746582 39.72335266 268.45746582 39.72335266 267.29162598 38.76069641 C266.52721191 38.11100891 265.76279785 37.46132141 264.97521973 36.79194641 C261.88071744 34.55797791 259.38054458 34.13566833 255.66989994 34.13485527 C254.81296167 34.13224752 253.95602341 34.12963978 253.07311732 34.12695301 C251.66039432 34.13029909 251.66039432 34.13029909 250.21913147 34.13371277 C249.21892013 34.13215278 248.21870879 34.13059279 247.18818802 34.12898552 C243.82104123 34.12498208 240.45393915 34.12816267 237.08679199 34.13130188 C234.67907688 34.12994754 232.27136197 34.12816742 229.86364746 34.12599182 C223.99323148 34.12189632 218.12282721 34.12250829 212.25241155 34.12540446 C207.48182552 34.12766079 202.71124307 34.12797002 197.94065666 34.12688065 C197.26225452 34.12672741 196.58385238 34.12657418 195.88489259 34.1264163 C194.50681512 34.12609658 193.12873765 34.12577237 191.75066017 34.12544371 C178.82052295 34.12259042 165.89039281 34.12587347 152.96025675 34.13124408 C141.86229489 34.13571097 130.7643435 34.13493684 119.66638184 34.13032532 C106.78476713 34.12497516 93.90315863 34.12286616 81.02154297 34.12593758 C79.64816566 34.12625614 78.27478836 34.12657051 76.90141106 34.12688065 C76.22565185 34.12703492 75.54989265 34.1271892 74.85365589 34.12734815 C70.08855292 34.12821205 65.32345388 34.12675312 60.55835152 34.12440109 C54.14557212 34.12130543 47.73280785 34.12350601 41.32003021 34.12929535 C38.96253683 34.13062069 36.60504179 34.13023264 34.24754906 34.12803268 C31.0370447 34.12531235 27.82660437 34.12871327 24.61610413 34.13371277 C23.67651952 34.13148205 22.73693491 34.12925133 21.76887804 34.12695301 C20.90933203 34.12956075 20.04978602 34.1321685 19.16419315 34.13485527 C18.42308641 34.13501762 17.68197966 34.13517998 16.91841513 34.13534725 C14.74711167 34.26719461 12.91448086 34.55871543 10.85412598 35.26069641 Z M13.85412598 217.26069641 C13.75538782 219.25869213 13.72440799 221.26026799 13.72912598 223.26069641 C13.72654785 224.35382141 13.72396973 225.44694641 13.72131348 226.57319641 C13.54864843 229.17899995 13.54864843 229.17899995 14.85412598 230.26069641 C17.81117918 230.3493794 20.74477654 230.37589937 23.70178223 230.35835266 C24.58820908 230.35693771 25.47463593 230.35552277 26.38792419 230.35406494 C29.23085852 230.34844857 32.07371529 230.33589332 34.91662598 230.32319641 C36.83915088 230.31818352 38.76167702 230.31362025 40.6842041 230.30952454 C45.40754147 230.29847382 50.13082056 230.28119824 54.85412598 230.26069641 C56.68382069 226.04223359 57.20363256 222.8916587 56.85412598 218.26069641 C54.18516166 215.5917321 52.1828919 216.0224518 48.55455017 216.00845337 C47.26231285 216.01923164 47.26231285 216.01923164 45.94396973 216.03022766 C45.0613295 216.03068588 44.17868927 216.0311441 43.26930237 216.03161621 C41.40229957 216.03463954 39.53529931 216.04252824 37.66833496 216.05488586 C34.79983659 216.07314415 31.93166076 216.07539557 29.06311035 216.07514954 C27.25256067 216.08006453 25.44201318 216.08589277 23.63146973 216.09272766 C22.76795395 216.09384048 21.90443817 216.09495331 21.01475525 216.09609985 C17.12135741 215.74301047 17.12135741 215.74301047 13.85412598 217.26069641 Z M84.85412598 216.26069641 C82.7647173 219.39480943 82.58048186 220.23520113 82.60412598 223.82319641 C82.59896973 224.60823547 82.59381348 225.39327454 82.58850098 226.20210266 C82.66983335 228.48360609 82.66983335 228.48360609 84.85412598 230.26069641 C87.62748025 230.46051666 90.29882241 230.54048841 93.07287598 230.52632141 C93.8865564 230.52823486 94.70023682 230.53014832 95.53857422 230.53211975 C97.26013498 230.53348168 98.981706 230.52978469 100.70324707 230.5214386 C103.34361767 230.51073899 105.98330787 230.52133341 108.62365723 230.53413391 C110.29423165 230.53281232 111.96480565 230.53024993 113.63537598 230.52632141 C114.82447571 230.5323941 114.82447571 230.5323941 116.03759766 230.53858948 C120.41340025 230.67173764 120.41340025 230.67173764 123.85412598 228.26069641 C124.13542063 225.62630291 124.13542063 225.62630291 124.04162598 222.69819641 C124.03195801 221.21126282 124.03195801 221.21126282 124.02209473 219.69429016 C124.12538032 217.31303769 124.12538032 217.31303769 122.85412598 216.26069641 C120.0659074 216.1348519 117.30379887 216.07203294 114.51428223 216.05757141 C113.67699081 216.05187134 112.8396994 216.04617126 111.97703552 216.04029846 C110.20243601 216.03083487 108.42781882 216.0243091 106.65319824 216.02046204 C103.93145274 216.01074932 101.21045988 215.97973654 98.4888916 215.94819641 C96.76819298 215.94166742 95.04748894 215.93641654 93.32678223 215.93257141 C92.50903824 215.92022461 91.69129425 215.90787781 90.84877014 215.89515686 C88.31493109 215.87001808 88.31493109 215.87001808 84.85412598 216.26069641 Z M153.85412598 218.26069641 C153.57283132 220.89508991 153.57283132 220.89508991 153.66662598 223.82319641 C153.67307129 224.81448547 153.6795166 225.80577454 153.68615723 226.82710266 C153.58287163 229.20835513 153.58287163 229.20835513 154.85412598 230.26069641 C157.65406195 230.36172896 160.42881241 230.40039729 163.22912598 230.39350891 C164.06878906 230.39446564 164.90845215 230.39542236 165.77355957 230.39640808 C167.55236892 230.39708989 169.33118075 230.39523558 171.10998535 230.3910675 C173.84246374 230.38571924 176.57477774 230.39101247 179.30725098 230.39741516 C181.03120967 230.39675438 182.75516827 230.39547322 184.47912598 230.39350891 C185.30203125 230.39553314 186.12493652 230.39755737 186.97277832 230.39964294 C190.71792464 230.74645101 190.71792464 230.74645101 193.85412598 229.26069641 C194.30204272 227.46036009 194.68872538 225.64454246 195.04162598 223.82319641 C195.24143066 222.83448547 195.44123535 221.84577454 195.64709473 220.82710266 C195.71541504 219.9801886 195.78373535 219.13327454 195.85412598 218.26069641 C193.25106706 215.6576375 191.43134059 216.01244663 187.88513184 215.98280334 C186.66322144 215.98887604 186.66322144 215.98887604 185.41662598 215.99507141 C184.16281128 215.99220123 184.16281128 215.99220123 182.88366699 215.98927307 C181.11502787 215.98791106 179.34637875 215.99160865 177.57775879 215.99995422 C174.86496604 216.01065366 172.15283554 216.00005965 169.44006348 215.98725891 C167.72391618 215.9885805 166.00776929 215.99114289 164.29162598 215.99507141 C163.47701904 215.99102295 162.66241211 215.98697449 161.82312012 215.98280334 C157.36704813 215.83504206 157.36704813 215.83504206 153.85412598 218.26069641 Z M221.85412598 217.26069641 C221.30872983 219.24570088 221.30872983 219.24570088 221.10412598 221.57319641 C221.00615723 222.35307922 220.90818848 223.13296204 220.80725098 223.93647766 C220.86053613 226.57853299 221.61898209 227.96309894 222.85412598 230.26069641 C228.21094731 230.33481691 233.5674706 230.38928417 238.92468262 230.42549133 C240.74732665 230.44058401 242.56993433 230.46106036 244.39245605 230.48701477 C247.01128098 230.52337744 249.62962605 230.54041765 252.24865723 230.55366516 C253.47223686 230.57689095 253.47223686 230.57689095 254.72053528 230.60058594 C258.93973488 230.72640546 258.93973488 230.72640546 262.57292175 228.89224243 C264.36599601 226.60885691 264.18763335 224.99999946 264.10412598 222.13569641 C264.08865723 221.24624329 264.07318848 220.35679016 264.05725098 219.44038391 C264.09024729 217.28400263 264.09024729 217.28400263 262.85412598 216.26069641 C259.99316974 216.15960255 257.15686541 216.12100213 254.29553223 216.12788391 C253.43604477 216.12692719 252.57655731 216.12597046 251.69102478 216.12498474 C249.86933316 216.12430284 248.04763913 216.1261578 246.22595215 216.13032532 C243.43203277 216.13566696 240.63827465 216.13038403 237.84436035 216.12397766 C236.07808395 216.12463857 234.31180766 216.12591999 232.54553223 216.12788391 C231.70591446 216.12585968 230.86629669 216.12383545 230.00123596 216.12174988 C225.79391129 216.02281331 225.79391129 216.02281331 221.85412598 217.26069641 Z M13.85412598 252.26069641 C12.21924517 255.97633461 12.52158786 260.4945229 13.85412598 264.26069641 C16.66857657 267.8566004 18.10628539 269.14040034 22.67883301 269.87593079 C24.15642553 269.89527774 25.63457016 269.8866461 27.11193848 269.85444641 C27.89680634 269.85448669 28.68167419 269.85452698 29.49032593 269.85456848 C31.1427617 269.84922485 32.79519782 269.83169135 34.4473877 269.8026886 C36.97828561 269.76071035 39.50653122 269.76163202 42.03771973 269.76850891 C43.64581115 269.75801984 45.25388887 269.74508324 46.86193848 269.72944641 C47.6182254 269.729245 48.37451233 269.72904358 49.15371704 269.72883606 C53.23681383 269.64319778 53.23681383 269.64319778 56.84240723 267.90718079 C58.42822537 265.32639953 58.01258492 263.22611307 57.72912598 260.26069641 C57.64404785 259.20882141 57.55896973 258.15694641 57.47131348 257.07319641 C56.79262156 253.9804231 56.27919892 253.18291018 53.85412598 251.26069641 C50.93556249 250.98672337 48.23503581 250.88809148 45.31896973 250.93257141 C44.48450821 250.93444458 43.65004669 250.93631775 42.79029846 250.93824768 C41.02759806 250.94496669 39.26491254 250.95887827 37.50231934 250.97944641 C34.79848436 251.01061734 32.09523224 251.0204191 29.39123535 251.02632141 C27.67963967 251.03549087 25.96804994 251.04586646 24.25646973 251.05757141 C23.03926491 251.06394623 23.03926491 251.06394623 21.79747009 251.07044983 C17.69344753 251.02488878 17.69344753 251.02488878 13.85412598 252.26069641 Z M82.34411621 253.04341125 C80.13753689 256.32706738 80.21734674 259.48497014 80.85412598 263.26069641 C82.5838031 267.00617246 82.5838031 267.00617246 85.85412598 269.26069641 C88.59061284 269.35971587 91.3010838 269.40052463 94.03771973 269.39350891 C94.84902847 269.39446564 95.66033722 269.39542236 96.49623108 269.39640808 C98.21359332 269.39708912 99.93095813 269.39524013 101.64831543 269.3910675 C104.27752474 269.38572506 106.90656268 269.39101148 109.5357666 269.39741516 C111.20308469 269.39675423 112.87040267 269.39547276 114.53771973 269.39350891 C115.71907753 269.39654526 115.71907753 269.39654526 116.92430115 269.39964294 C120.1614855 269.38574249 122.76098098 269.29174474 125.85412598 268.26069641 C125.93489561 265.80170986 125.99449741 263.34535899 126.04162598 260.88569641 C126.0667627 260.18702454 126.09189941 259.48835266 126.11779785 258.76850891 C126.18391159 256.49321964 126.18391159 256.49321964 125.85412598 253.26069641 C122.0194048 250.70421562 118.83812578 250.93708698 114.38928223 250.92475891 C113.55956406 250.91810211 112.72984589 250.91144531 111.87498474 250.90458679 C110.12073991 250.8944653 108.36645662 250.88976962 106.61218262 250.89009094 C103.92981492 250.88571791 101.24909312 250.84939557 98.5670166 250.81147766 C96.8619441 250.80560932 95.15686379 250.80164004 93.45178223 250.79975891 C92.65063492 250.78538788 91.84948761 250.77101685 91.02406311 250.75621033 C87.46199011 250.78540353 85.28610512 250.9538866 82.34411621 253.04341125 Z M151.14489746 252.62405396 C149.29509128 254.96952824 149.42063194 256.74580299 149.41662598 259.69819641 C149.39729004 260.64565735 149.3779541 261.59311829 149.35803223 262.56929016 C150.01702657 266.14446421 150.93253401 267.09630147 153.85412598 269.26069641 C156.85988825 269.62192081 159.48851124 269.75174901 162.48693848 269.68647766 C163.73650833 269.68154549 163.73650833 269.68154549 165.01132202 269.67651367 C166.76808512 269.66610833 168.52481422 269.64618453 170.28137207 269.61738586 C172.97638743 269.57324127 175.67051227 269.55593885 178.36584473 269.54389954 C180.07288889 269.53047802 181.77992205 269.51555576 183.48693848 269.49897766 C184.2952713 269.49159073 185.10360413 269.4842038 185.93643188 269.47659302 C190.02758722 269.50057682 190.02758722 269.50057682 193.85412598 268.26069641 C193.93489561 265.80170986 193.99449741 263.34535899 194.04162598 260.88569641 C194.0667627 260.18702454 194.09189941 259.48835266 194.11779785 258.76850891 C194.18391159 256.49321964 194.18391159 256.49321964 193.85412598 253.26069641 C190.006777 250.69579709 186.81589273 250.95487182 182.35412598 250.95991516 C181.52203613 250.95563004 180.68994629 250.95134491 179.8326416 250.94692993 C178.07418731 250.94118948 176.31570928 250.94068428 174.55725098 250.94502258 C171.86413199 250.94818466 169.1721093 250.92471343 166.47912598 250.89936829 C164.77079403 250.8970955 163.06245913 250.8963917 161.35412598 250.89741516 C160.54781738 250.88820541 159.74150879 250.87899567 158.9107666 250.86950684 C154.73545771 250.78956468 154.73545771 250.78956468 151.14489746 252.62405396 Z M219.85412598 253.26069641 C219.33602066 256.01367577 219.33602066 256.01367577 219.41662598 259.13569641 C219.39729004 260.18499329 219.3779541 261.23429016 219.35803223 262.31538391 C219.99172504 266.07762314 220.79017382 267.00287466 223.85412598 269.26069641 C226.84692928 269.64621705 229.46292565 269.79870099 232.45178223 269.75679016 C233.69779457 269.75897301 233.69779457 269.75897301 234.96897888 269.76119995 C236.72150182 269.75954279 238.47403958 269.7480019 240.22644043 269.72724915 C242.9109054 269.69825819 245.59339947 269.70665016 248.2779541 269.71968079 C249.98173975 269.71344421 251.68551916 269.7050539 253.38928223 269.69429016 C254.59403954 269.69869362 254.59403954 269.69869362 255.82313538 269.70318604 C260.08672431 269.65880554 260.08672431 269.65880554 263.87634277 267.91157532 C265.42131802 265.30305531 264.93492213 263.15738373 264.60412598 260.19819641 C264.49584473 259.13471985 264.38756348 258.07124329 264.27600098 256.97554016 C264.00168136 254.30200044 264.00168136 254.30200044 262.85412598 252.26069641 C259.0705082 250.99949049 255.51528756 251.09832049 251.57287598 251.09272766 C250.76298218 251.08939926 249.95308838 251.08607086 249.11865234 251.0826416 C247.40727303 251.07758182 245.69588386 251.07523298 243.98449707 251.07539368 C241.36405256 251.0732047 238.7440274 251.05503244 236.12365723 251.03608704 C234.46089825 251.03315344 232.79813727 251.03116842 231.13537598 251.03022766 C230.35094116 251.02304214 229.56650635 251.01585663 228.75830078 251.00845337 C224.92247857 251.02460069 223.12257769 251.0817286 219.85412598 253.26069641 Z M93.25256348 331.22944641 C90.61707383 332.36262111 87.94499706 333.27554432 85.22912598 334.19819641 C80.99190369 335.71234505 77.40213902 337.55568298 73.70568848 340.11225891 C71.85412598 341.26069641 71.85412598 341.26069641 69.52209473 342.14350891 C63.81286401 344.53419703 58.87422175 348.67060388 53.85412598 352.26069641 C52.55475098 353.17915344 52.55475098 353.17915344 51.22912598 354.11616516 C48.45614135 356.08379656 48.45614135 356.08379656 45.85412598 358.26069641 C45.85412598 358.92069641 45.85412598 359.58069641 45.85412598 360.26069641 C44.86412598 360.59069641 43.87412598 360.92069641 42.85412598 361.26069641 C42.85412598 361.92069641 42.85412598 362.58069641 42.85412598 363.26069641 C41.86412598 363.59069641 40.87412598 363.92069641 39.85412598 364.26069641 C39.85412598 364.92069641 39.85412598 365.58069641 39.85412598 366.26069641 C38.86412598 366.59069641 37.87412598 366.92069641 36.85412598 367.26069641 C34.70001855 369.72768357 34.70001855 369.72768357 32.54162598 372.76069641 C32.14354736 373.30460022 31.74546875 373.84850403 31.33532715 374.40888977 C22.42309557 386.66118145 15.5981454 399.24667312 9.85412598 413.26069641 C9.49834473 414.12307922 9.14256348 414.98546204 8.77600098 415.87397766 C2.22142348 432.84366769 2.1283918 452.38286597 3.85412598 470.26069641 C3.98036639 472.6772986 4.10539352 475.09396452 4.22912598 477.51069641 C4.91167076 486.75130268 7.1701855 495.2034363 10.79162598 503.71382141 C11.67017779 505.81976178 12.46798588 507.926419 13.24865723 510.06929016 C14.78644965 514.1915753 16.58094658 518.13628053 18.54162598 522.07319641 C18.88395264 522.76171692 19.2262793 523.45023743 19.57897949 524.15962219 C22.35440541 529.58911631 25.55769785 534.38939422 29.28771973 539.22163391 C30.85412598 541.26069641 30.85412598 541.26069641 31.85412598 543.26069641 C32.51412598 543.26069641 33.17412598 543.26069641 33.85412598 543.26069641 C34.11967285 543.8420636 34.38521973 544.42343079 34.65881348 545.02241516 C35.89508738 547.33739864 37.25214721 549.10122763 38.97912598 551.07319641 C39.5179541 551.69839172 40.05678223 552.32358704 40.61193848 552.96772766 C56.04925977 568.7546747 73.68796348 579.57268436 94.35803223 586.99897766 C96.41523893 587.74141092 98.4643619 588.50840699 100.49084473 589.33100891 C127.25327724 599.85904021 160.92080432 594.7227306 186.85412598 584.26069641 C189.72343745 582.99702385 192.54482284 581.65228145 195.35412598 580.26069641 C196.00059082 579.94068665 196.64705566 579.62067688 197.31311035 579.29096985 C201.20711408 577.2915099 204.72673076 575.01592108 208.24597168 572.41596985 C209.85412598 571.26069641 209.85412598 571.26069641 212.49084473 569.71382141 C215.1824642 568.05880911 217.34698271 566.15421167 219.66662598 564.01069641 C222.7264973 561.20014794 225.80457331 558.44059491 228.97912598 555.76069641 C238.15398345 547.75119382 245.39164913 538.05528446 251.45959473 527.55757141 C252.85412598 525.26069641 252.85412598 525.26069641 254.41271973 523.24116516 C255.9361752 521.14796211 256.80867991 519.23834914 257.72912598 516.82319641 C258.06557129 515.94405579 258.4020166 515.06491516 258.74865723 514.15913391 C259.11346191 513.20264954 259.4782666 512.24616516 259.85412598 511.26069641 C260.47867676 509.73315735 260.47867676 509.73315735 261.11584473 508.17475891 C264.15338571 500.64019779 266.21009059 493.2052836 267.85412598 485.26069641 C268.20217285 484.01288391 268.55021973 482.76507141 268.90881348 481.47944641 C270.56883197 473.97122446 270.29457245 466.16439436 270.29162598 458.51069641 C270.29236115 457.68500153 270.29309631 456.85930664 270.29385376 456.0085907 C270.26304676 442.84506197 269.24190624 430.769908 264.85412598 418.26069641 C264.58116699 417.46163879 264.30820801 416.66258118 264.02697754 415.83930969 C256.97527627 395.57677518 246.06950934 378.38186487 230.97912598 363.13569641 C230.40734619 362.55465149 229.83556641 361.97360657 229.24645996 361.37495422 C226.55391617 358.28634354 226.55391617 358.28634354 222.85412598 357.26069641 C222.85412598 356.60069641 222.85412598 355.94069641 222.85412598 355.26069641 C219.22088909 352.29833946 219.22088909 352.29833946 214.85412598 351.26069641 C214.85412598 350.60069641 214.85412598 349.94069641 214.85412598 349.26069641 C207.69589519 344.17812816 199.82476024 339.91649434 191.85412598 336.26069641 C190.95564941 335.84046204 190.05717285 335.42022766 189.13146973 334.98725891 C182.11161145 331.86942145 175.06862628 329.88617806 167.61584473 328.15522766 C163.85412598 327.26069641 163.85412598 327.26069641 160.68933105 326.22358704 C156.25828659 325.11110124 152.27359316 324.95482463 147.72912598 324.95991516 C146.43228882 324.95348747 146.43228882 324.95348747 145.10925293 324.94692993 C143.28382233 324.94120954 141.45836894 324.9406694 139.63293457 324.94502258 C136.8898441 324.94815562 134.14786259 324.92478887 131.40490723 324.89936829 C118.08298369 324.85131691 105.61889048 325.80633955 93.25256348 331.22944641 Z " fill="#000000" transform="translate(43.1458740234375,77.73930358886719)"/>
<path d="M0 0 C0.86630854 -0.00226556 1.73261707 -0.00453111 2.62517738 -0.00686532 C5.53317211 -0.01320446 8.44112022 -0.01237602 11.34912109 -0.0115509 C13.43186504 -0.0145424 15.51460842 -0.0179449 17.59735107 -0.02172852 C23.25836223 -0.03057247 28.91935828 -0.03290676 34.58037567 -0.0335443 C39.30232465 -0.03449301 44.0242701 -0.03817078 48.74621773 -0.0417164 C59.88273421 -0.04986203 71.0192426 -0.05230049 82.15576172 -0.05158997 C93.65513088 -0.05098874 105.1544532 -0.06154922 116.6538105 -0.07733363 C126.51884241 -0.09039365 136.38385897 -0.09577453 146.24889946 -0.09513456 C152.14440431 -0.09487917 158.03986751 -0.09775294 163.93536377 -0.10831261 C169.47733393 -0.11796803 175.0192224 -0.11809038 180.56119537 -0.11079597 C182.59779224 -0.10974703 184.63439413 -0.11213128 186.67098236 -0.11815643 C189.44579112 -0.12583545 192.22031488 -0.12125881 194.99511719 -0.11352539 C195.80561838 -0.11866895 196.61611958 -0.12381252 197.45118141 -0.12911195 C201.34150539 -0.10506443 204.1624714 0.08141824 207.49755859 2.13371277 C208.69380859 2.44308777 209.89005859 2.75246277 211.12255859 3.07121277 C214.49755859 4.13371277 214.49755859 4.13371277 216.49755859 7.13371277 C216.75762081 9.08744812 216.75762081 9.08744812 216.77171326 11.34660339 C216.78168839 12.20463562 216.79166351 13.06266785 216.80194092 13.94670105 C216.80260559 14.88497742 216.80327026 15.82325378 216.80395508 16.78996277 C216.81227859 17.78044617 216.82060211 18.77092957 216.82917786 19.79142761 C216.85331446 23.07222904 216.86205347 26.35283192 216.86865234 29.63371277 C216.8776142 31.90910402 216.88673595 34.18449465 216.89601135 36.45988464 C216.91251269 41.23138361 216.92020386 46.0028123 216.9230957 50.77433777 C216.92848793 56.89827595 216.96619834 63.02155714 217.01183987 69.14530945 C217.04152866 73.84467504 217.04881744 78.54388066 217.04982185 83.24333191 C217.05403859 85.50166338 217.0665306 87.75999472 217.0873394 90.01823425 C217.11409039 93.17180787 217.10947716 96.32383499 217.09692383 99.47746277 C217.11917526 100.88487732 217.11917526 100.88487732 217.14187622 102.32072449 C217.07088583 108.5593851 217.07088583 108.5593851 214.46009827 111.17472839 C207.99678372 113.26692575 201.2986286 113.28150541 194.56793213 113.27415466 C193.27180956 113.27861135 193.27180956 113.27861135 191.94950271 113.28315806 C189.07260768 113.29178528 186.19575456 113.29334821 183.31884766 113.29484558 C181.24849357 113.29947793 179.17814034 113.30450315 177.10778809 113.30989075 C171.49606513 113.32297515 165.88435411 113.32945177 160.27261829 113.33390141 C156.7628164 113.33683808 153.25301773 113.34094396 149.74321747 113.34540558 C138.75054638 113.35906907 127.7578827 113.36874177 116.76520371 113.37260747 C104.09632339 113.3770878 91.42755099 113.39463944 78.75870347 113.42360806 C68.95121487 113.44525203 59.14375657 113.45531317 49.33624434 113.45664859 C43.48523156 113.45769451 37.63432037 113.46355735 31.78333282 113.4814682 C26.27737131 113.49799618 20.77158728 113.50008143 15.26560974 113.49132919 C13.25171685 113.49056139 11.23781422 113.49486738 9.22394562 113.50478745 C-11.17638996 113.59933669 -11.17638996 113.59933669 -20.50244141 110.13371277 C-21.50244141 109.13371277 -21.50244141 109.13371277 -21.62548923 107.40207577 C-21.62456744 106.64344014 -21.62364565 105.88480452 -21.62269592 105.10317993 C-21.62407059 104.2351474 -21.62544525 103.36711487 -21.62686157 102.47277832 C-21.6232663 101.51324753 -21.61967102 100.55371674 -21.6159668 99.56510925 C-21.61611282 98.56034546 -21.61625885 97.55558167 -21.6164093 96.52037048 C-21.61570971 93.18182759 -21.60791515 89.84333972 -21.60009766 86.50480652 C-21.59823364 84.19695059 -21.59680966 81.88909426 -21.59580994 79.58123779 C-21.59198345 73.49353451 -21.58215206 67.40585491 -21.57110596 61.31816101 C-21.56089464 55.11149923 -21.55631292 48.90483364 -21.55126953 42.69816589 C-21.5405299 30.51000442 -21.52345192 18.32186056 -21.50244141 6.13371277 C-20.08916012 5.31533835 -18.67165795 4.50425057 -17.25244141 3.69621277 C-16.06908203 3.01752136 -16.06908203 3.01752136 -14.86181641 2.32511902 C-10.01946902 -0.12010607 -5.3355999 -0.01019458 0 0 Z " fill="#000000" transform="translate(82.50244140625,128.8662872314453)"/>
<path d="M0 0 C1.94519531 0.21269531 1.94519531 0.21269531 3.9296875 0.4296875 C14.10545522 1.5782395 23.14605359 3.27103336 32.26171875 8.09375 C34.44576165 9.23239708 36.71031932 10.09617868 39 11 C43.41313657 13.04784475 47.18386757 15.44225341 51.0625 18.375 C52.06410156 19.12523437 53.06570312 19.87546875 54.09765625 20.6484375 C58.40592966 24.13912471 61.50383386 27.00766772 64 32 C10.87 32 -42.26 32 -97 32 C-95.58857885 24.94289426 -91.62808555 23.07052693 -86 19 C-85.27167969 18.45988281 -84.54335937 17.91976563 -83.79296875 17.36328125 C-77.62525437 13.00354251 -70.92098021 9.9737204 -64 7 C-63.30132812 6.690625 -62.60265625 6.38125 -61.8828125 6.0625 C-46.50179529 -0.27474314 -29.25139612 -0.18130302 -12.87109375 0.04296875 C-0.95672465 -0.13534154 -0.95672465 -0.13534154 0 0 Z " fill="#000000" transform="translate(199,424)"/>
<path d="M0 0 C28.24145572 -0.07000601 56.48289848 -0.12294689 84.72442341 -0.15543652 C97.83673817 -0.17092134 110.94899909 -0.1920417 124.0612793 -0.22631836 C135.4867143 -0.25617128 146.91211033 -0.27556324 158.33758324 -0.28226548 C164.39020275 -0.28618471 170.44271073 -0.29542892 176.49529457 -0.31719017 C182.18742601 -0.33749045 187.87939953 -0.34384691 193.57156372 -0.33932304 C195.66502426 -0.34015115 197.75848985 -0.34615505 199.85191917 -0.35761642 C202.70183513 -0.37245946 205.55114846 -0.36898364 208.40107727 -0.36076355 C209.65447315 -0.37387134 209.65447315 -0.37387134 210.93319017 -0.38724393 C216.57378744 -0.34302102 216.57378744 -0.34302102 218.62550706 1.30822772 C220.79323886 3.97634515 221.86843197 6.77503113 223 10 C222.578125 12.22265625 222.578125 12.22265625 222 14 C193.07206707 14.02332523 164.14413554 14.04097732 135.21619511 14.05181217 C132.54622967 14.0528387 129.87626425 14.05387339 127.20629883 14.05493164 C126.54264466 14.05519395 125.87899049 14.05545626 125.19522559 14.05572652 C114.43559831 14.06008323 103.67597634 14.06797078 92.91635222 14.0771528 C81.88403659 14.08648932 70.85172391 14.09198071 59.81940454 14.09408849 C53.61933936 14.09539602 47.41928625 14.09848448 41.21922493 14.10573006 C35.39088814 14.11248644 29.56256847 14.11461774 23.73422813 14.11310768 C21.58833346 14.11338418 19.44243824 14.11539156 17.29654694 14.11920547 C14.38042082 14.12413676 11.46436048 14.12300039 8.54823303 14.12025452 C7.68735535 14.12316736 6.82647767 14.1260802 5.93951279 14.12908131 C0.11412121 14.11412121 0.11412121 14.11412121 -1 13 C-1.09879565 11.189715 -1.12971514 9.37547273 -1.125 7.5625 C-1.12757812 6.57378906 -1.13015625 5.58507812 -1.1328125 4.56640625 C-1 2 -1 2 0 0 Z " fill="#000000" transform="translate(71,499)"/>
<path d="M0 0 C28.90143462 -0.02279016 57.80286819 -0.04049807 86.70431003 -0.05106533 C90.11285058 -0.0523161 93.52139111 -0.05361042 96.92993164 -0.05493164 C97.60853888 -0.05519395 98.28714613 -0.05545626 98.98631722 -0.05572652 C109.98843919 -0.06008325 120.99055595 -0.06797081 131.99267482 -0.0771528 C143.27359296 -0.08648925 154.55450849 -0.09198069 165.83543068 -0.09408849 C172.17522414 -0.09539603 178.51500578 -0.09848456 184.85479546 -0.10573006 C190.81445628 -0.11248633 196.77410036 -0.11461777 202.73376465 -0.11310768 C204.92803602 -0.11338419 207.12230793 -0.11539163 209.316576 -0.11920547 C212.29838756 -0.12413659 215.28013478 -0.12300045 218.26194763 -0.12025452 C219.14228005 -0.12316736 220.02261248 -0.1260802 220.92962164 -0.12908131 C226.88587879 -0.11412121 226.88587879 -0.11412121 228 1 C229.19565217 8.41304348 229.19565217 8.41304348 228 12 C199.09856538 12.02279016 170.19713181 12.04049807 141.29568997 12.05106533 C137.88714942 12.0523161 134.47860889 12.05361042 131.07006836 12.05493164 C130.39146112 12.05519395 129.71285387 12.05545626 129.01368278 12.05572652 C118.01156081 12.06008325 107.00944405 12.06797081 96.00732518 12.0771528 C84.72640704 12.08648925 73.44549151 12.09198069 62.16456932 12.09408849 C55.82477586 12.09539603 49.48499422 12.09848456 43.14520454 12.10573006 C37.18554372 12.11248633 31.22589964 12.11461777 25.26623535 12.11310768 C23.07196398 12.11338419 20.87769207 12.11539163 18.683424 12.11920547 C15.70161244 12.12413659 12.71986522 12.12300045 9.73805237 12.12025452 C8.85771995 12.12316736 7.97738752 12.1260802 7.07037836 12.12908131 C1.11412121 12.11412121 1.11412121 12.11412121 0 11 C-0.07226502 9.14712498 -0.0838122 7.29166122 -0.0625 5.4375 C-0.05347656 4.42558594 -0.04445313 3.41367187 -0.03515625 2.37109375 C-0.02355469 1.58863281 -0.01195313 0.80617188 0 0 Z " fill="#000000" transform="translate(67,528)"/>
<path d="M0 0 C73.59 0 147.18 0 223 0 C224.21386936 3.64160808 223.6674695 4.33165469 222.0625 7.6875 C221.49208984 8.89986328 221.49208984 8.89986328 220.91015625 10.13671875 C220.45962891 11.05904297 220.45962891 11.05904297 220 12 C191.75855887 12.0933413 163.51714077 12.16392913 135.27557659 12.20724869 C122.16323892 12.22789516 109.05099695 12.25605561 95.9387207 12.30175781 C84.51328543 12.34156171 73.08791944 12.36741763 61.66241676 12.37635398 C55.60975909 12.38157964 49.5572997 12.39390517 43.50470543 12.42292023 C37.81254155 12.44998742 32.1206584 12.4584626 26.42843628 12.45243073 C24.33496896 12.45353486 22.24149265 12.4615402 20.14808083 12.4768219 C17.298012 12.49661368 14.4490144 12.49197882 11.59892273 12.48101807 C10.76332547 12.49266943 9.92772822 12.5043208 9.06680983 12.51632524 C5.83594219 12.48255142 3.59546623 12.44718102 0.96256733 10.46993637 C0 8 0 8 0 0 Z " fill="#000000" transform="translate(70,557)"/>
<path d="M0 0 C68.31 0 136.62 0 207 0 C207 4.11118163 206.70922953 4.94612084 204.5625 8.1875 C203.88380859 9.22970703 203.88380859 9.22970703 203.19140625 10.29296875 C202 12 202 12 201 13 C198.50275555 13.10437709 196.03292621 13.14332828 193.53494263 13.14044189 C192.74399574 13.14341302 191.95304886 13.14638414 191.13813388 13.1494453 C188.46724153 13.1581706 185.79639379 13.15964376 183.12548828 13.16113281 C181.2189016 13.16575827 179.31231586 13.17078256 177.4057312 13.17617798 C172.21154012 13.18932999 167.01736198 13.19575234 161.82315683 13.20018864 C158.58164577 13.20311477 155.34013827 13.20721868 152.098629 13.21169281 C141.96719126 13.22537493 131.83576165 13.23503816 121.7043153 13.2388947 C109.98951944 13.2433778 98.27484011 13.26093443 86.56007969 13.2898953 C77.51804682 13.31147658 68.47604682 13.32159707 59.43398845 13.32293582 C54.02749147 13.32398638 48.62110392 13.32994719 43.21463394 13.34775543 C38.13066738 13.36417488 33.04689324 13.36642158 27.9629097 13.35761642 C26.09359728 13.35684276 24.22427477 13.36123184 22.3549881 13.37107468 C19.80943442 13.38369565 17.26457248 13.37797163 14.71902466 13.36749268 C13.97360133 13.37554908 13.22817801 13.38360548 12.4601661 13.39190602 C7.46343557 13.34356367 7.46343557 13.34356367 5.09055901 11.58445358 C0 4.18847188 0 4.18847188 0 0 Z " fill="#000000" transform="translate(77,584)"/>
<path d="M0 0 C0.77591368 -0.01147664 1.55182736 -0.02295328 2.35125357 -0.0347777 C4.94805341 -0.06570539 7.54285534 -0.0538075 10.13978577 -0.04188538 C12.00270426 -0.05492869 13.86560665 -0.07047881 15.72848511 -0.08834839 C20.78646306 -0.12853255 25.84376877 -0.13025343 30.90187526 -0.12265849 C35.12418842 -0.11945036 39.34636535 -0.13409666 43.56864935 -0.14847475 C53.529314 -0.18176475 63.48963926 -0.18306998 73.45033264 -0.16493225 C83.72715972 -0.14680669 94.00275523 -0.18375769 104.27937216 -0.24764246 C113.10250359 -0.30047527 121.92524282 -0.31849729 130.74852663 -0.30872923 C136.01842102 -0.30328768 141.28743681 -0.31122545 146.55718803 -0.35287285 C151.51294694 -0.3905731 156.46678493 -0.38481674 161.42251396 -0.34564018 C163.24058172 -0.33853581 165.05878417 -0.34677392 166.87669754 -0.37150955 C180.58462098 -0.54457198 180.58462098 -0.54457198 184.66661263 2.75480461 C187.05786734 6.17019415 188.22596741 8.59026868 188.22596741 12.78208923 C162.64399052 12.8287962 137.06202001 12.8640717 111.48000908 12.88571358 C99.60201976 12.89602906 87.72405692 12.91009463 75.84608459 12.93296814 C65.49405307 12.95289364 55.14204072 12.96580369 44.78999054 12.97026622 C39.30795106 12.97287502 33.82596646 12.97901255 28.34394455 12.99354935 C23.18450854 13.00711994 18.02515003 13.01131291 12.86569786 13.0083046 C10.97184643 13.00885499 9.07799242 13.01283552 7.18415642 13.02050018 C4.5981345 13.03045321 2.01240505 13.02805678 -0.57362366 13.02259827 C-1.32266342 13.02842395 -2.07170319 13.03424963 -2.84344113 13.04025185 C-7.19623902 13.01542533 -10.72674614 12.38469802 -14.77403259 10.78208923 C-11.59336586 3.26414967 -8.21277326 -0.12921618 0 0 Z " fill="#000000" transform="translate(93.77403259277344,471.21791076660156)"/>
<path d="M0 0 C55.11 0 110.22 0 167 0 C165.64720103 5.41119587 163.59840538 8.75414085 159 12 C154.16381978 13.17183842 149.36883229 13.0652181 144.42333984 12.98754883 C142.94273684 12.99348378 141.46214427 13.00286789 139.98158264 13.01542664 C135.97495253 13.03901456 131.97008044 13.01266857 127.96360731 12.97580934 C123.76591376 12.94431311 119.56829495 12.95437717 115.37051392 12.95866394 C108.32419029 12.95949228 101.27855366 12.92871046 94.23242188 12.87817383 C86.08930749 12.82007125 77.94713078 12.80782895 69.80384099 12.8210333 C61.96286628 12.83303651 54.12221604 12.81662871 46.28129959 12.78589439 C42.94723995 12.77308488 39.61335871 12.76948768 36.2792778 12.77317238 C32.35383859 12.77593696 28.42931357 12.75358288 24.50410271 12.71188545 C23.06461325 12.700491 21.62502823 12.69754115 20.18550682 12.70369339 C18.21918767 12.71064223 16.25283607 12.68370565 14.28671265 12.65510559 C13.18688742 12.64932401 12.08706219 12.64354242 10.95390892 12.63758564 C7.02339362 11.78920467 5.51474967 10.06760948 3 7 C2.67 6.01 2.34 5.02 2 4 C1.34 4 0.68 4 0 4 C0 2.68 0 1.36 0 0 Z " fill="#000000" transform="translate(97,613)"/>
<path d="M0 0 C2.69990662 1.79993774 4.5418865 3.083773 6 6 C6.11197724 7.3364858 6.16642772 8.67807204 6.18945312 10.01904297 C6.20617065 10.84685272 6.22288818 11.67466248 6.2401123 12.52755737 C6.25368774 13.42338531 6.26726318 14.31921326 6.28125 15.2421875 C6.30886414 16.62206345 6.30886414 16.62206345 6.33703613 18.02981567 C6.39588838 20.97814434 6.44864299 23.92653181 6.5 26.875 C6.56769472 30.74751733 6.64141751 34.61985204 6.71875 38.4921875 C6.73232544 39.38396698 6.74590088 40.27574646 6.7598877 41.19454956 C6.77660522 42.02866364 6.79332275 42.86277771 6.81054688 43.72216797 C6.82307495 44.4533786 6.83560303 45.18458923 6.84851074 45.93795776 C7.08215258 49.11824489 7.389789 51.32386168 9.5546875 53.72265625 C13.00322948 55.52405118 16.32423152 55.40013173 20.125 55.4375 C27.57681878 55.68658145 35.03265332 56.31477575 40.7578125 61.6328125 C41.16773438 62.08398438 41.57765625 62.53515625 42 63 C41.67 63.99 41.34 64.98 41 66 C40.03811768 66.01981934 39.07623535 66.03963867 38.08520508 66.06005859 C34.45249004 66.13720843 30.82011995 66.22573772 27.18774414 66.31738281 C25.627593 66.35522798 24.06736768 66.39015042 22.50708008 66.421875 C13.76876275 66.60164109 5.30973107 67.01759462 -3.31860352 68.56616211 C-6.95689854 69.15482188 -10.32410802 69.21207069 -14 69 C-16.52146392 66.47853608 -15.18557023 59.57037881 -15.1875 56.1875 C-15.19974609 55.10017578 -15.21199219 54.01285156 -15.22460938 52.89257812 C-15.23622585 46.375734 -14.64954637 40.3146899 -13.46118164 33.91333008 C-12.57216765 28.29734068 -12.64090606 22.61309063 -12.609375 16.9375 C-12.44775862 10.58058922 -11.34970192 6.44483384 -8 1 C-5.14675563 -0.42662219 -3.16545451 -0.31033868 0 0 Z " fill="#000000" transform="translate(261,0)"/>
<path d="M0 0 C30.03 0 60.06 0 91 0 C73.5955041 13.05337193 47.14039518 11.79578917 26.56787109 9.06689453 C17.12894305 7.67232387 8.466721 5.55900362 0 1 C0 0.67 0 0.34 0 0 Z " fill="#000000" transform="translate(135,642)"/>
</svg>
