<?xml version="1.0" encoding="UTF-8"?>
<svg version="1.1" xmlns="http://www.w3.org/2000/svg" width="446" height="614">
<path d="M0 0 C0.67160156 0.07605469 1.34320313 0.15210937 2.03515625 0.23046875 C4.45648372 0.97128557 5.3622642 1.83371321 6.9375 3.8125 C7.31009549 6.0061118 7.31009549 6.0061118 7.30664349 8.61697674 C7.31261663 9.61223423 7.31858978 10.60749172 7.32474393 11.63290852 C7.3160054 12.72919931 7.30726688 13.82549011 7.29826355 14.95500183 C7.30082682 16.11729398 7.3033901 17.27958612 7.30603105 18.47709924 C7.31012647 21.70850185 7.30071927 24.93954579 7.28569686 28.17090595 C7.27276628 31.65350338 7.27712384 35.13608345 7.27940369 38.61869812 C7.28097831 44.65428336 7.2715494 50.68977146 7.25469017 56.72533226 C7.23033031 65.45177137 7.222498 74.17816342 7.2187262 82.90463284 C7.21215697 97.0620182 7.19218305 111.21935176 7.16381836 125.37670898 C7.13628997 139.13093811 7.11505042 152.88515319 7.10229492 166.6394043 C7.10150675 167.48692287 7.10071858 168.33444144 7.09990653 169.2076424 C7.09599147 173.45930664 7.09220033 177.71097099 7.08847082 181.9626354 C7.05736024 217.24596053 7.00451164 252.52922549 6.9375 287.8125 C5.35033382 287.83627636 3.76306357 287.85316481 2.17578125 287.8671875 C1.29188721 287.87733887 0.40799316 287.88749023 -0.50268555 287.89794922 C-3.3987261 287.80127643 -6.01619616 287.18362061 -8.796875 286.38671875 C-13.79789497 285.11921886 -18.96041527 284.54312344 -24.0625 283.8125 C-25.57650391 283.55146484 -25.57650391 283.55146484 -27.12109375 283.28515625 C-32.92202255 282.58950473 -38.72554696 282.48214234 -44.5625 282.3125 C-51.47614077 282.11156534 -58.2191447 281.8739536 -65.0625 280.8125 C-67.41484238 280.70073125 -69.77003993 280.63803965 -72.125 280.625 C-73.87490234 280.60373047 -73.87490234 280.60373047 -75.66015625 280.58203125 C-79.16867228 280.81969192 -81.84567785 281.40012141 -85.0625 282.8125 C-86.68021036 285.91311152 -87.41179337 287.66935805 -86.375 291.0625 C-83.47049082 294.9351789 -79.59173203 295.61262235 -75.125 296.8125 C-68.45268851 298.6086217 -68.45268851 298.6086217 -66.12670898 299.82397461 C-62.33893211 301.63789638 -58.19490325 301.85446591 -54.0625 302.375 C-53.03229736 302.50575928 -52.00209473 302.63651855 -50.94067383 302.77124023 C-39.64426905 304.06617593 -28.3447345 304.24846345 -16.98876953 304.46679688 C-9.42034656 304.61912281 -1.94770705 304.85188572 5.5625 305.875 C14.65893975 307.08266673 23.77726865 307.03774518 32.9375 307.0625 C34.09248993 307.07012863 34.09248993 307.07012863 35.27081299 307.07791138 C37.47239535 307.08965668 39.67341229 307.08658569 41.875 307.078125 C43.80666016 307.07474121 43.80666016 307.07474121 45.77734375 307.07128906 C49.09671853 307.05658822 49.09671853 307.05658822 51.9375 304.8125 C52.68835106 302.39986705 52.68835106 302.39986705 51.9375 299.8125 C47.27948666 295.01748627 41.50043695 294.97455306 35.08203125 294.3046875 C31.9375 293.8125 31.9375 293.8125 28.9375 291.8125 C27.28200469 291.42750109 25.6152567 291.08456865 23.9375 290.8125 C22.76178725 287.28536175 22.81160259 284.51052173 22.81051636 280.78607178 C22.80895637 280.06493423 22.80739638 279.34379668 22.80578911 278.60080647 C22.8017886 276.17362908 22.8049663 273.74651385 22.80810547 271.31933594 C22.80675001 269.57830265 22.80496926 267.83726964 22.80279541 266.09623718 C22.79820997 261.33245368 22.80002257 256.56869171 22.8031745 251.8049078 C22.80572577 246.73266992 22.80334986 241.66043376 22.80178833 236.5881958 C22.79996077 227.97920409 22.80237379 219.37022089 22.80712891 210.76123047 C22.81185349 202.11246165 22.81205928 193.46371012 22.80712891 184.81494141 C22.77463989 126.4737414 23.11248677 68.14805228 23.9375 9.8125 C40.50876233 16.85652028 40.50876233 16.85652028 44.9375 24.8125 C46.76441137 34.25637464 46.06728633 44.3644093 46.03515625 53.96142578 C46.03323243 55.66216996 46.03177083 57.36291472 46.0307312 59.06365967 C46.02758425 62.71382843 46.0213344 66.36397368 46.01266479 70.01413345 C45.99896279 75.85307881 45.99320699 81.69201674 45.98852539 87.53097534 C45.97652883 101.03995856 45.95482293 114.54892268 45.93229675 128.05789185 C45.77311485 190.74546728 45.77311485 190.74546728 46.3125 253.4296875 C46.32787811 254.64145786 46.34325623 255.85322823 46.35910034 257.1017189 C46.40326865 260.41298747 46.46065302 263.72370689 46.5234375 267.03466797 C46.53499374 267.98427776 46.54654999 268.93388756 46.55845642 269.91227341 C46.57832108 270.77410862 46.59818573 271.63594383 46.61865234 272.52389526 C46.63863785 273.63139791 46.63863785 273.63139791 46.6590271 274.76127434 C46.98347368 277.15114115 47.6628592 278.77063716 48.9375 280.8125 C49.63875 281.080625 50.34 281.34875 51.0625 281.625 C57.50345043 284.28539257 62.58000018 289.3823653 65.3046875 295.7890625 C67.2519011 302.01533808 66.19297174 305.87367234 63.375 311.5625 C60.06071955 317.21949878 56.97700602 319.7494721 50.5625 321.4375 C50.02625 321.56125 49.49 321.685 48.9375 321.8125 C47.76817528 324.15114944 47.81816147 325.4919498 47.82841873 328.09676552 C47.8300574 329.45386255 47.8300574 329.45386255 47.83172917 330.83837569 C47.83805261 331.8387396 47.84437605 332.83910352 47.85089111 333.86978149 C47.85356452 334.92756943 47.85623792 335.98535737 47.85899234 337.07519948 C47.86910657 340.64342608 47.88630459 344.2115853 47.90332031 347.77978516 C47.91178212 350.3286422 47.91973531 352.87750097 47.92721558 355.42636108 C47.94179749 360.21381321 47.95790339 365.00125173 47.97635099 369.78869037 C48.01258429 379.20020727 48.03648207 388.61171959 48.05584717 398.02328491 C48.05895773 399.50444815 48.0620754 400.98561137 48.06520009 402.46677458 C48.06992609 404.71176578 48.07464418 406.95675699 48.07933249 409.20174826 C48.09706471 417.67047223 48.11614314 426.13919261 48.13671875 434.60791016 C48.1385958 435.38224051 48.14047286 436.15657086 48.14240679 436.95436577 C48.17327637 449.49394687 48.2189142 462.03343815 48.26912847 474.57295473 C48.32024158 487.44614281 48.35220449 500.31928347 48.36727214 513.19256437 C48.37723522 521.13276337 48.40258366 529.07261162 48.44772884 537.01268987 C48.48082703 543.10179605 48.48765348 549.19064266 48.48474503 555.27985001 C48.48771798 557.7759812 48.49927976 560.2721192 48.52006912 562.76816559 C48.54719965 566.17698526 48.5434364 569.58443934 48.53204346 572.99331665 C48.55491295 574.47378603 48.55491295 574.47378603 48.57824445 575.98416388 C48.48100467 585.56781455 43.82480539 591.29934176 37.5 598.0625 C37.04818359 598.56523438 36.59636719 599.06796875 36.13085938 599.5859375 C33.04210976 602.93317822 29.96622351 605.66809381 25.9375 607.8125 C23.25219727 607.41113281 23.25219727 607.41113281 20.9375 606.8125 C20.82972745 590.55045071 20.87191772 574.30970857 21.36215043 558.05413413 C22.04243085 534.95678216 22.08593426 511.86641459 22.0718255 488.76079702 C22.06923716 483.16907299 22.07165588 477.57735034 22.07321167 471.98562622 C22.07500982 462.6458506 22.07268456 453.30608299 22.06787109 443.96630859 C22.06237838 433.18424027 22.06423641 422.4021907 22.0696975 411.62012279 C22.07423178 402.29106036 22.07487926 392.96200358 22.07225883 383.63294041 C22.07070474 378.09003651 22.07047955 372.54714146 22.07379532 367.00423813 C22.07668044 361.82458482 22.07468658 356.64495599 22.06890106 351.46530533 C22.06757926 349.56819957 22.06795775 347.67109175 22.07016373 345.77398682 C22.07289658 343.18579368 22.06946859 340.5976791 22.06448364 338.00949097 C22.06782973 336.88600354 22.06782973 336.88600354 22.07124341 335.73981941 C22.05566792 331.57147396 21.63222359 327.98084154 20.9375 323.8125 C16.6475 323.8125 12.3575 323.8125 7.9375 323.8125 C7.6075 419.5125 7.2775 515.2125 6.9375 613.8125 C-13.0625 612.8125 -13.0625 612.8125 -16.0625 611.8125 C-17.42679817 611.62418354 -18.79644907 611.47298133 -20.16796875 611.34765625 C-20.97886963 611.27095703 -21.78977051 611.19425781 -22.62524414 611.11523438 C-23.49141357 611.03595703 -24.35758301 610.95667969 -25.25 610.875 C-47.71113017 608.71788812 -47.71113017 608.71788812 -57.3125 606.8125 C-63.54281324 605.60078517 -69.84410144 605.08027949 -76.15917969 604.50976562 C-76.99223633 604.43306641 -77.82529297 604.35636719 -78.68359375 604.27734375 C-79.4305249 604.211521 -80.17745605 604.14569824 -80.94702148 604.07788086 C-83.05017771 603.8140458 -85.00921318 603.32828151 -87.0625 602.8125 C-89.45633814 602.63693329 -91.85272099 602.49474176 -94.25 602.375 C-98.4130582 602.14043351 -102.45163253 601.87166591 -106.5 600.8125 C-111.33929653 599.56364928 -116.23272331 599.45219415 -121.19897461 599.20703125 C-125.51975619 598.97196938 -129.42338094 598.37303987 -133.58984375 597.28125 C-138.35793607 596.37734624 -143.25665836 596.34665306 -148.09765625 596.15625 C-151.01008261 595.90374407 -153.26759441 595.56398741 -156.02734375 594.8125 C-160.21367688 593.68103101 -164.24281658 593.44626069 -168.5625 593.3125 C-173.64627224 593.155079 -178.17070792 592.60864814 -183.08007812 591.27148438 C-186.38226636 590.50693833 -189.68564283 590.43031161 -193.0625 590.3125 C-197.85923645 590.08468377 -202.27723354 589.67507514 -206.87890625 588.28125 C-210.0894052 587.59205523 -213.28658552 587.49288467 -216.5625 587.3125 C-221.25960803 587.05334921 -225.4222777 586.61681123 -229.91015625 585.28125 C-232.94822768 584.61960105 -235.96069163 584.49631087 -239.0625 584.3125 C-243.59324561 584.04344194 -247.60813064 583.54703698 -251.9453125 582.28125 C-255.86887567 581.41256443 -259.89654063 581.35134336 -263.8984375 581.09375 C-267.3098912 580.79050967 -270.44838513 580.10504044 -273.76171875 579.28125 C-277.48239831 578.52321681 -281.24106331 578.36186766 -285.0234375 578.09375 C-287.92497376 577.82522736 -290.70453233 577.37256283 -293.5625 576.8125 C-297.40426415 576.06181045 -301.15803169 575.59426575 -305.0625 575.3125 C-310.83172766 574.88872941 -316.39088126 573.92093334 -322.0625 572.8125 C-327.91054833 571.67120161 -333.69954047 570.81204657 -339.64453125 570.3828125 C-340.63735107 570.30804687 -341.6301709 570.23328125 -342.65307617 570.15625 C-344.65859794 570.011673 -346.66539844 569.88376317 -348.6730957 569.7734375 C-350.06081177 569.67289063 -350.06081177 569.67289063 -351.4765625 569.5703125 C-352.3113916 569.5202002 -353.1462207 569.47008789 -354.00634766 569.41845703 C-356.0625 568.8125 -356.0625 568.8125 -357.16542244 567.04974937 C-358.11042781 564.69297136 -358.3696053 562.93863588 -358.47189331 560.41055298 C-358.50996157 559.54868063 -358.54802982 558.68680828 -358.58725166 557.79881859 C-358.61759436 556.87085787 -358.64793705 555.94289715 -358.67919922 554.98681641 C-358.71679792 554.01153803 -358.75439663 553.03625965 -358.79313469 552.03142738 C-359.17165492 541.36322785 -359.20773855 530.69708445 -359.1953125 520.0234375 C-359.19598859 517.93453968 -359.19696113 515.84564194 -359.19821167 513.75674438 C-359.19966844 509.43254834 -359.19759628 505.10837326 -359.19287109 500.78417969 C-359.18711002 495.24295113 -359.19050528 489.70177035 -359.19644356 484.16054344 C-359.20004944 479.87124264 -359.19891157 475.58195327 -359.19631577 471.29265213 C-359.19564989 469.24730041 -359.19646304 467.20194764 -359.19879532 465.15659714 C-359.20132922 462.31709757 -359.1974737 459.47767724 -359.19189453 456.63818359 C-359.19391876 455.79880753 -359.19594299 454.95943146 -359.19802856 454.09461975 C-359.18486701 450.48640233 -358.98012607 447.28940842 -358.0625 443.8125 C-357.99793121 442.39715222 -357.97638961 440.97912311 -358 439.5625 C-358.020625 438.325 -358.04125 437.0875 -358.0625 435.8125 C-359.0525 435.8125 -360.0425 435.8125 -361.0625 435.8125 C-362.76782323 437.75259522 -362.76782323 437.75259522 -364.0625 439.8125 C-365.8125 439.6875 -365.8125 439.6875 -368.0625 438.8125 C-370.1875 436 -370.1875 436 -372.0625 432.8125 C-372.42214844 432.24015625 -372.78179687 431.6678125 -373.15234375 431.078125 C-374.46148327 427.81932277 -374.44102954 424.87507027 -374.5 421.375 C-374.53996094 420.07691406 -374.57992188 418.77882813 -374.62109375 417.44140625 C-373.93952683 413.01360439 -372.46645505 411.6034205 -369.0625 408.8125 C-364.1875 410.6875 -364.1875 410.6875 -363.0625 411.8125 C-361.39632885 411.85313832 -359.72861905 411.855221 -358.0625 411.8125 C-358.03553635 410.02091511 -358.01612083 408.22921527 -358 406.4375 C-357.98839844 405.43976563 -357.97679687 404.44203125 -357.96484375 403.4140625 C-357.88243398 400.82817547 -357.88243398 400.82817547 -359.0625 398.8125 C-359.15905452 397.03462157 -359.19325463 395.25315344 -359.1953125 393.47265625 C-359.19660156 392.40982422 -359.19789063 391.34699219 -359.19921875 390.25195312 C-359.19535156 389.13755859 -359.19148438 388.02316406 -359.1875 386.875 C-359.19330078 385.20920898 -359.19330078 385.20920898 -359.19921875 383.50976562 C-359.19792969 382.44564453 -359.19664062 381.38152344 -359.1953125 380.28515625 C-359.19418457 379.30812744 -359.19305664 378.33109863 -359.19189453 377.32446289 C-359.0625 374.8125 -359.0625 374.8125 -358.0625 371.8125 C-357.993509 369.75104893 -357.97782273 367.68748599 -358 365.625 C-358.00902344 364.53832031 -358.01804687 363.45164062 -358.02734375 362.33203125 C-358.03894531 361.50058594 -358.05054688 360.66914063 -358.0625 359.8125 C-358.6915625 359.956875 -359.320625 360.10125 -359.96875 360.25 C-370.62924473 362.56191452 -370.62924473 362.56191452 -376.0625 361.8125 C-379.12561552 358.74938448 -380.31668107 355.99829512 -380.6875 351.75 C-380.0625 347.8125 -380.0625 347.8125 -377.75 344.9375 C-373.34676077 341.86140531 -368.27147716 341.47930189 -363.0625 340.8125 C-360.76988813 340.48573092 -358.47821008 340.15234487 -356.1875 339.8125 C-355.13820313 339.668125 -354.08890625 339.52375 -353.0078125 339.375 C-350.07491937 338.91435859 -350.07491937 338.91435859 -347.51171875 337.77734375 C-344.80154949 336.70970131 -342.65266551 336.51048509 -339.75 336.375 C-330.81491369 335.75650206 -321.98956426 334.09446343 -313.32421875 331.83984375 C-307.98804694 330.47886682 -302.55935458 329.67713317 -297.125 328.8125 C-290.78642686 327.80022631 -284.49251435 326.75118877 -278.23657227 325.30810547 C-274.34037316 324.41992083 -270.41913088 323.65449137 -266.5 322.875 C-265.6352002 322.70242676 -264.77040039 322.52985352 -263.87939453 322.35205078 C-258.40473203 321.26436283 -252.92477769 320.2095295 -247.4375 319.1875 C-246.15875 318.94902344 -244.88 318.71054687 -243.5625 318.46484375 C-241.39586683 318.06101815 -239.22920573 317.65734234 -237.0625 317.25390625 C-233.6706242 316.60278724 -230.4535421 315.94851464 -227.1875 314.8125 C-224.23365675 313.86727016 -221.49599898 313.35437614 -218.4375 312.875 C-212.20004868 311.88932868 -206.16678494 310.41218875 -200.0625 308.8125 C-193.90985431 307.24799326 -187.75110107 305.72872337 -181.5625 304.3125 C-171.66418217 302.04462766 -161.84989311 299.51635536 -152.0625 296.8125 C-149.32070056 296.06367284 -146.57836939 295.31681975 -143.8359375 294.5703125 C-141.92352102 294.0477649 -140.01211845 293.5214972 -138.1015625 292.9921875 C-137.13992187 292.72664063 -136.17828125 292.46109375 -135.1875 292.1875 C-134.32382813 291.94773437 -133.46015625 291.70796875 -132.5703125 291.4609375 C-130.08045009 290.8171413 -127.5885989 290.29236825 -125.0625 289.8125 C-124.65 290.946875 -124.2375 292.08125 -123.8125 293.25 C-122.45952344 296.80675715 -122.45952344 296.80675715 -120.125 298 C-117.88240565 297.98620818 -117.88240565 297.98620818 -115.9375 296.125 C-112.19734368 291.51214054 -111.72425367 287.76584578 -111.65625 281.90625 C-111.64484985 281.14453491 -111.63344971 280.38281982 -111.6217041 279.59802246 C-111.60285439 277.99102293 -111.5897561 276.38394698 -111.58203125 274.77685547 C-111.56255885 272.31992575 -111.50046556 269.86630501 -111.4375 267.41015625 C-111.42444378 265.84637398 -111.41394131 264.28256786 -111.40625 262.71875 C-111.36920959 261.62016663 -111.36920959 261.62016663 -111.3314209 260.49938965 C-111.28756454 258.14445341 -111.28756454 258.14445341 -112.0625 254.8125 C-116.97148867 250.62466652 -119.91732159 250.38869459 -126.0625 250.8125 C-126.3925 254.4425 -126.7225 258.0725 -127.0625 261.8125 C-133.3125 257.3203125 -133.3125 257.3203125 -135.0625 255.8125 C-135.0625 255.1525 -135.0625 254.4925 -135.0625 253.8125 C-135.63355469 253.544375 -136.20460937 253.27625 -136.79296875 253 C-139.15159985 251.76587977 -141.21348066 250.36550871 -143.375 248.8125 C-147.65938909 245.77562421 -151.99758364 242.83734282 -156.375 239.9375 C-161.16497249 236.76242908 -165.91434744 233.54171209 -170.625 230.25 C-181.84986812 222.45267677 -193.4545541 215.29421214 -205.12890625 208.1953125 C-205.80840332 207.78055664 -206.48790039 207.36580078 -207.18798828 206.93847656 C-208.80410261 205.96771344 -210.44494276 205.03833205 -212.08984375 204.1171875 C-213.06630859 203.47136719 -213.06630859 203.47136719 -214.0625 202.8125 C-214.0625 202.1525 -214.0625 201.4925 -214.0625 200.8125 C-215.7125 200.4825 -217.3625 200.1525 -219.0625 199.8125 C-219.0625 199.1525 -219.0625 198.4925 -219.0625 197.8125 C-220.0215625 197.4721875 -220.0215625 197.4721875 -221 197.125 C-230.28866956 193.14414162 -238.62269507 187.30871554 -247.0625 181.8125 C-256.32749832 175.78773415 -265.68609322 169.9379044 -275.12890625 164.1953125 C-275.80840332 163.78055664 -276.48790039 163.36580078 -277.18798828 162.93847656 C-278.80410261 161.96771344 -280.44494276 161.03833205 -282.08984375 160.1171875 C-283.06630859 159.47136719 -283.06630859 159.47136719 -284.0625 158.8125 C-284.0625 158.1525 -284.0625 157.4925 -284.0625 156.8125 C-284.805 156.52375 -285.5475 156.235 -286.3125 155.9375 C-288.62989797 154.98947356 -290.84167115 153.96404089 -293.0625 152.8125 C-293.0625 152.1525 -293.0625 151.4925 -293.0625 150.8125 C-293.73539062 150.5753125 -294.40828125 150.338125 -295.1015625 150.09375 C-298.78966089 148.49784463 -302.05185957 146.46464124 -305.4375 144.3125 C-306.13504395 143.87252686 -306.83258789 143.43255371 -307.55126953 142.97924805 C-317.58531574 136.61952987 -327.48040123 130.04956119 -337.109375 123.08984375 C-339.13459523 121.64702519 -339.13459523 121.64702519 -342.0625 120.8125 C-342.0625 120.1525 -342.0625 119.4925 -342.0625 118.8125 C-342.701875 118.585625 -343.34125 118.35875 -344 118.125 C-355.47951935 113.20520599 -355.47951935 113.20520599 -359.0625 108.8125 C-359.42999268 106.68330383 -359.42999268 106.68330383 -359.41894531 104.19262695 C-359.42194641 103.25767899 -359.42494751 102.32273102 -359.42803955 101.35945129 C-359.41569275 100.35009018 -359.40334595 99.34072906 -359.390625 98.30078125 C-359.38781525 96.73749336 -359.38781525 96.73749336 -359.38494873 95.1426239 C-359.37822124 92.93432424 -359.36429302 90.72603662 -359.34375 88.51782227 C-359.31278228 85.15564759 -359.30279585 81.79394338 -359.296875 78.43164062 C-359.28769662 76.28384852 -359.27731821 74.13606114 -359.265625 71.98828125 C-359.26137512 70.98904129 -359.25712524 69.98980133 -359.25274658 68.96028137 C-359.10179928 54.02338171 -359.10179928 54.02338171 -356.40625 50.8828125 C-353.45165687 49.53354831 -350.78379525 49.09385605 -347.5625 48.6875 C-343.28296252 48.16969706 -343.28296252 48.16969706 -339.07421875 47.28515625 C-336.189103 46.6072941 -333.33176778 46.53438572 -330.375 46.375 C-326.38760533 46.11272532 -322.5687389 45.83592569 -318.6875 44.875 C-314.26584012 43.78155703 -309.83930055 43.23710104 -305.31933594 42.70117188 C-298.17973629 41.84686081 -291.05951997 40.8643234 -283.9375 39.875 C-282.67454102 39.69984863 -281.41158203 39.52469727 -280.11035156 39.34423828 C-277.59535849 38.99541771 -275.08038419 38.64646182 -272.56542969 38.29736328 C-267.73211855 37.62835325 -262.89746974 36.96939808 -258.0625 36.3125 C-248.15638316 34.96560344 -238.25302033 33.59898904 -228.3503418 32.22705078 C-222.02844507 31.35275942 -215.70495602 30.50116844 -209.375 29.6875 C-205.62285113 29.19583911 -201.94708502 28.61621414 -198.25 27.8125 C-192.62944139 26.60265094 -186.93163533 26.07995935 -181.2175293 25.50976562 C-178.01354814 25.18259733 -175.12881499 24.834605 -172.0625 23.8125 C-169.25020517 23.44925708 -166.44372371 23.11543588 -163.625 22.8125 C-162.10519638 22.64833556 -160.58565239 22.48174587 -159.06640625 22.3125 C-158.39424072 22.2403125 -157.7220752 22.168125 -157.02954102 22.09375 C-154.99114118 21.80229703 -153.05837184 21.3135754 -151.0625 20.8125 C-148.50049523 20.51945076 -145.9409881 20.25205724 -143.375 20 C-135.72153159 19.20541233 -128.15279493 18.06928588 -120.5625 16.8125 C-112.58593823 15.49487328 -104.64023464 14.34864454 -96.59765625 13.53125 C-90.21233812 12.86949885 -83.88810386 11.9093922 -77.54638672 10.91992188 C-71.07622695 9.92548343 -64.59953261 9.18630493 -58.08911133 8.51391602 C-53.70511269 8.04495758 -49.53162602 7.32938928 -45.265625 6.24609375 C-41.26255333 5.45825518 -37.18253785 5.3566364 -33.1171875 5.09375 C-30.62620527 4.86440125 -28.50952625 4.50841324 -26.125 3.8125 C-21.26301484 2.39658997 -16.26706441 2.3760181 -11.234375 2.15625 C-6.99537296 1.69685076 -4.32479424 -0.57497264 0 0 Z M-106.0625 263.8125 C-108.83067815 266.58067815 -107.75437392 274.39189852 -107.9375 278.125 C-108.02257812 279.37474609 -108.10765625 280.62449219 -108.1953125 281.91210938 C-108.25203125 283.11287109 -108.30875 284.31363281 -108.3671875 285.55078125 C-108.42890137 286.65462158 -108.49061523 287.75846191 -108.55419922 288.89575195 C-108.32380519 292.04392454 -108.32380519 292.04392454 -105.54345703 294.20385742 C-104.72474121 294.73470947 -103.90602539 295.26556152 -103.0625 295.8125 C-100.14732708 294.73848892 -98.28439824 294.03439824 -96.0625 291.8125 C-95.66202556 289.48974823 -95.3227896 287.15510643 -95.0625 284.8125 C-94.299375 284.585625 -93.53625 284.35875 -92.75 284.125 C-89.25432449 282.41780964 -88.47553343 281.45663886 -87.0625 277.8125 C-86.47013665 272.9435622 -85.9997621 268.48835592 -88.6875 264.25 C-94.95453192 260.45679647 -99.87147652 259.62937603 -106.0625 263.8125 Z M-9.0625 356.4375 C-11.69122977 359.5591166 -13.39413074 362.77289575 -14.66796875 366.66015625 C-16.65848744 372.72822231 -20.04073698 376.91515019 -24.0625 381.8125 C-25.89124218 384.11251083 -27.69732592 386.42953315 -29.5 388.75 C-29.94931885 389.31807373 -30.3986377 389.88614746 -30.86157227 390.47143555 C-33.29973319 393.3069321 -33.29973319 393.3069321 -34.0625 396.8125 C-34.7225 396.8125 -35.3825 396.8125 -36.0625 396.8125 C-37.67231172 398.71769002 -39.15753268 400.61505662 -40.625 402.625 C-41.03685547 403.17220703 -41.44871094 403.71941406 -41.87304688 404.28320312 C-43.72399019 406.78243101 -45.07237428 408.84212285 -46.0625 411.8125 C-46.7225 411.8125 -47.3825 411.8125 -48.0625 411.8125 C-49.69389937 413.73837579 -51.19973225 415.65576717 -52.6875 417.6875 C-53.10773438 418.24308594 -53.52796875 418.79867187 -53.9609375 419.37109375 C-56.32194906 422.2802435 -56.32194906 422.2802435 -57.0625 425.8125 C-58.5475 426.3075 -58.5475 426.3075 -60.0625 426.8125 C-61.45902228 428.26655873 -61.45902228 428.26655873 -62.734375 430.09375 C-63.2298584 430.76591553 -63.7253418 431.43808105 -64.23583984 432.13061523 C-64.7561377 432.85063721 -65.27643555 433.57065918 -65.8125 434.3125 C-66.9032028 435.79329517 -67.99434492 437.27376687 -69.0859375 438.75390625 C-69.60639648 439.46434082 -70.12685547 440.17477539 -70.66308594 440.90673828 C-76.13551729 448.35925034 -82.04163019 455.45261534 -87.93334961 462.57373047 C-91.54901014 466.95014886 -95.08845921 471.3685409 -98.53125 475.8828125 C-100.81818109 478.76481239 -103.28824128 481.47566909 -105.77734375 484.18359375 C-107.2689667 485.72838512 -107.2689667 485.72838512 -107.0625 487.8125 C-108.0525 488.1425 -109.0425 488.4725 -110.0625 488.8125 C-110.96671517 490.13404525 -111.86051268 491.46352787 -112.7109375 492.8203125 C-115.12882579 496.38425189 -117.95362538 499.62832054 -120.6953125 502.9453125 C-125.33867159 508.56944711 -129.8854614 514.26671517 -134.3125 520.0625 C-137.41405807 524.07252359 -140.68889925 527.91344976 -144 531.75 C-148.8214315 537.33778613 -153.5051534 543.00597522 -158.0625 548.8125 C-158.96982154 549.96111965 -159.87739059 551.10954381 -160.78515625 552.2578125 C-172.41432931 564.99848672 -172.41432931 564.99848672 -177.1875 580.5625 C-177.16042969 582.03976562 -177.16042969 582.03976562 -177.1328125 583.546875 C-177.09800781 584.66835938 -177.09800781 584.66835938 -177.0625 585.8125 C-172.39291251 585.01179284 -172.39291251 585.01179284 -169.0625 581.8125 C-169.0625 581.1525 -169.0625 580.4925 -169.0625 579.8125 C-168.4025 579.8125 -167.7425 579.8125 -167.0625 579.8125 C-165.52573484 578.33203208 -165.52573484 578.33203208 -163.9375 576.375 C-160.63853188 572.48939529 -157.26763621 568.68061146 -153.859375 564.890625 C-150.37521472 561.31497497 -150.37521472 561.31497497 -149.0625 556.8125 C-148.4025 556.8125 -147.7425 556.8125 -147.0625 556.8125 C-145.1427802 554.10075434 -143.35065495 551.34607589 -141.60351562 548.52148438 C-139.70506153 545.61437616 -138.63354329 543.99858823 -135.26953125 542.90234375 C-134.54121094 542.87269531 -133.81289062 542.84304688 -133.0625 542.8125 C-133.0625 543.4725 -133.0625 544.1325 -133.0625 544.8125 C-131.33728566 546.35848513 -131.33728566 546.35848513 -129.08203125 547.9296875 C-128.24736328 548.53683594 -127.41269531 549.14398437 -126.55273438 549.76953125 C-125.66908203 550.40246094 -124.78542969 551.03539062 -123.875 551.6875 C-122.15171275 552.93402396 -120.42903912 554.18139674 -118.70703125 555.4296875 C-117.89572754 556.01459961 -117.08442383 556.59951172 -116.24853516 557.20214844 C-114.48413945 558.50189761 -112.7702064 559.86998469 -111.07421875 561.2578125 C-109.22249171 563.01633041 -109.22249171 563.01633041 -107.0625 562.8125 C-107.0625 563.4725 -107.0625 564.1325 -107.0625 564.8125 C-103.34787507 567.96956048 -103.34787507 567.96956048 -98.75 568.625 C-97.07085708 567.93097389 -97.07085708 567.93097389 -96.0625 566.8125 C-95.75726038 562.16161285 -95.75726038 562.16161285 -97.0625 557.8125 C-97.7225 557.8125 -98.3825 557.8125 -99.0625 557.8125 C-99.3925 556.8225 -99.7225 555.8325 -100.0625 554.8125 C-101.81348607 553.41147453 -101.81348607 553.41147453 -104 552.125 C-108.42866309 549.28953267 -112.4869576 546.16408015 -116.5546875 542.8359375 C-119.77476666 540.2378051 -123.10119196 537.79123821 -126.4453125 535.35546875 C-126.97898438 534.84628906 -127.51265625 534.33710937 -128.0625 533.8125 C-128.0625 532.8225 -128.0625 531.8325 -128.0625 530.8125 C-127.4025 530.4825 -126.7425 530.1525 -126.0625 529.8125 C-126.0625 529.1525 -126.0625 528.4925 -126.0625 527.8125 C-121.98009766 529.04959162 -119.34892781 531.16945064 -116.19921875 533.984375 C-112.6814559 536.994088 -108.92086978 539.67672753 -105.1953125 542.421875 C-101.17929576 545.48646633 -97.39718648 548.79294099 -93.6328125 552.16015625 C-90.51217476 554.16628051 -88.70704851 554.21971212 -85.0625 553.8125 C-83.04298938 552.87652685 -83.04298938 552.87652685 -82.0625 550.8125 C-81.54309299 546.73144494 -81.39027087 544.68639788 -83.9375 541.375 C-85.89144726 539.61503652 -85.89144726 539.61503652 -88.0625 539.8125 C-88.0625 539.1525 -88.0625 538.4925 -88.0625 537.8125 C-89.7816896 536.39334349 -91.5662681 535.05311434 -93.375 533.75 C-98.62563118 529.91892569 -103.68532538 525.91140393 -108.6875 521.7578125 C-110.77392204 520.04886813 -112.89092916 518.41101742 -115.0625 516.8125 C-114.7325 515.8225 -114.4025 514.8325 -114.0625 513.8125 C-111.81087528 514.85789719 -109.91660839 515.92406417 -107.9375 517.4375 C-106.18122074 519.00962122 -106.18122074 519.00962122 -104.0625 518.8125 C-103.7325 519.8025 -103.4025 520.7925 -103.0625 521.8125 C-101.32701831 523.25776736 -99.52274037 524.6212222 -97.6875 525.9375 C-92.41067494 529.77366806 -87.35495689 533.78926497 -82.33984375 537.96484375 C-79.11141377 540.91519616 -79.11141377 540.91519616 -75.0625 541.625 C-72.65631013 540.64748536 -71.54532078 539.96259013 -70.0625 537.8125 C-69.45143391 534.82506577 -69.44542257 532.85852149 -71.0234375 530.18359375 C-74.80343535 525.47498371 -79.54230378 521.83566388 -84.2421875 518.08984375 C-87.63233623 515.35236908 -90.86536362 512.46821641 -94.08984375 509.5390625 C-97.6102586 506.09175588 -97.6102586 506.09175588 -102.0625 504.8125 C-102.0625 502.8325 -102.0625 500.8525 -102.0625 498.8125 C-100.7425 498.8125 -99.4225 498.8125 -98.0625 498.8125 C-98.0625 499.4725 -98.0625 500.1325 -98.0625 500.8125 C-96.71280871 502.09597995 -96.71280871 502.09597995 -94.9140625 503.3515625 C-94.24294434 503.84591797 -93.57182617 504.34027344 -92.88037109 504.84960938 C-92.15672363 505.37361328 -91.43307617 505.89761719 -90.6875 506.4375 C-89.21257688 507.52212676 -87.73861736 508.6080651 -86.265625 509.6953125 C-85.54439453 510.22672852 -84.82316406 510.75814453 -84.08007812 511.30566406 C-81.48149006 513.24642949 -78.95405573 515.26683353 -76.4375 517.3125 C-70.26989291 522.25686502 -66.11574525 525.54845917 -58.0625 525.8125 C-57.0725 525.1525 -56.0825 524.4925 -55.0625 523.8125 C-55.23498981 519.59266005 -55.73368133 518.12970784 -58.828125 515.14453125 C-59.97697242 514.28751749 -61.13902655 513.44797208 -62.3125 512.625 C-62.88613281 512.20025391 -63.45976562 511.77550781 -64.05078125 511.33789062 C-66.4913732 509.55053228 -68.9184426 507.89530465 -71.54296875 506.38671875 C-75.04174383 504.20066238 -78.0302259 501.52986262 -81.125 498.8125 C-86.4525683 494.13860509 -86.4525683 494.13860509 -92.0625 489.8125 C-90.73683653 485.09902988 -87.89677786 482.27715428 -84.68359375 478.75 C-82.86664016 476.57841209 -81.8293588 474.53910908 -81.0625 471.8125 C-80.4025 471.8125 -79.7425 471.8125 -79.0625 471.8125 C-77.74608095 470.41324623 -77.74608095 470.41324623 -76.453125 468.55859375 C-75.69128906 467.5231543 -75.69128906 467.5231543 -74.9140625 466.46679688 C-74.38554687 465.73525391 -73.85703125 465.00371094 -73.3125 464.25 C-69.82475924 459.46092883 -66.28528822 454.80772054 -62.38867188 450.3425293 C-60.74762871 448.4492271 -59.20971332 446.48969508 -57.6875 444.5 C-53.87525332 439.55346069 -49.97483859 434.68005892 -46.0625 429.8125 C-42.71070682 430.92976439 -42.04542595 431.76699967 -39.875 434.4375 C-33.29322214 442.14366492 -25.18297837 449.28371074 -16.0625 453.8125 C-13.34257506 453.81968405 -13.34257506 453.81968405 -11.0625 452.8125 C-9.09193575 450.38213742 -8.0625 448.84882343 -8.0625 445.6875 C-9.50403864 442.98461505 -11.37685289 442.24484513 -14.0625 440.8125 C-19.65860028 437.27211003 -19.65860028 437.27211003 -21.875 434.75 C-25.1326784 431.8646277 -28.92661515 430.97903162 -33.0625 429.8125 C-32.7325 430.8025 -32.4025 431.7925 -32.0625 432.8125 C-36.49708973 431.4187718 -38.93628374 429.20667765 -42.0625 425.8125 C-41.485 425.04164063 -40.9075 424.27078125 -40.3125 423.4765625 C-39.19875 421.97222656 -39.19875 421.97222656 -38.0625 420.4375 C-37.32 419.43976563 -36.5775 418.44203125 -35.8125 417.4140625 C-33.8764515 415.05848283 -33.8764515 415.05848283 -34.0625 412.8125 C-33.4025 412.8125 -32.7425 412.8125 -32.0625 412.8125 C-30.38528885 410.96598336 -30.38528885 410.96598336 -28.6875 408.625 C-26.70646741 405.99465193 -24.7286706 403.41019278 -22.625 400.875 C-20.8612141 398.97805765 -20.8612141 398.97805765 -21.0625 396.8125 C-20.4025 396.8125 -19.7425 396.8125 -19.0625 396.8125 C-19.03414062 397.369375 -19.00578125 397.92625 -18.9765625 398.5 C-18.11911023 405.35961813 -15.0426322 408.25171931 -9.765625 412.4765625 C-6.35991853 414.15972957 -4.66328314 413.85483196 -1.0625 412.8125 C1.85544058 410.73922643 2.75680338 409.4379883 3.75 406 C2.44703111 400.88835282 -1.68481857 398.48335979 -6.0625 395.8125 C-6.7225 395.8125 -7.3825 395.8125 -8.0625 395.8125 C-8.3925 394.8225 -8.7225 393.8325 -9.0625 392.8125 C-11.05915314 391.12711399 -11.05915314 391.12711399 -13.0625 389.8125 C-12.36125 389.07 -11.66 388.3275 -10.9375 387.5625 C-4.1530101 379.24226596 -1.36921868 371.47388935 -1.65625 360.74609375 C-1.87113167 357.62795381 -1.87113167 357.62795381 -4.0625 354.8125 C-7.10393317 354.49720369 -7.10393317 354.49720369 -9.0625 356.4375 Z M-24.0625 414.8125 C-23.7325 416.1325 -23.4025 417.4525 -23.0625 418.8125 C-22.4025 418.4825 -21.7425 418.1525 -21.0625 417.8125 C-21.0625 416.8225 -21.0625 415.8325 -21.0625 414.8125 C-22.0525 414.8125 -23.0425 414.8125 -24.0625 414.8125 Z M-18.0625 417.8125 C-21.40005908 421.74424486 -21.40005908 421.74424486 -21.8125 426.6875 C-21.565 427.38875 -21.3175 428.09 -21.0625 428.8125 C-20.0725 428.8125 -19.0825 428.8125 -18.0625 428.8125 C-14.95346404 424.41594358 -14.95346404 424.41594358 -14.3125 419.375 C-14.56 418.859375 -14.8075 418.34375 -15.0625 417.8125 C-16.0525 417.8125 -17.0425 417.8125 -18.0625 417.8125 Z M-12.0625 420.8125 C-12.7225 422.7925 -13.3825 424.7725 -14.0625 426.8125 C-12.40635343 427.19468767 -10.73792976 427.52645102 -9.0625 427.8125 C-7.76616379 426.74604885 -7.76616379 426.74604885 -8 424.25 C-8.020625 423.445625 -8.04125 422.64125 -8.0625 421.8125 C-9.3825 421.4825 -10.7025 421.1525 -12.0625 420.8125 Z M-39.0625 424.8125 C-38.4025 425.4725 -37.7425 426.1325 -37.0625 426.8125 C-36.7325 426.1525 -36.4025 425.4925 -36.0625 424.8125 C-37.0525 424.8125 -38.0425 424.8125 -39.0625 424.8125 Z M-50.0625 442.8125 C-50.3925 444.1325 -50.7225 445.4525 -51.0625 446.8125 C-51.7225 446.8125 -52.3825 446.8125 -53.0625 446.8125 C-53.0625 447.8025 -53.0625 448.7925 -53.0625 449.8125 C-51.4125 449.1525 -49.7625 448.4925 -48.0625 447.8125 C-48.0625 449.7925 -48.0625 451.7725 -48.0625 453.8125 C-46.7425 453.8125 -45.4225 453.8125 -44.0625 453.8125 C-42.16048258 452.08211928 -42.16048258 452.08211928 -41.0625 449.8125 C-41.3925 448.8225 -41.7225 447.8325 -42.0625 446.8125 C-43.7125 446.8125 -45.3625 446.8125 -47.0625 446.8125 C-47.3925 445.4925 -47.7225 444.1725 -48.0625 442.8125 C-48.7225 442.8125 -49.3825 442.8125 -50.0625 442.8125 Z M-38.0625 446.8125 C-40.09685531 450.54215139 -41.0625 452.48155042 -41.0625 456.8125 C-40.4025 457.4725 -39.7425 458.1325 -39.0625 458.8125 C-36.95429203 458.4939823 -36.95429203 458.4939823 -35.0625 457.8125 C-34.7325 456.1625 -34.4025 454.5125 -34.0625 452.8125 C-33.0725 452.4825 -32.0825 452.1525 -31.0625 451.8125 C-31.7225 450.1625 -32.3825 448.5125 -33.0625 446.8125 C-34.7125 446.8125 -36.3625 446.8125 -38.0625 446.8125 Z M-63.0625 452.8125 C-64.22440327 454.61986225 -64.22440327 454.61986225 -65.25 456.75 C-65.79720703 457.81541016 -65.79720703 457.81541016 -66.35546875 458.90234375 C-66.70544922 459.84787109 -66.70544922 459.84787109 -67.0625 460.8125 C-66.7325 461.4725 -66.4025 462.1325 -66.0625 462.8125 C-62.71876525 462.25521087 -60.02937001 461.46076111 -57.0625 459.8125 C-57.2790625 461.6378125 -57.2790625 461.6378125 -57.5 463.5 C-57.51444186 466.21025594 -57.43452738 467.38103022 -55.64453125 469.45703125 C-52.12906097 472.05802952 -50.59432745 472.8125 -46.0625 472.8125 C-45.794375 473.410625 -45.52625 474.00875 -45.25 474.625 C-42.96013861 478.84316572 -40.51353624 480.17264454 -36.0625 481.8125 C-35.7325 482.1425 -35.4025 482.4725 -35.0625 482.8125 C-33.39632885 482.85313832 -31.72861905 482.855221 -30.0625 482.8125 C-29.20599347 480.01204954 -29.20599347 480.01204954 -29.0625 476.8125 C-32.07923619 472.63548066 -35.92874179 471.47294897 -40.6875 470 C-43.0625 468.8125 -43.0625 468.8125 -44.625 466.1875 C-45.099375 465.40375 -45.57375 464.62 -46.0625 463.8125 C-47.3825 463.8125 -48.7025 463.8125 -50.0625 463.8125 C-50.0625 462.1625 -50.0625 460.5125 -50.0625 458.8125 C-50.68125 458.750625 -51.3 458.68875 -51.9375 458.625 C-52.989375 458.2228125 -52.989375 458.2228125 -54.0625 457.8125 C-54.371875 456.9875 -54.68125 456.1625 -55 455.3125 C-55.350625 454.4875 -55.70125 453.6625 -56.0625 452.8125 C-58.95106516 451.80150219 -60.29436483 451.42843242 -63.0625 452.8125 Z M-29.3125 457.4375 C-31.22926191 459.65873548 -31.22926191 459.65873548 -31.453125 462.25390625 C-31.31369004 464.9609444 -31.31369004 464.9609444 -29.09375 466.61328125 C-28.2584375 467.11214844 -27.423125 467.61101562 -26.5625 468.125 C-25.7271875 468.63675781 -24.891875 469.14851563 -24.03125 469.67578125 C-23.3815625 470.05089844 -22.731875 470.42601562 -22.0625 470.8125 C-20.4125 467.8425 -18.7625 464.8725 -17.0625 461.8125 C-18.0525 460.8225 -19.0425 459.8325 -20.0625 458.8125 C-21.7125 460.4625 -23.3625 462.1125 -25.0625 463.8125 C-24.4025 461.5025 -23.7425 459.1925 -23.0625 456.8125 C-25.98026608 455.56202882 -26.66840123 455.52787311 -29.3125 457.4375 Z " fill="#000000" transform="translate(380.0625,0.1875)"/>
<path d="M0 0 C3.32366118 0.34025257 5.1572599 1.40503428 7.98974609 3.16479492 C8.97974609 3.77387695 9.96974609 4.38295898 10.98974609 5.01049805 C12.01326172 5.65567383 13.03677734 6.30084961 14.09130859 6.96557617 C15.10708984 7.59141602 16.12287109 8.21725586 17.16943359 8.86206055 C22.4928944 12.1632976 27.64757968 15.60076304 32.71630859 19.27807617 C34.44701358 20.2850318 36.17817402 21.29165426 37.92724609 22.26635742 C42.48614966 24.84442734 46.86562808 27.72786411 51.26708984 30.56323242 C51.89607178 30.96840088 52.52505371 31.37356934 53.1730957 31.79101562 C54.43898703 32.60739228 55.70414042 33.42491447 56.96850586 34.24365234 C60.2696108 36.38592877 60.2696108 36.38592877 63.71630859 38.27807617 C63.71630859 38.93807617 63.71630859 39.59807617 63.71630859 40.27807617 C64.41111328 40.52944336 65.10591797 40.78081055 65.82177734 41.03979492 C69.11309477 42.44782141 71.99518107 44.19047175 75.02880859 46.09057617 C75.59696289 46.44587402 76.16511719 46.80117187 76.75048828 47.16723633 C78.40647168 48.20304877 80.06141135 49.24052928 81.71630859 50.27807617 C82.57095703 50.79499023 83.42560547 51.3119043 84.30615234 51.84448242 C89.60427876 55.05401651 89.60427876 55.05401651 90.71630859 57.27807617 C92.59643965 58.40032473 92.59643965 58.40032473 94.77880859 59.40307617 C95.51228516 59.7562793 96.24576172 60.10948242 97.00146484 60.47338867 C97.56736328 60.73893555 98.13326172 61.00448242 98.71630859 61.27807617 C98.71630859 61.93807617 98.71630859 62.59807617 98.71630859 63.27807617 C99.45880859 63.56682617 100.20130859 63.85557617 100.96630859 64.15307617 C103.28370656 65.10110261 105.49547974 66.12653528 107.71630859 67.27807617 C107.71630859 67.93807617 107.71630859 68.59807617 107.71630859 69.27807617 C108.38275391 69.50108398 109.04919922 69.7240918 109.73583984 69.95385742 C113.63439873 71.68598253 116.92494984 74.01520668 120.40380859 76.46557617 C121.11206787 76.95807861 121.82032715 77.45058105 122.55004883 77.95800781 C125.62320304 80.09769625 128.68354009 82.25487573 131.73974609 84.41870117 C135.68319145 87.20944712 139.57030642 89.79586861 143.81005859 92.12573242 C149.83555083 95.76819187 155.37991049 100.25421044 160.96630859 104.52807617 C163.80500272 106.67146263 166.71342822 108.4603621 169.83740234 110.17260742 C172.03743301 111.46701216 174.07847537 112.91673568 176.15380859 114.40307617 C180.48739172 117.48721955 184.93828385 120.30646378 189.46630859 123.09057617 C204.75963929 132.54812845 219.22238891 143.3905755 232.71630859 155.27807617 C232.38630859 155.93807617 232.05630859 156.59807617 231.71630859 157.27807617 C229.039619 157.87555153 226.42199883 158.36146397 223.71630859 158.77807617 C217.66006875 159.75006528 211.69479157 160.9064574 205.71630859 162.27807617 C204.25180746 162.6012473 202.78696358 162.92286922 201.32177734 163.24291992 C190.8527421 165.54365263 180.44803573 167.98476968 170.10571289 170.80932617 C164.28733471 172.39291478 158.53965195 173.72336014 152.59521484 174.71557617 C148.40552977 175.53418492 144.31296958 176.6849475 140.19946289 177.81494141 C135.87864772 178.99344581 131.56772894 179.95574683 127.16943359 180.78588867 C119.5250454 182.31963535 112.00664345 184.45850043 104.49365234 186.52807617 C98.57980261 188.12506513 92.62421656 189.56044336 86.67724609 191.02807617 C85.67951172 191.27557617 84.68177734 191.52307617 83.65380859 191.77807617 C82.77595703 191.99463867 81.89810547 192.21120117 80.99365234 192.43432617 C79.09022463 192.92436239 77.1894032 193.42527159 75.29638672 193.95410156 C68.68715905 195.8001394 62.05911744 197.32298427 55.34130859 198.71557617 C47.96299834 200.27816693 40.81044719 202.03018187 33.63818359 204.36401367 C25.9543486 206.76778023 18.77355738 208.35656745 10.71630859 208.27807617 C10.71207665 207.397542 10.70784472 206.51700783 10.70348454 205.6097908 C10.60002336 184.15003987 10.491363 162.6903207 10.37696934 141.23062515 C10.32177306 130.85273577 10.268314 120.47484294 10.21899414 110.09692383 C10.17598513 101.04787532 10.12966612 91.99885073 10.07943004 82.94983935 C10.05296311 78.16181126 10.02811458 73.37378749 10.00723457 68.58573151 C9.98749581 64.07139846 9.96330348 59.55711038 9.93581772 55.04281807 C9.9265377 53.39338316 9.91883095 51.74393846 9.91288948 50.09448814 C9.88607079 42.86663091 9.82529709 35.6380522 9.43785095 28.41912842 C9.39039702 27.5015765 9.3429431 26.58402458 9.29405117 25.63866806 C8.37367435 21.87811077 5.97984757 20.39675347 2.79052734 18.44995117 C2.10603516 18.06323242 1.42154297 17.67651367 0.71630859 17.27807617 C-4.14576037 13.55393824 -4.14576037 13.55393824 -5.28369141 11.27807617 C-5.5503819 7.67775451 -5.69304575 5.11832983 -4.09619141 1.84057617 C-2.28369141 0.27807617 -2.28369141 0.27807617 0 0 Z " fill="#000000" transform="translate(10.28369140625,120.721923828125)"/>
</svg>
