<?xml version="1.0" encoding="UTF-8"?>
<svg version="1.1" xmlns="http://www.w3.org/2000/svg" width="551" height="597">
<path d="M0 0 C2.46984289 2.18789736 4.87004303 4.43000447 7.25390625 6.7109375 C7.92808594 7.32195312 8.60226562 7.93296875 9.296875 8.5625 C30.66009267 28.60384192 41.64568925 59.31692609 42.60522461 88.12304688 C42.98605486 121.69892646 28.89992704 152.84429391 5.62890625 176.7109375 C-17.13574098 199.37792896 -48.1437418 210.69030634 -80.00244141 210.78125 C-113.05998939 209.93407312 -143.73042135 194.70019905 -166.56640625 171.1328125 C-182.56786754 153.35341106 -192.87963975 131.28084109 -196.74609375 107.7109375 C-196.87628906 106.97617187 -197.00648438 106.24140625 -197.140625 105.484375 C-201.37005442 76.27311582 -193.2277107 45.80197517 -176.640625 21.64453125 C-174.75719105 19.2423071 -172.79904699 16.96918607 -170.74609375 14.7109375 C-169.66714844 13.45603516 -169.66714844 13.45603516 -168.56640625 12.17578125 C-125.65817388 -37.04248529 -49.83006665 -41.53686921 0 0 Z " fill="#000000" transform="translate(270.74609375,184.2890625)"/>
<path d="M0 0 C13.97483469 10.90577569 23.71357482 26.13809767 25.953125 43.89453125 C27.54059935 61.63896681 23.91438219 79.15761777 12.3359375 93.15625 C-0.20963537 107.60892572 -15.72612294 116.27822972 -34.984375 117.70703125 C-52.47349414 118.65643472 -67.56945474 112.83069541 -81.046875 101.89453125 C-94.00861911 90.07118377 -101.28587153 74.57154693 -102.421875 57.18359375 C-103.12783184 38.92272059 -98.13787677 22.27673113 -85.734375 8.51953125 C-62.70931188 -15.87152553 -27.39222302 -18.92872847 0 0 Z " fill="#000000" transform="translate(109.046875,19.10546875)"/>
<path d="M0 0 C2.55223542 2.23036596 4.98230525 4.53362359 7.3828125 6.92578125 C7.94871094 7.46847656 8.51460937 8.01117188 9.09765625 8.5703125 C20.29751795 20.3049156 23.01846504 35.63887149 22.69921875 51.18359375 C21.93757515 67.14942815 13.58181714 79.35889628 2.22265625 89.9375 C-10.879947 100.89993212 -27.112571 103.32536713 -43.6171875 101.92578125 C-57.76257449 99.32433077 -70.96134238 91.76198943 -79.65625 80.21875 C-89.01976675 65.97425112 -92.6314462 51.82247366 -90.15234375 34.71875 C-86.59104228 18.64021141 -77.13430369 5.39053847 -63.359375 -3.609375 C-43.70332394 -14.10940228 -17.99225892 -14.25953655 0 0 Z " fill="#000000" transform="translate(528.6171875,352.07421875)"/>
<path d="M0 0 C9.65241751 8.62637313 16.41567419 21.54801998 17.21484375 34.53125 C17.63311198 51.74838143 13.42161569 65.56440293 1.49609375 78.30078125 C-10.52715588 89.5597623 -24.17831448 93.18842053 -40.11328125 92.93359375 C-54.46325278 92.37690194 -66.30744914 85.29290021 -76.0234375 75.0390625 C-86.01223405 63.15785723 -90.03051771 48.99015501 -89.0234375 33.66015625 C-86.80729741 19.12377974 -79.90604379 6.9366309 -68.5390625 -2.375 C-46.64005466 -18.39119983 -21.16700573 -16.38118402 0 0 Z " fill="#000000" transform="translate(396.0234375,477.33984375)"/>
<path d="M0 0 C10.06159036 9.4759157 16.6658854 21.97459411 17.5703125 35.90625 C17.78902922 51.92724996 13.8173897 64.73145758 2.79663086 76.50976562 C-7.27709058 86.75887104 -20.59162352 92.59542572 -35.0078125 93.08984375 C-50.53023426 92.87881385 -63.19609484 86.65582407 -74.375 76.1953125 C-85.05461657 64.75814528 -88.16329161 50.5768912 -87.90625 35.4296875 C-87.32600451 21.31708309 -80.22722809 9.41222283 -70.1484375 -0.15234375 C-62.85765001 -6.152526 -54.83435418 -10.17786921 -45.6328125 -12.22265625 C-44.5603125 -12.47015625 -43.4878125 -12.71765625 -42.3828125 -12.97265625 C-26.5984601 -14.02494641 -12.17526703 -10.27852662 0 0 Z " fill="#000000" transform="translate(530.6328125,68.22265625)"/>
<path d="M0 0 C11.30711193 8.37851176 17.92583393 19.89058839 20.27734375 33.6875 C21.31761887 47.65119294 17.6318568 60.52245969 8.65234375 71.375 C-0.00196272 80.53077096 -10.97875113 85.89830651 -23.53125 87.03125 C-38.85985157 87.4017298 -50.30888427 82.59453037 -61.4296875 72.12890625 C-70.64798946 62.3138488 -74.32694583 49.68549144 -74.12939453 36.43701172 C-73.89781058 30.79266675 -72.88839942 25.88528361 -70.72265625 20.6875 C-70.46742188 20.0171875 -70.2121875 19.346875 -69.94921875 18.65625 C-64.96649896 7.13656754 -54.75571077 -0.95036537 -43.41015625 -5.625 C-28.64292859 -11.26080186 -13.13778142 -8.51720027 0 0 Z " fill="#000000" transform="translate(200.72265625,510.3125)"/>
<path d="M0 0 C11.28485259 9.58681834 17.09311274 20.8862777 18.66015625 35.6015625 C19.20676312 48.91634512 14.70682522 60.52326321 5.8125 70.3125 C-3.39850581 80.02086033 -15.29172323 85.0293637 -28.5625 85.625 C-43.14243615 85.21357323 -55.31784859 78.7285681 -65.1875 68.3125 C-73.31832311 58.50665754 -77.22629372 45.98578339 -76.1875 33.3125 C-73.94742688 19.07833461 -68.04970948 8.11877904 -56.4765625 -0.76953125 C-39.01422929 -12.38662968 -17.03920132 -12.96629087 0 0 Z " fill="#000000" transform="translate(335.1875,9.6875)"/>
<path d="M0 0 C7.51221481 6.32749276 13.10802562 15.1422529 15.1796875 24.8359375 C16.18907882 39.12603461 14.83106691 51.46377456 5.1875 62.83984375 C-3.66244988 71.63814023 -14.97336724 76.92001362 -27.4453125 77.0859375 C-38.30844931 76.97348267 -45.86413848 73.82277067 -54.8203125 67.8359375 C-56.150625 66.9696875 -56.150625 66.9696875 -57.5078125 66.0859375 C-66.6113203 57.22847045 -71.14207149 46.49704016 -71.3203125 33.8359375 C-71.13247829 21.51605184 -66.97357938 12.01580186 -58.8203125 2.8359375 C-42.30956339 -12.55489645 -17.94721751 -13.58942668 0 0 Z " fill="#000000" transform="translate(444.8203125,212.1640625)"/>
<path d="M0 0 C7.50133108 6.47092846 13.18855244 13.71668468 15.0625 23.6875 C15.90460574 36.07059593 15.24644057 46.15038549 6.875 56 C-1.78365616 64.89878202 -10.8427258 69.56600647 -23.375 70.125 C-33.76670901 69.7697279 -43.2679402 65.65379567 -50.9375 58.6875 C-59.02816276 49.32980892 -62.15176224 40.02900489 -61.9375 27.6875 C-60.50146021 16.31071872 -54.93887853 6.80693351 -45.9375 -0.3125 C-31.52890884 -9.20290731 -14.15253668 -10.57866378 0 0 Z " fill="#000000" transform="translate(61.9375,404.3125)"/>
</svg>
