<?xml version="1.0" encoding="UTF-8"?>
<svg version="1.1" xmlns="http://www.w3.org/2000/svg" width="423" height="664">
<path d="M0 0 C8.59921505 3.50847974 18.61028587 3.07120665 27.74755859 3.40283203 C34.05874562 3.65056087 40.1536311 4.30861638 46.390625 5.328125 C50.80542727 5.90902004 55.19435978 6.11033653 59.640625 6.296875 C65.60975283 6.54946225 71.23738172 7.09137642 77.09375 8.328125 C81.55428622 9.05936045 86.04681032 9.18883642 90.55517578 9.40234375 C95.975332 9.68110151 101.21086964 10.41377609 106.5625 11.328125 C110.60922925 11.88758066 114.62519134 12.1056181 118.703125 12.296875 C123.8830657 12.54259087 128.75907179 13.00445012 133.78125 14.328125 C136.52280949 14.91982849 139.21861761 15.10205856 142.015625 15.296875 C146.05524868 15.58578159 149.68169612 16.1705467 153.59375 17.26171875 C159.60028574 18.62412835 165.83898112 19.08911066 171.953125 19.796875 C174.76635876 20.12430753 177.57891025 20.45663556 180.390625 20.796875 C181.06657715 20.8786499 181.7425293 20.9604248 182.43896484 21.04467773 C185.87585654 21.47758817 189.21768702 22.02081839 192.578125 22.859375 C196.31054864 23.78359419 199.92770684 24.02511011 203.765625 24.234375 C210.43160115 24.62606457 216.55465541 25.9335844 222.953125 27.796875 C222.623125 28.786875 222.293125 29.776875 221.953125 30.796875 C215.93369903 33.16880292 209.26982934 33.94490621 202.890625 34.796875 C194.32055197 35.94963014 186.40628258 37.69130944 178.7734375 41.84765625 C176.953125 42.796875 176.953125 42.796875 173.578125 43.984375 C166.51961315 46.91186839 159.06466064 54.04591982 155.953125 61.046875 C155.623125 61.954375 155.293125 62.861875 154.953125 63.796875 C154.43272043 65.17203733 153.91185869 66.54702672 153.390625 67.921875 C150.88151885 74.60415771 150.76698186 80.31936339 150.76782227 87.45605469 C150.76564735 89.52560347 150.74751276 91.59460879 150.72851562 93.6640625 C150.72658203 94.98148437 150.72464844 96.29890625 150.72265625 97.65625 C150.71854736 98.85733398 150.71443848 100.05841797 150.71020508 101.29589844 C150.96982644 105.03757716 151.84495875 108.22360972 152.953125 111.796875 C153.17676747 113.81219859 153.34641172 115.83449046 153.453125 117.859375 C153.7595264 122.2081247 154.4952692 125.68057627 155.953125 129.796875 C156.49031552 132.65741452 156.93732491 135.52796902 157.39453125 138.40234375 C159.10615442 148.80374609 161.4413188 159.00985327 164.046875 169.21484375 C164.91845602 172.65984288 165.71856901 176.10921062 166.46875 179.58203125 C167.04165151 182.20166962 167.65447158 184.81089177 168.265625 187.421875 C169.25517873 191.67995467 170.20403583 195.94360697 171.1171875 200.21875 C173.23491312 210.12779716 175.41992121 219.96917991 178.12890625 229.734375 C178.79597387 232.21295801 179.34644854 234.65380399 179.828125 237.171875 C180.79181458 241.68916991 182.30977998 246.00454071 183.828125 250.359375 C184.07288574 251.06819824 184.31764648 251.77702148 184.56982422 252.50732422 C186.10673678 256.82007885 187.92914982 260.85099334 190.02490234 264.91918945 C191.33847933 267.57640161 192.32894932 270.32089536 193.328125 273.109375 C199.32448625 288.9713092 208.89273097 306.50842309 224.953125 313.796875 C232.61045714 316.80460383 239.66282928 317.2013014 247.828125 317.046875 C248.941875 317.04171875 250.055625 317.0365625 251.203125 317.03125 C257.6545901 317.01789948 257.6545901 317.01789948 263.953125 315.796875 C265.21049744 327.53235115 259.34651495 339.05165741 253.54296875 348.9765625 C249.92936929 353.1140007 244.31187785 353.42909627 239.140625 354.296875 C238.40521484 354.42433105 237.66980469 354.55178711 236.91210938 354.68310547 C230.91983996 355.69586541 224.90859852 356.48839845 218.86791992 357.15039062 C215.62674693 357.27871872 215.62674693 357.27871872 212.953125 358.796875 C212.49093329 363.09881323 212.48917864 366.75851887 214.265625 370.734375 C216.36201827 373.29663344 217.98125739 374.68817928 221.328125 375.0625 C222.194375 375.05734375 223.060625 375.0521875 223.953125 375.046875 C224.819375 375.05203125 225.685625 375.0571875 226.578125 375.0625 C229.21892 374.95102052 229.21892 374.95102052 231.953125 372.796875 C234.28560261 372.45760553 236.61897971 372.12447434 238.953125 371.796875 C240.29500318 371.1475791 241.62791997 370.47955638 242.953125 369.796875 C247.07170247 368.53818293 250.61938607 367.796875 254.953125 367.796875 C256.15476044 371.40178132 256.26902083 374.84887678 256.453125 378.609375 C256.72363827 384.14689928 256.72363827 384.14689928 257.45092773 389.63989258 C258.39919353 395.60101316 258.35641612 401.64653207 258.515625 407.671875 C258.54689484 408.81450806 258.54689484 408.81450806 258.57879639 409.98022461 C259.45842548 443.23478469 259.2503866 476.54163593 258.515625 509.796875 C258.4960675 510.71911865 258.47651001 511.6413623 258.45635986 512.59155273 C258.39947545 515.18099206 258.33603928 517.77016674 258.26953125 520.359375 C258.25280869 521.10264038 258.23608612 521.84590576 258.21885681 522.61169434 C258.10189395 526.72911784 257.73207925 530.7308737 257.18247986 534.81152344 C256.79542868 538.16193276 256.73758189 541.52202581 256.671875 544.890625 C256.64426086 546.01531189 256.64426086 546.01531189 256.61608887 547.16271973 C256.55798101 549.54070033 256.5050131 551.91875115 256.453125 554.296875 C255.79330373 583.99499867 255.79330373 583.99499867 253.953125 594.796875 C253.77315518 596.72438987 253.61902012 598.65445878 253.48828125 600.5859375 C253.4116626 601.68301025 253.33504395 602.78008301 253.25610352 603.91040039 C253.13706665 605.64858032 253.13706665 605.64858032 253.015625 607.421875 C250.09960868 647.79225941 250.09960868 647.79225941 244.890625 654.421875 C242.953125 655.796875 242.953125 655.796875 240.953125 655.796875 C240.953125 656.456875 240.953125 657.116875 240.953125 657.796875 C229.67820644 662.51184094 218.109737 661.97296342 206.08203125 662 C205.23224134 662.00282738 204.38245144 662.00565475 203.50691032 662.00856781 C199.02421642 662.02347182 194.54155408 662.0327611 190.05883789 662.03710938 C185.42606198 662.04263177 180.79357441 662.06676285 176.16088963 662.09508133 C172.59479396 662.11365143 169.02876926 662.11890992 165.46262932 662.12044525 C163.7533298 662.12347684 162.04403168 662.13152238 160.33477974 662.14463043 C157.95545938 662.16159967 155.5768653 662.15983545 153.19750977 662.15332031 C152.13546829 662.16714249 152.13546829 662.16714249 151.05197144 662.1812439 C149.09425354 662.16436768 149.09425354 662.16436768 145.953125 661.796875 C143.49884858 658.11546037 143.68484594 655.37355525 143.72607422 651.11883545 C143.7257765 650.32731591 143.72547878 649.53579636 143.72517204 648.72029138 C143.72656601 646.05398081 143.742279 643.38794265 143.7578125 640.72167969 C143.76165204 638.80956681 143.76457908 636.89745191 143.7666626 634.9853363 C143.77301156 630.84070941 143.78559818 626.69616301 143.80279541 622.55156708 C143.83012091 615.87766674 143.84170222 609.20379256 143.85107422 602.52984619 C143.87698089 585.85520387 143.92462928 569.18062986 143.97387695 552.50604248 C144.12790737 499.99389424 144.16147034 447.49455235 143.19997406 394.98902607 C143.14183826 391.75499258 143.08766049 388.52091503 143.03448486 385.28679657 C142.68914727 364.71651111 142.13357038 344.19656741 140.56640625 323.67871094 C140.50949301 322.90335763 140.45257977 322.12800431 140.39394188 321.32915545 C138.57189047 297.09879141 131.57715332 274.49922665 112.82421875 257.9140625 C112.18613281 257.38039063 111.54804688 256.84671875 110.890625 256.296875 C109.92125 255.471875 108.951875 254.646875 107.953125 253.796875 C107.953125 253.136875 107.953125 252.476875 107.953125 251.796875 C107.22738281 251.52617187 106.50164062 251.25546875 105.75390625 250.9765625 C103.02046968 249.82524054 100.65429451 248.4893652 98.140625 246.921875 C90.87592607 242.39477061 83.27560801 238.99710657 75.328125 235.859375 C74.01859863 235.33778809 74.01859863 235.33778809 72.68261719 234.80566406 C66.46154864 232.34510922 60.19190191 230.08873737 53.875 227.88671875 C50.06086362 226.46406627 46.56567396 224.66765928 42.953125 222.796875 C40.95372533 222.12841004 38.95358493 221.46216029 36.953125 220.796875 C33.66693565 219.54342124 30.40411437 218.23312017 27.140625 216.921875 C25.86348633 216.41333984 25.86348633 216.41333984 24.56054688 215.89453125 C18.18029645 213.33854365 11.89804694 210.60035144 5.64770508 207.74291992 C1.67738167 205.92800861 -2.3054443 204.31532847 -6.421875 202.859375 C-11.0513258 201.20737181 -15.48556224 199.29695467 -19.94140625 197.2265625 C-23.74822412 195.47398975 -27.58203344 193.78807776 -31.421875 192.109375 C-32.10016357 191.81184326 -32.77845215 191.51431152 -33.47729492 191.20776367 C-36.97870943 189.67749655 -40.49552581 188.20666687 -44.046875 186.796875 C-44.48270926 182.35430201 -44.90947729 177.91096892 -45.32861328 173.46679688 C-45.47175879 171.96168752 -45.61718771 170.45679321 -45.76513672 168.95214844 C-47.18627368 154.47008603 -47.39841371 140.53983937 -45.671875 126.046875 C-45.54554687 124.90605469 -45.41921875 123.76523438 -45.2890625 122.58984375 C-44.60896748 116.66621609 -43.70008387 110.88443423 -42.46630859 105.05322266 C-41.83258053 101.64407553 -41.68763789 98.3256612 -41.546875 94.859375 C-41.32967038 90.36647645 -41.00092378 86.01483553 -40.046875 81.609375 C-38.90407185 76.16035706 -38.83464698 70.77870541 -38.671875 65.234375 C-38.44671829 58.67518944 -38.13229589 53.11349693 -35.1640625 47.14453125 C-33.22570581 43.07127121 -32.14411847 38.70658677 -30.87890625 34.38671875 C-30.046875 31.796875 -30.046875 31.796875 -29.046875 30.796875 C-26.23386055 30.55575948 -24.18882733 30.74912145 -21.50390625 31.65234375 C-17.03254238 33.1326936 -12.50326095 34.21357151 -7.921875 35.296875 C-6.98408203 35.51972168 -6.04628906 35.74256836 -5.08007812 35.97216797 C0.65830322 37.31542575 6.37869343 38.45525914 12.20703125 39.33984375 C17.51311205 40.22293259 22.72317897 41.54987719 27.953125 42.796875 C30.16127894 43.29766667 32.36961126 43.79767248 34.578125 44.296875 C39.47969963 45.4266497 44.32782958 46.68557922 49.171875 48.0390625 C53.26822125 49.15520179 57.39305516 50.15035616 61.51953125 51.1484375 C63.953125 51.796875 63.953125 51.796875 65.953125 52.796875 C67.38706153 52.97435634 68.8256214 53.11578647 70.265625 53.234375 C73.86229199 53.59518713 76.60561792 54.42353876 79.953125 55.796875 C81.30335777 55.99287653 82.65841263 56.15716196 84.015625 56.296875 C87.49927569 56.73924334 88.9834591 57.26414421 91.953125 58.796875 C93.108125 58.961875 94.263125 59.126875 95.453125 59.296875 C98.6599716 59.75499594 100.16897087 60.36261378 102.953125 61.796875 C104.8898975 62.29401446 106.82752767 62.78823099 108.77075195 63.25952148 C110.76939687 63.75163665 112.75661302 64.28958049 114.7421875 64.83203125 C128.99171269 69.11232307 128.99171269 69.11232307 143.26171875 67.9140625 C145.51504134 66.42572472 146.16279965 65.38339431 146.953125 62.796875 C146.87530305 59.06142138 146.45035395 57.35625757 143.953125 54.546875 C140.02751562 52.25693619 136.38339425 51.62263525 131.953125 50.796875 C129.86771098 50.32684645 127.78448617 49.84703692 125.703125 49.359375 C122.38978236 48.59061801 119.07625796 47.82457239 115.7578125 47.078125 C109.89079298 45.75191911 104.06982448 44.31243501 98.265625 42.734375 C90.45158955 40.62874865 82.68949408 39.07077436 74.703125 37.796875 C70.59488439 37.1322297 66.90042803 36.11264268 62.953125 34.796875 C60.76834285 34.50961661 58.59204211 34.30250425 56.39453125 34.140625 C53.14496608 33.68308622 50.10483083 32.70602091 46.953125 31.796875 C44.60523662 31.30739541 42.25030733 30.85090815 39.890625 30.421875 C38.87838867 30.23516235 38.87838867 30.23516235 37.84570312 30.04467773 C33.7613943 29.29420888 29.67253311 28.57132478 25.58203125 27.85546875 C23.70555352 27.52443161 21.82925313 27.19238774 19.953125 26.859375 C19.0146875 26.69284424 18.07625 26.52631348 17.109375 26.35473633 C11.46457545 25.32774003 5.93070813 24.09671877 0.390625 22.609375 C-5.51586478 21.03592485 -10.97268244 20.3552532 -17.08203125 20.36328125 C-20.13435949 19.78016189 -21.00988781 19.20411422 -23.35546875 17.3359375 C-27.41598537 14.21618414 -31.03946458 13.89914029 -36.046875 13.609375 C-37.72020897 13.47459004 -39.39338594 13.33784274 -41.06640625 13.19921875 C-41.89736816 13.13589355 -42.72833008 13.07256836 -43.58447266 13.00732422 C-47.31893777 12.68815815 -51.02322771 12.19098304 -54.734375 11.671875 C-55.95511719 11.50429687 -57.17585938 11.33671875 -58.43359375 11.1640625 C-59.29597656 11.04289063 -60.15835938 10.92171875 -61.046875 10.796875 C-60.716875 9.806875 -60.386875 8.816875 -60.046875 7.796875 C-57.30859375 6.69921875 -57.30859375 6.69921875 -53.734375 5.734375 C-53.10063965 5.56301025 -52.4669043 5.39164551 -51.81396484 5.21508789 C-47.00249602 3.95230314 -42.18796462 3.03869041 -37.2734375 2.296875 C-33.34844619 1.6886439 -29.44986683 0.96899872 -25.546875 0.234375 C-24.86383301 0.10732178 -24.18079102 -0.01973145 -23.47705078 -0.15063477 C-20.91509145 -0.63247701 -18.37073803 -1.11856396 -15.84765625 -1.77734375 C-10.15265636 -3.12388385 -5.24630645 -2.50499317 0 0 Z M-31.046875 72.796875 C-31.5534386 74.81823539 -31.5534386 74.81823539 -31.734375 77.171875 C-31.82074219 77.96335937 -31.90710938 78.75484375 -31.99609375 79.5703125 C-32.17627289 81.97164226 -32.17627289 81.97164226 -31.046875 84.796875 C-25.37895427 88.06682926 -19.34804163 90.26670526 -13.234375 92.56640625 C-9.74840935 93.91209152 -6.36122041 95.41535436 -2.9609375 96.9609375 C-0.37730175 98.08930087 2.26858025 98.9401054 4.953125 99.796875 C6.80429668 100.49106438 8.6552063 101.18597344 10.50390625 101.88671875 C13.5382247 103.01430439 16.58918062 104.0915079 19.640625 105.171875 C25.30865269 107.18971695 30.93038222 109.30386412 36.5390625 111.48046875 C41.01562449 113.2065573 45.50916886 114.88566298 50.00463867 116.56176758 C54.23321875 118.14144755 58.43962269 119.76985238 62.640625 121.421875 C67.98385999 123.49171727 73.38813447 125.184716 78.875 126.828125 C95.08645833 131.93020833 95.08645833 131.93020833 98.953125 135.796875 C99.32401461 137.60206426 99.65053804 139.41648928 99.953125 141.234375 C100.55868019 145.14370038 100.55868019 145.14370038 101.953125 148.796875 C102.18170614 150.8343513 102.36336778 152.87727803 102.515625 154.921875 C102.59941406 156.01757812 102.68320313 157.11328125 102.76953125 158.2421875 C102.83011719 159.08523437 102.89070312 159.92828125 102.953125 160.796875 C96.68808488 158.42222269 90.43862867 156.02786953 84.265625 153.421875 C78.4025312 150.95033147 72.47880754 148.65073941 66.53442383 146.38330078 C62.82126182 144.95640521 59.16979735 143.46085739 55.55078125 141.80859375 C49.80380672 139.22011904 43.85452202 137.27510302 37.88671875 135.265625 C37.03464844 134.97429687 36.18257813 134.68296875 35.3046875 134.3828125 C34.53979004 134.1254834 33.77489258 133.8681543 32.98681641 133.60302734 C30.953125 132.796875 30.953125 132.796875 27.953125 130.796875 C25.80033462 130.08667611 23.63132776 129.42482534 21.453125 128.796875 C17.78421507 127.73917124 15.1420454 126.92282193 11.953125 124.796875 C9.95804433 124.11562794 7.95673807 123.45260291 5.953125 122.796875 C4.36677087 122.1584976 2.78369236 121.51194834 1.203125 120.859375 C-10.12206896 116.10358794 -10.12206896 116.10358794 -22.046875 116.796875 C-24.84184684 118.74827387 -24.84184684 118.74827387 -26.046875 121.796875 C-26.02190761 125.4702549 -26.02190761 125.4702549 -24.046875 128.796875 C-19.95849341 131.93582201 -15.06988314 133.19890939 -10.11328125 134.3046875 C-4.40432334 135.6644771 1.11815949 137.82359662 6.58984375 139.91796875 C8.47981635 140.62085112 10.38084376 141.29398224 12.28515625 141.95703125 C17.98040402 143.94036035 23.44807655 145.92348704 28.765625 148.765625 C31.75373224 150.17430413 34.83338361 151.21289706 37.953125 152.296875 C42.46050069 153.86465785 46.65469914 155.54138264 50.859375 157.77734375 C53.51812352 159.07199555 56.24461776 160.07697303 59.015625 161.109375 C63.94943649 162.9631192 68.70297541 165.02692446 73.453125 167.296875 C79.19760952 170.03634797 84.99396878 172.45557953 90.96484375 174.671875 C93.70665126 175.70408489 96.38575214 176.83110662 99.078125 177.984375 C104.13824957 180.01672012 109.48173426 181.5499025 114.953125 181.796875 C117.48569091 179.26430909 117.21369285 177.63645409 117.2265625 174.17773438 C117.21882812 173.45392578 117.21109375 172.73011719 117.203125 171.984375 C117.21085938 171.27216797 117.21859375 170.55996094 117.2265625 169.82617188 C117.21105543 165.635386 116.61782346 162.60278411 114.953125 158.796875 C114.54577735 156.59773016 114.19372213 154.38779519 113.890625 152.171875 C113.43491421 148.88021194 113.00455547 145.95116641 111.953125 142.796875 C111.8275218 141.06913315 111.72603657 139.33956947 111.640625 137.609375 C111.0158563 130.55042121 109.34721132 125.93627129 104.015625 121.171875 C94.72637785 115.28017491 83.98117482 111.52203396 73.82421875 107.390625 C70.94019642 106.21307999 68.09417298 104.97816904 65.265625 103.671875 C60.39794353 101.46015177 55.34388295 99.78326842 50.30078125 98.01953125 C47.58619749 97.02809051 45.00278647 95.96108066 42.390625 94.734375 C38.82223216 93.07975709 35.22340014 91.91706079 31.453125 90.796875 C26.9080445 89.44648692 22.69980136 87.88841898 18.41796875 85.87109375 C14.04388934 83.96479924 9.50432174 82.48867868 4.9921875 80.9453125 C1.953125 79.796875 1.953125 79.796875 -1.046875 77.796875 C-4.59814212 76.57726338 -8.2352841 75.65110577 -11.859375 74.671875 C-12.84486328 74.39472656 -13.83035156 74.11757812 -14.84570312 73.83203125 C-22.98720659 71.30192763 -22.98720659 71.30192763 -31.046875 72.796875 Z " fill="#000000" transform="translate(94.046875,2.203125)"/>
<path d="M0 0 C2.68809699 0.66050383 5.28648568 0.69783965 8.05078125 0.81640625 C19.24510037 1.60970446 29.37474092 5.38510393 38.05078125 12.50390625 C38.87578125 12.91640625 39.70078125 13.32890625 40.55078125 13.75390625 C45.17475266 16.99068623 47.50673865 21.15423035 48.7734375 26.625 C49.11504058 28.7328175 49.42325249 30.84642905 49.69140625 32.96484375 C49.91187219 35.49063289 49.91187219 35.49063289 51.05078125 37.50390625 C51.26552554 40.13992963 51.42784898 42.75785577 51.55078125 45.3984375 C51.59138672 46.18280685 51.63199219 46.96717621 51.67382812 47.77531433 C51.80369512 50.28881829 51.92781465 52.80255587 52.05078125 55.31640625 C52.17400001 57.8195279 52.29857806 60.32254047 52.42773438 62.82536316 C52.50809628 64.38338167 52.58506975 65.94157968 52.65820312 67.49995422 C52.85216499 71.26910435 53.30860734 74.81249866 54.05078125 78.50390625 C54.17386438 80.7754911 54.25127526 83.04975885 54.296875 85.32421875 C54.32845316 86.667895 54.3603671 88.01156338 54.39257812 89.35522461 C54.40796631 90.05291962 54.42335449 90.75061462 54.43920898 91.4694519 C54.6761503 101.89619607 55.0256015 112.23810932 56.32006836 122.59619141 C57.23737105 130.24750463 57.44717296 137.91672099 57.62109375 145.61694336 C57.75967185 150.47386967 58.08097818 155.06131643 59.06640625 159.82421875 C60.42111795 166.65913197 60.34313262 173.43328134 60.30078125 180.37890625 C60.30851563 181.67054688 60.31625 182.9621875 60.32421875 184.29296875 C60.32164062 185.535625 60.3190625 186.77828125 60.31640625 188.05859375 C60.31415039 189.17733887 60.31189453 190.29608398 60.30957031 191.44873047 C60.04793543 194.53750307 59.32639347 196.7011138 58.05078125 199.50390625 C57.70426934 200.93358873 57.39060017 202.37170673 57.11328125 203.81640625 C56.17225878 208.24950429 54.76387758 212.31633745 53.05078125 216.50390625 C52.61765625 217.61765625 52.18453125 218.73140625 51.73828125 219.87890625 C48.33250222 227.19502418 44.02486161 234.1481369 39.05078125 240.50390625 C38.39078125 240.50390625 37.73078125 240.50390625 37.05078125 240.50390625 C36.80328125 241.06078125 36.55578125 241.61765625 36.30078125 242.19140625 C34.15322268 246.16438961 31.81160077 248.99669324 28.05078125 251.50390625 C26.97828125 251.79265625 25.90578125 252.08140625 24.80078125 252.37890625 C21.43969063 253.38723344 18.91003112 254.70195588 15.921875 256.4921875 C10.12753454 259.62524424 3.64062452 260.91145842 -2.78515625 262.07421875 C-5.11732518 262.49026796 -5.11732518 262.49026796 -7.94921875 263.50390625 C-10.40534829 263.62530116 -12.86512071 263.67932817 -15.32421875 263.69140625 C-16.63132812 263.70558594 -17.9384375 263.71976562 -19.28515625 263.734375 C-22.79289486 263.51373899 -24.7986753 262.9291521 -27.94921875 261.50390625 C-29.08230469 261.21773438 -30.21539062 260.9315625 -31.3828125 260.63671875 C-40.13640418 257.8562789 -48.5254365 250.59477115 -52.94921875 242.50390625 C-52.94921875 241.84390625 -52.94921875 241.18390625 -52.94921875 240.50390625 C-53.60921875 240.50390625 -54.26921875 240.50390625 -54.94921875 240.50390625 C-56.38671875 238.7109375 -56.38671875 238.7109375 -57.94921875 236.31640625 C-58.46484375 235.53910156 -58.98046875 234.76179687 -59.51171875 233.9609375 C-60.93505746 231.52811128 -61.94025124 229.13062757 -62.94921875 226.50390625 C-63.54734375 225.39015625 -64.14546875 224.27640625 -64.76171875 223.12890625 C-67.63346749 217.47081395 -69.41381317 211.40150766 -71.34228516 205.37597656 C-72.23754969 202.61455722 -73.19247035 199.87389601 -74.13671875 197.12890625 C-75.47137311 193.11962582 -76.56189773 189.17030329 -77.3984375 185.03125 C-77.80687868 183.15705535 -78.27774264 181.29623393 -78.78125 179.4453125 C-84.0052775 160.11016688 -86.94041231 140.05833489 -88.58984375 120.1171875 C-88.81000488 116.55357634 -88.81000488 116.55357634 -89.94921875 113.50390625 C-90.1504599 111.93764921 -90.31276086 110.36619422 -90.44921875 108.79296875 C-90.57296875 107.42011719 -90.57296875 107.42011719 -90.69921875 106.01953125 C-90.78171875 105.065625 -90.86421875 104.11171875 -90.94921875 103.12890625 C-91.11340668 101.24587598 -91.27999766 99.36305339 -91.44921875 97.48046875 C-91.5575 96.2287085 -91.5575 96.2287085 -91.66796875 94.95166016 C-91.91593413 92.48835814 -91.91593413 92.48835814 -92.44921875 90.02905273 C-92.97262778 87.3856838 -93.23662385 84.81067155 -93.44921875 82.125 C-93.53171875 81.12146484 -93.61421875 80.11792969 -93.69921875 79.08398438 C-93.86619422 76.98505058 -94.03285975 74.88609212 -94.19921875 72.78710938 C-94.28171875 71.78486328 -94.36421875 70.78261719 -94.44921875 69.75 C-94.5575 68.38379517 -94.5575 68.38379517 -94.66796875 66.98999023 C-94.88591461 64.56388632 -94.88591461 64.56388632 -95.45898438 62.48852539 C-97.88668187 52.66046117 -97.90914865 39.27354735 -92.76171875 30.44140625 C-91.53984494 28.7589054 -90.27541869 27.10546126 -88.94921875 25.50390625 C-88.22734375 24.45203125 -87.50546875 23.40015625 -86.76171875 22.31640625 C-80.46093358 16.01562108 -71.67974424 8.05450058 -62.69921875 6.50390625 C-61.81878906 6.34792969 -60.93835938 6.19195312 -60.03125 6.03125 C-58.50564453 5.77021484 -58.50564453 5.77021484 -56.94921875 5.50390625 C-55.77746094 5.27832031 -54.60570312 5.05273438 -53.3984375 4.8203125 C-12.01530022 -3.05800226 -12.01530022 -3.05800226 0 0 Z M6.86328125 28.37890625 C5.14044922 28.65154297 5.14044922 28.65154297 3.3828125 28.9296875 C0.58508212 29.41182861 -2.17607681 29.96275997 -4.94921875 30.56640625 C-9.95996409 31.61784134 -14.96171886 31.95645144 -20.06640625 32.2578125 C-22.79454609 32.40458315 -22.79454609 32.40458315 -24.75610352 32.99243164 C-27.48727491 33.62939079 -30.12184076 33.77491869 -32.921875 33.93359375 C-34.06849609 34.00707031 -35.21511719 34.08054687 -36.39648438 34.15625 C-38.81006611 34.30489847 -41.22415653 34.44550219 -43.63867188 34.578125 C-44.78400391 34.65417969 -45.92933594 34.73023438 -47.109375 34.80859375 C-48.15746338 34.87030762 -49.20555176 34.93202148 -50.28540039 34.99560547 C-52.90768269 35.34872792 -52.90768269 35.34872792 -54.82104492 36.56152344 C-56.6264831 39.66995584 -56.10424147 42.81572725 -55.83984375 46.27734375 C-55.79357849 47.03810211 -55.74731323 47.79886047 -55.699646 48.58267212 C-55.54758711 51.01595721 -55.37326223 53.44710539 -55.19921875 55.87890625 C-55.0962841 57.50902852 -54.99470595 59.13923705 -54.89453125 60.76953125 C-54.32902272 69.68505995 -54.32902272 69.68505995 -52.94921875 78.50390625 C-52.75136944 80.72009329 -52.58777943 82.93947386 -52.44921875 85.16015625 C-52.36671875 86.42988281 -52.28421875 87.69960937 -52.19921875 89.0078125 C-52.07344427 91.00890413 -51.94883514 93.01006642 -51.82421875 95.01123047 C-51.7019291 96.95687798 -51.57561938 98.90227149 -51.44921875 100.84765625 C-51.37703125 102.00458984 -51.30484375 103.16152344 -51.23046875 104.35351562 C-50.98086544 107.14941932 -50.51346622 109.75981212 -49.94921875 112.50390625 C-49.75573207 114.35546632 -49.59064825 116.21014401 -49.44921875 118.06640625 C-49.32546875 119.63261719 -49.32546875 119.63261719 -49.19921875 121.23046875 C-49.03255208 123.41276042 -48.86588542 125.59505208 -48.69921875 127.77734375 C-48.57546875 129.34355469 -48.57546875 129.34355469 -48.44921875 130.94140625 C-48.37703125 131.88886719 -48.30484375 132.83632812 -48.23046875 133.8125 C-47.95722348 136.42730541 -47.47396799 138.92990935 -46.94921875 141.50390625 C-46.68863929 145.27196792 -46.50705478 149.03974664 -46.328125 152.8125 C-45.96668033 156.33379088 -45.20710044 159.20896919 -43.94921875 162.50390625 C-39.33659837 163.68662942 -36.1696388 163.23179295 -31.6875 162.109375 C-27.10458407 161.0960341 -22.45311806 160.60059875 -17.80078125 160.00390625 C-7.12220496 158.62596562 -7.12220496 158.62596562 3.42578125 156.50390625 C8.64185722 155.2788462 13.93318276 154.68824926 19.2421875 154.00390625 C22.76882552 153.54092198 26.28597231 153.04923418 29.80078125 152.50390625 C30.744375 152.35953125 31.68796875 152.21515625 32.66015625 152.06640625 C35.29515872 151.5933197 35.29515872 151.5933197 38.05078125 149.50390625 C37.76840391 145.41987645 37.47312762 141.33687131 37.17578125 137.25390625 C37.09714844 136.114375 37.01851563 134.97484375 36.9375 133.80078125 C36.53177253 128.30785547 36.01122926 122.91707288 35.046875 117.4921875 C33.89414159 111.00053491 33.42099902 104.51495359 32.98828125 97.94140625 C32.83421248 95.64820082 32.67682115 93.35521545 32.515625 91.0625 C32.41689087 89.56674438 32.41689087 89.56674438 32.31616211 88.04077148 C32.13038041 85.38302268 32.13038041 85.38302268 31.05078125 82.50390625 C30.84780836 80.79167487 30.68623651 79.07435972 30.55078125 77.35546875 C30.46828125 76.35 30.38578125 75.34453125 30.30078125 74.30859375 C30.21828125 73.25929687 30.13578125 72.21 30.05078125 71.12890625 C29.88677925 69.05838096 29.72020031 66.98805783 29.55078125 64.91796875 C29.4425 63.5405249 29.4425 63.5405249 29.33203125 62.13525391 C29.09148866 59.50053256 29.09148866 59.50053256 28.53051758 56.92675781 C28.08316676 54.66746543 27.91264671 52.62148078 27.875 50.32421875 C27.83922852 49.17759766 27.83922852 49.17759766 27.80273438 48.0078125 C27.7599846 46.42995714 27.72861512 44.8517498 27.70898438 43.2734375 C27.50394783 37.59917031 26.31701474 34.17945901 23.05078125 29.50390625 C17.87529907 26.45169881 12.57660524 27.47423863 6.86328125 28.37890625 Z M18.05078125 186.50390625 C15.20416579 191.23817097 15.41260969 196.13528797 16.05078125 201.50390625 C18.42522682 205.88749808 21.38161943 207.86105302 26.05078125 209.50390625 C31.37491018 210.30472564 35.59980975 210.26790495 40.11328125 207.12890625 C43.36954427 204.28960956 43.36954427 204.28960956 44.359375 200.40234375 C44.67282276 194.26636648 43.73991157 190.79594687 39.6796875 186.1328125 C35.96053535 182.41366035 33.26693253 181.31255425 28.05078125 181.00390625 C23.10520977 181.15109588 21.02276612 182.41742706 18.05078125 186.50390625 Z M-36.94921875 194.50390625 C-36.94921875 195.16390625 -36.94921875 195.82390625 -36.94921875 196.50390625 C-37.60921875 196.50390625 -38.26921875 196.50390625 -38.94921875 196.50390625 C-40.4115209 199.42851054 -40.15830602 202.06043449 -40.19921875 205.31640625 C-40.225 206.53972656 -40.25078125 207.76304687 -40.27734375 209.0234375 C-39.92178129 212.79493934 -39.31895711 214.57688876 -36.94921875 217.50390625 C-31.42471285 220.92851115 -25.35118727 222.48047772 -18.94921875 221.50390625 C-15.53397267 219.10596751 -14.25029459 217.37171309 -12.88671875 213.44140625 C-12.98700367 207.12345658 -14.59500798 200.85119117 -18.2734375 195.62109375 C-20.91565053 193.08746481 -23.39878117 192.20869478 -26.94921875 192.06640625 C-30.50476738 192.29204684 -33.63476421 193.17812443 -36.94921875 194.50390625 Z M0.17578125 195.87890625 C-2.53416951 199.22649248 -4.81735397 199.62985793 -8.94921875 200.50390625 C-8.92859375 201.45265625 -8.90796875 202.40140625 -8.88671875 203.37890625 C-8.94921875 206.50390625 -8.94921875 206.50390625 -9.94921875 208.50390625 C-10.3336808 211.44894097 -10.46277104 214.41483731 -10.63671875 217.37890625 C-10.69666016 218.19488281 -10.75660156 219.01085937 -10.81835938 219.8515625 C-10.86541016 220.64175781 -10.91246094 221.43195313 -10.9609375 222.24609375 C-11.00694092 222.96651855 -11.05294434 223.68694336 -11.1003418 224.42919922 C-10.8515818 227.84432432 -9.58907572 229.91410152 -7.1015625 232.20703125 C-2.44046931 235.46239792 1.0952918 237.17082439 6.8125 237.203125 C10.31924168 236.10765072 12.90174059 234.45203165 15.05078125 231.50390625 C15.8608953 228.311148 15.76199011 225.27887392 15.61328125 222.00390625 C15.59031982 221.11695068 15.5673584 220.22999512 15.54370117 219.31616211 C15.20673083 206.41893821 15.20673083 206.41893821 9.67578125 195.19140625 C7.18628788 193.38942932 7.18628788 193.38942932 4.48828125 192.87890625 C1.82213707 193.29999365 1.82213707 193.29999365 0.17578125 195.87890625 Z " fill="#000000" transform="translate(362.94921875,39.49609375)"/>
<path d="M0 0 C3.01916222 0.63882372 5.45057587 1.64172433 8.16015625 3.109375 C8.9485791 3.53186523 9.73700195 3.95435547 10.54931641 4.38964844 C11.37866699 4.83856445 12.20801758 5.28748047 13.0625 5.75 C18.353955 8.58424371 23.61122333 11.36566414 29.125 13.75 C34.18537292 15.99819622 38.51450993 18.76780862 43 22 C43.61101562 22.41668945 44.22203125 22.83337891 44.8515625 23.26269531 C55.63167092 30.61509816 63.82034322 37.15543808 66.50390625 50.65625 C67.19104378 53.90256902 68.15142777 57.05962607 69.0625 60.25 C70.59545191 65.80763995 71.50243646 71.15884571 71.7265625 76.92578125 C71.96143767 79.56644919 72.40709128 81.90828262 72.98828125 84.484375 C74.33039715 90.93532614 74.4166758 97.36829743 74.5625 103.9375 C74.62233978 106.34254977 74.68595802 108.74750941 74.75390625 111.15234375 C74.77783447 112.20413818 74.8017627 113.25593262 74.82641602 114.33959961 C74.89380183 117.1043873 74.89380183 117.1043873 76 120 C76.23857193 122.49298492 76.42141559 124.96095087 76.55441284 127.46006775 C76.59654022 128.24620168 76.6386676 129.0323356 76.68207157 129.84229177 C77.25023865 141.76588701 77.1393498 153.70507518 77.12939453 165.63891602 C77.13020274 168.38868287 77.13249805 171.13844807 77.13470459 173.88821411 C77.13911711 180.53562437 77.13820683 187.18302324 77.13529195 193.83043391 C77.13302324 199.2295008 77.13273171 204.62856453 77.13381577 210.02763176 C77.133969 210.79923 77.13412223 211.57082825 77.13428011 212.36580826 C77.13459986 213.93361792 77.13492407 215.50142757 77.1352527 217.06923722 C77.13809338 231.71330296 77.13484101 246.3573624 77.12945233 261.00142711 C77.12497039 273.57151117 77.12577435 286.14158602 77.13037109 298.71166992 C77.13571576 313.33370917 77.13783473 327.95574296 77.13475883 342.57778305 C77.13444029 344.13426745 77.13412592 345.69075185 77.13381577 347.24723625 C77.13358435 348.39584066 77.13358435 348.39584066 77.13334826 349.5676492 C77.13248391 354.9700282 77.13394391 360.37240372 77.13629532 365.77478218 C77.13909162 372.34289521 77.13835804 378.91099628 77.13301457 385.47910792 C77.13037759 388.83118437 77.12990651 392.18322419 77.13266373 395.53530312 C77.1353717 399.15987268 77.13199869 402.78438495 77.12698364 406.40895081 C77.13032973 408.01452617 77.13032973 408.01452617 77.13374341 409.65253741 C77.12983178 411.09667416 77.12983178 411.09667416 77.12584114 412.56998539 C77.12567879 413.40738414 77.12551644 414.24478289 77.12534916 415.10755736 C77 417 77 417 76 418 C65.82469855 418.85895402 57.08699932 417.42812767 49 411 C49 410.34 49 409.68 49 409 C48.34 409 47.68 409 47 409 C40.57340312 399.87004972 40.54910815 388.54726792 40.6015625 377.80078125 C40.59869232 376.48514694 40.59582214 375.16951263 40.59286499 373.81401062 C40.5884818 371.05159736 40.59474439 368.28947825 40.60888672 365.52709961 C40.62602747 362.01038779 40.61608172 358.4943607 40.59816933 354.97767353 C40.58464934 351.58532294 40.59414555 348.1931512 40.6015625 344.80078125 C40.59548981 343.55057693 40.58941711 342.30037262 40.5831604 341.01228333 C40.63912684 334.01770009 41.36564491 328.49607025 44 322 C44.66 322 45.32 322 46 322 C46.63977422 315.97024608 46.63977422 315.97024608 43.5 311 C40.85344194 307.82413033 40.30154187 306.17602548 40.57421875 302.0625 C41.1808841 299.12379078 42.39769937 296.75939188 43.84765625 294.1484375 C45.93019747 290.26573353 47.50070249 286.13890581 49 282 C49.28488281 281.38640625 49.56976563 280.7728125 49.86328125 280.140625 C50.05551693 277.13076356 48.50814187 275.50850139 46.97021484 273.02929688 C45.17986377 269.28460686 45.35985693 265.33532414 45.3125 261.25 C45.27037664 259.56761842 45.2249448 257.88531556 45.17578125 256.203125 C45.16458252 255.46739258 45.15338379 254.73166016 45.1418457 253.97363281 C45.06650633 251.78717332 45.06650633 251.78717332 44 249 C43.7759936 246.0246679 43.81485805 243.0454273 43.8125 240.0625 C43.80025391 239.25103516 43.78800781 238.43957031 43.77539062 237.60351562 C43.77345703 236.81783203 43.77152344 236.03214844 43.76953125 235.22265625 C43.76542236 234.50859619 43.76131348 233.79453613 43.75708008 233.05883789 C44.03758072 230.68148927 44.86846673 229.09226388 46 227 C46.81561932 221.7461405 45.82322411 216.94751303 44.4375 211.875 C42.81289333 205.82870442 43.11420417 201.70949313 45.0625 195.75 C46.30685673 190.77257307 47.58473884 183.89845531 45.00927734 179.18798828 C43.76721158 176.49534354 43.68119444 174.40194309 43.5859375 171.44140625 C43.54702393 170.34256104 43.50811035 169.24371582 43.46801758 168.11157227 C43.43732178 166.94037842 43.40662598 165.76918457 43.375 164.5625 C43.33850342 163.36359131 43.30200684 162.16468262 43.2644043 160.92944336 C43.16118976 157.28647777 43.07640815 153.64362001 43 150 C42.97663574 148.92492187 42.95327148 147.84984375 42.92919922 146.7421875 C42.87416327 143.84886904 42.83784038 140.9562165 42.8125 138.0625 C42.79944824 137.20019775 42.78639648 136.33789551 42.77294922 135.44946289 C42.77125732 134.2543811 42.77125732 134.2543811 42.76953125 133.03515625 C42.76542236 132.3481665 42.76131348 131.66117676 42.75708008 130.95336914 C43.04427313 128.64399063 43.93872359 127.05439988 45 125 C44.67126382 119.47723218 42.85668027 114.08271459 40.78125 108.984375 C38.83778528 104.04797461 37.70876353 99.64725716 37.3671875 94.3359375 C37.28315674 93.05775146 37.19912598 91.77956543 37.11254883 90.46264648 C37.03262137 89.10014113 36.95345252 87.73759108 36.875 86.375 C36.83297455 85.68624786 36.7909491 84.99749573 36.74765015 84.28787231 C36.22360933 75.67480404 35.82081049 67.06877064 35.8125 58.4375 C35.81169434 57.65487793 35.81088867 56.87225586 35.81005859 56.06591797 C35.85137845 51.93852337 36.26973378 48.05578621 37 44 C37.66542146 36.65981058 37.66542146 36.65981058 35.1875 29.9375 C31.93833505 27.05966819 29.71099702 25.74196181 25.4375 25.3125 C24.65246094 25.22613281 23.86742187 25.13976562 23.05859375 25.05078125 C20.93440573 24.8373244 20.93440573 24.8373244 19 26 C19.65585189 29.60992379 19.65585189 29.60992379 21 33 C22.10672407 39.4703801 22.18520588 46.03553423 22.28125 52.58203125 C22.29965942 53.55863205 22.31806885 54.53523285 22.33703613 55.54142761 C22.41509951 59.68303379 22.48363868 63.82478061 22.55224609 67.96655273 C22.60399276 71.00512634 22.66119139 74.04356307 22.71875 77.08203125 C22.73232544 78.01747269 22.74590088 78.95291412 22.7598877 79.91670227 C22.77660522 80.78828476 22.79332275 81.65986725 22.81054688 82.55786133 C22.82307495 83.3212532 22.83560303 84.08464508 22.84851074 84.87117004 C23.00181878 87.02555869 23.46077096 88.91337088 24 91 C24.22390317 93.75317974 24.41393662 96.49305329 24.5625 99.25 C24.60568359 99.99507813 24.64886719 100.74015625 24.69335938 101.5078125 C24.79896725 103.338349 24.89994201 105.16915176 25 107 C20.43748773 106.41128874 16.86429776 104.51530009 12.9375 102.25 C12.32583984 101.91484375 11.71417969 101.5796875 11.08398438 101.234375 C7.17743196 99.00447265 4.41935711 96.80692958 2 93 C0.02736737 84.45710277 3.45326477 74.13629746 5.53686523 65.87011719 C6.89285897 60.3149758 7.3506613 55.08684932 7.3125 49.375 C7.30831055 48.50472168 7.30412109 47.63444336 7.29980469 46.73779297 C7.11906991 36.26478914 4.84124543 26.70068329 1.8125 16.6875 C0.10277673 10.97325379 -0.49241565 5.9363442 0 0 Z " fill="#000000" transform="translate(147,246)"/>
<path d="M0 0 C0.86496094 0.01804687 1.72992188 0.03609375 2.62109375 0.0546875 C3.26175781 0.07789062 3.90242188 0.10109375 4.5625 0.125 C6.82323584 6.80170652 8.18390317 13.35620405 9.1328125 20.33984375 C9.49433348 23.20030196 9.49433348 23.20030196 10.5625 26.125 C10.79356261 29.60194208 10.95216169 33.07286462 11.08007812 36.5546875 C11.30460106 41.48571941 11.84625813 46.29336617 12.5546875 51.1796875 C13.60181821 58.74678731 14.00338021 66.24138543 14.19555664 73.87353516 C14.2512189 76.04760814 14.32118929 78.22092286 14.39257812 80.39453125 C14.61913623 88.14526196 14.61913623 88.14526196 14.5625 91.125 C12.64895121 93.03854879 9.31640447 92.78668922 6.75 93.125 C2.1017563 93.6997356 2.1017563 93.6997356 -2.47265625 94.66015625 C-5.31995145 95.33377082 -8.14366794 95.40393817 -11.0625 95.5625 C-16.24939853 95.89609721 -21.11177141 96.5893221 -26.17578125 97.7109375 C-29.6630387 98.3493646 -32.90083401 98.31790905 -36.4375 98.125 C-38.58210796 95.98039204 -38.13723142 91.47922732 -38.4375 88.5 C-38.60309771 86.90353459 -38.76975056 85.30717825 -38.9375 83.7109375 C-39.0192749 82.92799316 -39.1010498 82.14504883 -39.18530273 81.33837891 C-39.40352779 79.42315302 -39.68257152 77.51504108 -39.97265625 75.609375 C-40.53368161 71.40404202 -40.70722195 67.23596772 -40.875 63 C-41.12380511 57.4920241 -41.48495777 52.12757454 -42.4375 46.6875 C-43.68008222 39.48052314 -43.91176339 32.27395102 -44.21484375 24.98046875 C-44.43499026 19.75736485 -44.86215216 14.56822635 -45.3515625 9.36328125 C-45.37992187 8.62464844 -45.40828125 7.88601562 -45.4375 7.125 C-43.38970996 5.07720996 -39.61446128 5.1176959 -36.8125 4.625 C-35.67192139 4.42209351 -35.67192139 4.42209351 -34.50830078 4.21508789 C-28.2678157 3.1573017 -22.13321563 2.66615659 -15.8046875 2.43359375 C-10.33310488 1.9321378 -5.56296271 -0.15240994 0 0 Z " fill="#000000" transform="translate(368.4375,84.875)"/>
<path d="M0 0 C1.67013418 0.65793165 3.3357865 1.32723284 5 2 C6.64139171 2.20586016 8.28846273 2.36877031 9.9375 2.5 C13.92873241 2.82965931 17.20259594 3.7072667 21 5 C23.99130354 5.4449873 26.98697884 5.7455671 30 6 C29 9 29 9 27.1875 10.625 C20.25016343 18.15696542 19.02228612 28.78905529 18.5078125 38.58984375 C18.46615463 39.36037079 18.42449677 40.13089783 18.38157654 40.92477417 C18.01522401 48.04330745 17.77043915 55.16517231 17.53515625 62.2890625 C17.47685387 64.03495415 17.47685387 64.03495415 17.41737366 65.81611633 C17.25693322 70.64859702 17.09725009 75.48104818 16.95043945 80.31396484 C16.84068913 83.88930194 16.72006229 87.46413925 16.59765625 91.0390625 C16.56736832 92.12248932 16.53708038 93.20591614 16.50587463 94.32217407 C16.29485597 100.20687342 15.57116719 105.33267074 14 111 C13.39000717 115.27600936 13.07270688 119.56841782 12.75 123.875 C12.66065186 125.06432129 12.57130371 126.25364258 12.47924805 127.47900391 C11.73784985 138.97339307 12.6309565 149.7416098 15 161 C11.5493204 162.15779381 11.09717092 162.04337988 7.5 160.4375 C6.81292969 160.06496094 6.12585938 159.69242188 5.41796875 159.30859375 C1.62486798 157.25578477 -2.28373836 155.43589028 -6.16796875 153.5625 C-11.59807822 150.56657753 -14.66402921 147.78430861 -17 142 C-17.74740952 139.34694369 -18.37330718 136.68582639 -19 134 C-19.33 133.34 -19.66 132.68 -20 132 C-20.24336945 128.73557719 -20.190039 125.45999042 -20.1875 122.1875 C-20.18741943 121.2284375 -20.18733887 120.269375 -20.18725586 119.28125 C-20.13855958 113.20395461 -19.61742978 107.48032218 -18.50390625 101.5 C-17.8328741 96.83918756 -17.67463987 92.2020649 -17.5 87.5 C-17.24006133 80.64570075 -16.66341903 74.06862245 -15.46875 67.3046875 C-14.88432726 63.18450719 -14.68523196 59.09192704 -14.5 54.9375 C-14.22719193 48.85425887 -13.60336011 43.05034774 -12.46484375 37.05859375 C-11.90249009 33.35840121 -11.7315844 29.67086603 -11.5625 25.9375 C-11.15174182 17.97953129 -10.68050695 10.28362101 -5.5 3.9375 C-3.71783448 2.55632172 -1.87604138 1.25069425 0 0 Z " fill="#000000" transform="translate(20,21)"/>
</svg>
