<?xml version="1.0" encoding="UTF-8"?>
<svg version="1.1" xmlns="http://www.w3.org/2000/svg" width="320" height="740">
<path d="M0 0 C4.94233104 0.52024537 9.07243419 2.13770404 13.6171875 4.0234375 C16.37233925 5.15259805 19.16974995 6.07709238 22 7 C23.9087178 7.71172528 25.81722564 8.42405173 27.72265625 9.14453125 C34.108736 11.54341884 40.51385379 13.88495232 47 16 C47.66257813 16.22429687 48.32515625 16.44859375 49.0078125 16.6796875 C53.65547671 18.25050084 58.32385815 19.71156731 63.02734375 21.10546875 C69.36884637 23.01375272 75.68163727 25.01669259 82 27 C82.2249328 31.99225851 81.71333411 35.47941585 79.75 40.0625 C76.95979946 46.91977252 74.95089513 53.86650955 73 61 C71.61299763 65.93856904 70.14785371 70.75642806 68.1875 75.5 C64.13693658 85.35481905 60.99478815 95.61328771 57.9375 105.8125 C56.63989068 110.10914828 55.15385328 114.26516497 53.5 118.4375 C51.27048918 124.08968492 49.58013599 129.79026197 47.96875 135.64453125 C46.80660087 139.66987843 45.4046398 143.56739975 43.93359375 147.48828125 C43.06993016 149.81186154 42.27129499 152.14442342 41.5 154.5 C40.43192952 157.76194497 39.26816713 160.97395143 38.0625 164.1875 C36.1066734 169.49723457 34.58084435 174.88174065 33.125 180.34765625 C32.23898427 183.22413093 31.26023344 185.90900507 30.125 188.6875 C27.81285933 194.35277986 25.89756415 200.1225036 24 205.9375 C22.03652338 211.93147257 20.05518446 217.90642825 17.87109375 223.82421875 C16.40863159 227.80298659 15.15019542 231.77483937 14.0625 235.875 C12.45599394 241.65842182 10.43676569 247.14666181 8.21875 252.71875 C6.95812317 256.11274531 5.95767272 259.50912847 5 263 C3.41532425 268.77000887 1.41813231 274.24623916 -0.78515625 279.8046875 C-2.36133164 283.95038353 -3.62935529 288.15951926 -4.90234375 292.40625 C-7.63356653 301.34833171 -10.41774435 310.35780825 -14 319 C-18.50313526 329.87479137 -21.79610469 341.27427355 -25.24365234 352.51757812 C-26.61524864 356.93063655 -28.23673743 361.16256022 -30.02734375 365.41796875 C-31.69604654 369.84773799 -32.85590667 374.42450818 -34.0703125 378.99609375 C-35 382 -35 382 -37 385 C-37.69622498 387.19296776 -38.33518133 389.40440345 -38.9375 391.625 C-41.08314768 399.33197714 -43.49770265 406.74837865 -46.4375 414.1875 C-48.68901009 419.95783723 -50.39892638 425.77907145 -52.04296875 431.74609375 C-53.09609676 435.32672898 -54.4305263 438.68606295 -55.8671875 442.125 C-59.52699284 451.41333356 -62.49607672 460.99941478 -65.125 470.625 C-68.84905334 483.96051051 -68.84905334 483.96051051 -74 488 C-84.92462936 490.11260254 -95.93227334 484.96217601 -105.8046875 480.8671875 C-108.18598762 479.88518634 -108.18598762 479.88518634 -111.5 479 C-116.14637848 477.67246329 -120.53598265 475.83728045 -125 474 C-126.6660258 473.33173339 -128.33251609 472.66461992 -130 472 C-129.4580276 467.12224843 -127.86735775 463.32953808 -125.5625 459.0625 C-123.09345756 454.40791687 -121.3709282 450.08261154 -120 445 C-119.4110109 443.60919381 -118.78945771 442.23137235 -118.125 440.875 C-115.96422054 436.17071998 -114.53601613 431.34695637 -113.06640625 426.390625 C-112.00879156 423.02795265 -110.79458525 419.77803237 -109.5 416.5 C-107.40533892 411.18968185 -105.66638008 405.84846527 -104.08984375 400.36328125 C-103.24080937 397.7431429 -102.31206476 395.28070509 -101.26171875 392.7421875 C-98.40029829 385.6948723 -96.0684702 378.4673676 -93.68115234 371.24926758 C-92.87294378 368.80628465 -92.05988475 366.36495646 -91.24609375 363.92382812 C-90.72367444 362.35165681 -90.20152945 360.7793943 -89.6796875 359.20703125 C-89.44007294 358.48707474 -89.20045837 357.76711823 -88.95358276 357.02534485 C-87.87165806 353.74918821 -86.83247444 350.47177574 -85.89501953 347.15112305 C-85.0920606 344.32412061 -84.13888712 341.7048569 -83 339 C-81.38299189 335.04996542 -80.14316761 331.11540338 -79 327 C-77.46638808 322.58505659 -75.70103998 318.26440106 -73.9375 313.9375 C-72.35437788 310.00967809 -71.1340808 306.08269089 -70 302 C-69.01891728 299.32431984 -68.01848957 296.66121468 -67 294 C-64.88047509 288.38018084 -62.89959982 282.75821606 -61.1875 277 C-59.26301349 270.620403 -56.9778358 264.40788183 -54.64404297 258.17016602 C-52.76229985 253.12339763 -50.98187554 248.05827981 -49.3125 242.9375 C-47.98223371 238.86845019 -46.59112814 234.88569741 -44.9375 230.9375 C-42.83691461 225.86741238 -41.45472366 220.64726742 -39.99609375 215.36328125 C-39.15817304 212.53406661 -38.21261772 209.89882169 -37.0625 207.1875 C-34.81081982 201.86534685 -33.28585002 196.36170626 -31.75024414 190.79956055 C-30.80945398 187.45508017 -29.94359929 184.91539894 -28 182 C-27.32737077 179.82667279 -26.70908798 177.6362775 -26.125 175.4375 C-24.96441989 171.24056822 -23.76861758 167.19376801 -22.0625 163.1875 C-20.17660951 158.71313237 -18.82824723 154.1619863 -17.5 149.5 C-15.96092226 144.11206547 -14.27300745 138.93929302 -12.09765625 133.76953125 C-7.98071846 123.38195513 -4.7647277 112.60070015 -1.859375 101.8203125 C-1.10519577 99.34523338 -0.17782839 97.28779836 1 95 C1.49340498 93.09216741 1.98298849 91.18309545 2.4375 89.265625 C3.46405439 85.13089202 4.7557025 81.07337192 6 77 C6.50095244 75.33361936 7.0009589 73.66695404 7.5 72 C7.7475 71.17628906 7.995 70.35257812 8.25 69.50390625 C8.75286397 67.82507394 9.25283295 66.14537195 9.75 64.46484375 C10.93481746 60.47225575 12.15352524 56.50374383 13.5 52.5625 C14.97170393 48.2171005 16.17678628 43.81664534 17.3515625 39.3828125 C17.84430339 37.57213815 18.40659161 35.78022517 19 34 C19.0685495 32.10529184 19.08480372 30.2083166 19.0625 28.3125 C19.05347656 27.31863281 19.04445312 26.32476562 19.03515625 25.30078125 C19.02355469 24.54152344 19.01195312 23.78226563 19 23 C17.68 22.67 16.36 22.34 15 22 C15 22.66 15 23.32 15 24 C13.8553125 25.0828125 13.8553125 25.0828125 12.6875 26.1875 C7.21021758 31.91953975 5.96611226 39.39993324 3.96484375 46.890625 C3 50 3 50 1 53 C0.30356015 54.98982813 -0.354876 56.99294757 -1 59 C-1.62256269 60.66757863 -2.24785275 62.33414013 -2.875 64 C-4.45810846 68.30957302 -5.7770034 72.6375635 -7 77.0625 C-8.36298673 81.95758464 -9.96564764 86.56542144 -11.93359375 91.2421875 C-13.3008837 94.77810949 -14.39752835 98.37429826 -15.5 102 C-17.37245075 108.14243858 -19.51837524 114.07405121 -22 120 C-23.84699474 124.60038506 -25.32986606 129.1196417 -26.4765625 133.94140625 C-27.88849872 139.49431959 -29.90262717 144.82568377 -32.0625 150.125 C-33.65244072 154.03360427 -34.88870948 157.92526808 -36 162 C-37.55747646 166.92305777 -39.28037427 171.76300982 -41.125 176.5859375 C-42.05075849 179.14003906 -42.89755993 181.71591643 -43.73901367 184.29882812 C-45.49082108 189.67327911 -47.32246153 194.92811075 -49.5625 200.125 C-51.79882847 205.31747516 -53.43827861 210.57513483 -55.0390625 215.9921875 C-55.85883516 218.55814258 -56.78403608 220.88561191 -57.9375 223.3125 C-60.173483 228.06505995 -61.62148628 233.03682935 -63.13989258 238.05029297 C-64.56898673 242.73023211 -66.21565926 247.24848216 -68.09375 251.76953125 C-70.10158544 256.71122968 -71.7398159 261.74059246 -72.9375 266.9375 C-73.68082671 270.08570725 -74.75208233 272.95354925 -76 275.9375 C-77.5891988 279.78195886 -78.62794034 283.44223581 -79.4375 287.51171875 C-80.37905073 291.67677301 -81.71388093 295.71970139 -83 299.7890625 C-84.44320599 304.42310674 -85.74875701 309.09194948 -87.04296875 313.76953125 C-89.29396862 321.79008419 -91.88757672 329.54788415 -94.98876953 337.27807617 C-98.05581291 344.98631846 -100.80747413 352.80154653 -103.5625 360.625 C-113.74780814 389.50088685 -113.74780814 389.50088685 -118.19921875 399.19140625 C-119.32556041 401.73529011 -120.15465267 404.35124502 -121 407 C-121.71172528 408.9087178 -122.42405173 410.81722564 -123.14453125 412.72265625 C-125.17216083 418.12040988 -127.17654231 423.52962693 -129 429 C-129.89843016 431.69529048 -130.87759444 434.34025183 -131.875 437 C-133.47690993 441.34888882 -134.78272547 445.71617269 -136 450.1875 C-137.50856302 455.5499701 -139.03250994 460.27056272 -142 465 C-144.86082684 466.43041342 -146.1393252 465.95709188 -149.234375 465.00390625 C-150.39453125 464.52824219 -151.5546875 464.05257813 -152.75 463.5625 C-154.50570312 462.85287109 -154.50570312 462.85287109 -156.296875 462.12890625 C-157.18890625 461.75636719 -158.0809375 461.38382813 -159 461 C-158.37085023 455.67319863 -157.18685045 450.75054166 -155.625 445.625 C-155.39876953 444.87186523 -155.17253906 444.11873047 -154.93945312 443.34277344 C-152.77575244 436.17900226 -150.46098327 429.15072959 -147.72265625 422.18359375 C-144.87766394 414.80726705 -142.38896885 407.32585937 -139.9375 399.8125 C-137.43841545 392.15457042 -134.90394751 384.5530678 -131.83764648 377.09887695 C-130.73703624 374.34109606 -129.88237698 371.54006737 -129.0625 368.6875 C-127.36052785 362.99632039 -125.33956703 357.49234879 -123.1484375 351.97265625 C-122.0024174 349.00625729 -120.99424453 346.02039436 -120 343 C-119.05342769 340.26667526 -118.08934228 337.53959875 -117.125 334.8125 C-116.72692139 333.68376465 -116.72692139 333.68376465 -116.32080078 332.53222656 C-114.86969587 328.42618926 -113.39029613 324.33288125 -111.875 320.25 C-110.46541739 316.40990252 -109.23619502 312.5435515 -108.0625 308.625 C-106.38184722 303.04918724 -104.35854053 297.67654464 -102.22265625 292.26171875 C-100.59380782 287.91638827 -99.29043842 283.49604851 -97.96484375 279.05078125 C-96.83208532 275.46906329 -95.43540455 272.04869812 -93.99609375 268.58203125 C-92.86609624 265.65290046 -91.95963555 262.69596662 -91.0625 259.6875 C-89.39070133 254.09516954 -87.37554742 248.71446147 -85.23046875 243.2890625 C-83.55722706 238.8164609 -82.21261672 234.2677467 -80.89453125 229.6796875 C-80 227 -80 227 -78 224 C-77.50230266 222.34100887 -77.00988116 220.68002478 -76.55859375 219.0078125 C-75.02418252 213.4925162 -73.05084637 208.11463649 -71.0625 202.75 C-69.58890553 198.74226958 -68.28492195 194.71617023 -67.0625 190.625 C-65.38184722 185.04918724 -63.35854053 179.67654464 -61.22265625 174.26171875 C-59.59236952 169.91255127 -58.28821659 165.48810203 -56.9609375 161.0390625 C-56.11047302 158.34938216 -55.14969265 155.78806482 -54.0625 153.1875 C-52.26361922 148.86313169 -50.86204531 144.47558768 -49.5 140 C-47.88919414 134.70700218 -46.10232705 129.59592207 -43.96484375 124.48828125 C-42.81835551 121.53154843 -41.90891481 118.53796818 -41 115.5 C-39.5492809 110.65289147 -37.86995044 106.00463602 -35.9375 101.33203125 C-34.44286921 97.61413716 -33.22767826 93.81262304 -32 90 C-28.52416637 79.33936393 -24.77479356 68.76248698 -20.875 58.25 C-19.44234804 54.34868743 -18.19548929 50.41783061 -17 46.4375 C-15.85529385 42.64843392 -14.64452608 38.96689743 -13.125 35.3125 C-9.52393611 26.63850879 -6.80843331 17.59565958 -3.921875 8.6640625 C-2.86944624 5.62272177 -1.49184072 2.84805956 0 0 Z " fill="#000000" transform="translate(200,135)"/>
<path d="M0 0 C3.72128241 0.27909618 6.72197627 1.24989774 10.0625 2.8125 C14.78891595 5.01341061 19.62136731 6.45515234 24.61328125 7.93359375 C27.95747176 8.98660875 31.1810193 10.20296079 34.4375 11.5 C38.8522654 13.24155614 43.2347152 14.68665404 47.8125 15.9375 C57.21464361 18.53228153 66.90143466 21.58937291 75.4375 26.375 C81.02736463 28.92476281 86.15247113 28.61992354 92 27 C90.6445638 32.4012079 89.22601891 37.67307366 87.0625 42.8125 C85.41614217 46.75378088 84.19256991 50.69321292 83.0625 54.8125 C81.45587741 60.6341442 79.45332938 66.16605734 77.22265625 71.7734375 C75.98212991 75.04715876 74.93898267 78.3335149 73.9375 81.6875 C72.56015798 86.29144404 70.97395965 90.69497864 69.140625 95.1328125 C67.62898656 98.93261598 66.24547015 102.77237293 64.875 106.625 C64.62121582 107.32979492 64.36743164 108.03458984 64.10595703 108.76074219 C62.87506284 112.24434359 61.8028112 115.68526136 60.96484375 119.28515625 C59.52866059 124.81475214 56.97851979 128.24131575 52.75 132 C45.84003044 134.5127162 38.58010612 131.39899702 32 129 C30.50156818 128.49531984 29.00155678 127.99530519 27.5 127.5 C26.38818359 127.12875 26.38818359 127.12875 25.25390625 126.75 C23.74192062 126.24687826 22.22888068 125.74691469 20.71484375 125.25 C17.13303227 124.07039828 13.58138259 122.85667763 10.0625 121.5 C6.24320316 120.04213719 2.35925104 118.89782957 -1.5625 117.75 C-4.4081291 116.87442182 -7.15925403 115.82610753 -9.93359375 114.75 C-12.28513423 113.89651083 -14.65974136 113.19582151 -17.0625 112.5 C-30.06427082 108.65131631 -30.06427082 108.65131631 -34 104 C-34.78407151 99.03421378 -34.8193444 95.2290166 -32 91 C-31.35106917 89.05604126 -30.75337833 87.09473819 -30.1875 85.125 C-28.80603704 80.49273385 -27.27726249 75.99510697 -25.5 71.5 C-23.84202988 67.2870425 -22.36244681 63.08675203 -21.0625 58.75 C-17.97150197 48.43833045 -14.59411387 38.14914546 -10.0078125 28.3984375 C-8.30411079 24.34389156 -6.99900103 20.1499203 -5.66186523 15.96240234 C-4.09693923 11.09693923 -4.09693923 11.09693923 -3 10 C-2.63272554 8.50794753 -2.3050154 7.00601352 -2 5.5 C-1.11111111 1.11111111 -1.11111111 1.11111111 0 0 Z M2 38 C1.53054207 39.91136442 1.06505119 41.82383934 0.625 43.7421875 C-0.0104801 46.03785938 -0.85862862 48.03565122 -1.875 50.1875 C-3.57078579 53.82937206 -4.80168337 57.45900068 -5.9375 61.3125 C-7.56152478 66.79198518 -9.5862973 71.96315478 -11.828125 77.21484375 C-14.52694202 83.6290322 -16.447149 88.99466568 -16 96 C-11.36486143 96.95366215 -11.36486143 96.95366215 -6.75 96.375 C-2.62387753 93.13304663 -1.19251863 88.05989103 0.4375 83.25 C1.82774581 79.23743425 3.23291235 75.33204973 5.0625 71.5 C7.37455187 66.53891705 8.67849254 61.31877624 10.0703125 56.0390625 C11 53 11 53 13 50 C13.69788995 43.95162041 12.20695267 40.91064627 9 36 C5.04542152 35.65176193 5.04542152 35.65176193 2 38 Z " fill="#000000" transform="translate(34,607)"/>
<path d="M0 0 C14.16135431 -0.63726094 27.82063215 0.38935943 39.0546875 10.09863281 C41.66400507 12.60209571 43.97188882 15.14163193 46.0546875 18.09863281 C46.69337769 18.98699829 46.69337769 18.98699829 47.3449707 19.89331055 C51.6630091 26.59854464 51.841567 32.71107717 51.7421875 40.53613281 C51.76990234 41.69951172 51.79761719 42.86289062 51.82617188 44.06152344 C51.80263195 52.42761175 49.82423182 57.34341347 45.0546875 64.09863281 C42.98982587 67.79710135 42.42063167 71.39050235 41.8046875 75.53613281 C38.99150346 92.67267697 33.2580629 108.93647538 27.0546875 125.09863281 C24.27391269 132.41982025 21.94329417 139.77076291 19.88671875 147.32519531 C19.0546875 150.09863281 19.0546875 150.09863281 18.0546875 151.09863281 C12.6763101 150.74786907 8.16201696 149.111741 3.1484375 147.20410156 C-0.20365242 146.00632196 -3.57590806 145.04240653 -7.0078125 144.09863281 C-12.05613832 142.69325827 -16.84585295 141.03981921 -21.6796875 139.02832031 C-28.10210274 136.39291544 -34.79025901 134.54345912 -41.4453125 132.59863281 C-58.32522317 127.6632963 -58.32522317 127.6632963 -64.9453125 124.09863281 C-64.79744484 117.02786998 -63.68430963 111.99528665 -60.26953125 105.82128906 C-58.21860128 101.60448025 -57.1957923 97.15733191 -55.984375 92.64160156 C-54.40807683 87.26678036 -52.1895884 82.2207727 -49.9453125 77.09863281 C-49.62820312 76.18210937 -49.31109375 75.26558594 -48.984375 74.32128906 C-48.64148438 73.5878125 -48.29859375 72.85433594 -47.9453125 72.09863281 C-44.4158479 70.92214461 -43.96110453 71.26846698 -40.6953125 72.72363281 C-36.34135836 74.56960752 -31.94119704 76.14023374 -27.4453125 77.59863281 C-23.22447355 78.97663105 -19.05068743 80.40174451 -14.9453125 82.09863281 C-6.17076003 85.71427755 2.9316805 88.51267098 12.0546875 91.09863281 C14.82025098 92.06336426 16.77926579 92.87485267 19.0546875 94.72363281 C21.54222645 96.43381584 23.09866032 96.34496841 26.0546875 96.09863281 C27.02509172 90.16838478 26.94785019 85.03472948 26.0546875 79.09863281 C25.38824219 79.12183594 24.72179687 79.14503906 24.03515625 79.16894531 C14.3556994 79.35847314 5.94386983 78.28089846 -2.8125 74.04394531 C-4.95323425 73.09512171 -6.98035479 72.5030787 -9.2578125 71.97363281 C-12.191727 71.27744971 -14.37277304 70.59928083 -16.9453125 69.09863281 C-16.30110942 66.35003299 -15.5034155 63.73981798 -14.5078125 61.09863281 C-14.26160156 60.43863281 -14.01539063 59.77863281 -13.76171875 59.09863281 C-12.9213027 57.03981456 -11.96409904 55.07446126 -10.9453125 53.09863281 C-3.77973118 52.57088951 2.0068625 52.75487186 8.6796875 55.59863281 C14.52264319 58.05027202 19.75719373 59.7861965 26.0546875 58.09863281 C29.47423592 56.05750701 30.78743837 53.83930795 32.0546875 50.09863281 C33.39879931 42.47410428 33.36757635 34.35490067 29.6796875 27.41113281 C25.22234093 21.3470683 20.04648236 17.75346658 12.578125 16.52832031 C6.92509377 16.2499055 2.27322505 16.3075362 -2.4453125 19.66113281 C-4.28992285 21.29227789 -4.28992285 21.29227789 -5.9453125 23.09863281 C-6.50863281 23.68644531 -7.07195312 24.27425781 -7.65234375 24.87988281 C-12.11714486 29.83353076 -15.00482387 34.6800935 -16.9453125 41.09863281 C-20.70650726 40.4746963 -23.13491292 38.75089566 -26.1953125 36.53613281 C-27.08734375 35.89546875 -27.979375 35.25480469 -28.8984375 34.59472656 C-29.57390625 34.10101563 -30.249375 33.60730469 -30.9453125 33.09863281 C-29.2898668 20.13097481 -26.48360155 12.49102026 -15.9453125 4.09863281 C-11.02237695 0.31175931 -5.97543414 0.30297131 0 0 Z " fill="#000000" transform="translate(268.9453125,-0.0986328125)"/>
</svg>
